<svg width="103" height="42" viewBox="0 0 103 42" fill="none" xmlns="http://www.w3.org/2000/svg">
<path fill-rule="evenodd" clip-rule="evenodd" d="M38.2308 35.5744C34.2341 39.5359 28.6236 42 22.4108 42C10.2753 42 0.4375 32.598 0.4375 21C0.4375 9.40201 10.2753 0 22.4108 0C28.351 0 33.7405 2.25263 37.6953 5.91281L31.2257 12.0959C28.9275 10.0171 25.8249 8.74223 22.4108 8.74223C15.3271 8.74223 9.58472 14.2303 9.58472 21.0001C9.58472 27.77 15.3271 33.2581 22.4108 33.2581C26.0096 33.2581 29.2622 31.8415 31.5915 29.5601L38.1203 35.4431L38.2308 35.5744Z" fill="#00B8FA"/>
<path fill-rule="evenodd" clip-rule="evenodd" d="M22.5044 30.7866C28.2153 30.7866 32.8448 26.362 32.8448 20.9043C32.8448 15.4464 28.2153 11.0219 22.5044 11.0219C16.7936 11.0219 12.1641 15.4464 12.1641 20.9043C12.1641 26.362 16.7936 30.7866 22.5044 30.7866ZM14.7492 16.8183H17.1354L19.2234 23.1849L21.5103 16.9133H23.3993L25.6862 23.1849L27.7742 16.9133H30.0609L26.6805 26.4156H24.6919L22.405 20.3341L20.1183 26.4156H18.3285L14.7492 16.8183Z" fill="#00B8FA"/>
<path d="M58.7282 12.8097C58.5906 14.2033 58.0523 15.2919 57.1135 16.0755C56.1747 16.8532 54.9262 17.2419 53.3677 17.2419C52.2787 17.2419 51.318 16.9967 50.4856 16.5063C49.6594 16.0097 49.0211 15.3069 48.5704 14.3977C48.1198 13.4886 47.8851 12.4329 47.8663 11.2306V10.0104C47.8663 8.7782 48.0948 7.69256 48.5517 6.75348C49.0085 5.81439 49.6626 5.09064 50.5138 4.58221C51.3712 4.07379 52.3601 3.81958 53.4803 3.81958C54.9887 3.81958 56.2028 4.21137 57.123 4.99493C58.0429 5.7785 58.578 6.88507 58.7282 8.31463H56.3625C56.2498 7.37555 55.9619 6.69964 55.4989 6.28693C55.0419 5.86823 54.3691 5.65887 53.4803 5.65887C52.4477 5.65887 51.6528 6.02075 51.0958 6.7445C50.5451 7.46228 50.2634 8.51801 50.2509 9.91168V11.0691C50.2509 12.4807 50.5138 13.5573 51.0395 14.299C51.5715 15.0407 52.3476 15.4116 53.3677 15.4116C54.3002 15.4116 55.0012 15.2112 55.4706 14.8105C55.94 14.4097 56.2373 13.7428 56.3625 12.8097H58.7282ZM66.7081 17.0625C66.6079 16.877 66.5203 16.575 66.4453 16.1563C65.7192 16.8801 64.8305 17.2419 63.7789 17.2419C62.7588 17.2419 61.9265 16.9638 61.2818 16.4076C60.6372 15.8512 60.3149 15.1634 60.3149 14.3439C60.3149 13.3091 60.7155 12.5166 61.5165 11.9663C62.3239 11.41 63.4754 11.1319 64.9713 11.1319H66.3702V10.4949C66.3702 9.99243 66.2231 9.59167 65.9289 9.2926C65.6347 8.98755 65.1872 8.83503 64.5863 8.83503C64.0669 8.83503 63.6413 8.96063 63.3097 9.21185C62.9779 9.45709 62.812 9.77112 62.812 10.1539H60.5307C60.5307 9.62158 60.7155 9.12512 61.0846 8.66455C61.4539 8.19799 61.9546 7.83313 62.5868 7.56995C63.2251 7.30677 63.9355 7.17517 64.7178 7.17517C65.9069 7.17517 66.8552 7.46228 67.5623 8.0365C68.2696 8.60474 68.6326 9.40625 68.6514 10.441V14.8194C68.6514 15.6928 68.7797 16.3896 69.0363 16.91V17.0625H66.7081ZM64.2015 15.4924C64.6521 15.4924 65.0745 15.3877 65.4688 15.1784C65.8694 14.9689 66.1698 14.6879 66.3702 14.335V12.5046H65.1403C64.2953 12.5046 63.6602 12.6452 63.2346 12.9263C62.809 13.2074 62.5961 13.6052 62.5961 14.1196C62.5961 14.5383 62.74 14.8732 63.028 15.1245C63.3222 15.3698 63.7133 15.4924 64.2015 15.4924ZM74.3406 12.8994L73.3266 13.8953V17.0625H71.0454V3.28125H73.3266V11.2306L74.0401 10.3782L76.8472 7.35462H79.5885L75.8144 11.4011L79.9921 17.0625H77.3541L74.3406 12.8994ZM85.3715 17.2419C83.9257 17.2419 82.7522 16.8083 81.8509 15.941C80.9559 15.0676 80.5085 13.9072 80.5085 12.4598V12.1906C80.5085 11.2216 80.7025 10.3573 81.0905 9.59766C81.4848 8.83203 82.0356 8.23688 82.7428 7.8122C83.45 7.38751 84.2386 7.17517 85.1086 7.17517C86.4918 7.17517 87.5589 7.59687 88.31 8.44024C89.0672 9.28363 89.4459 10.4769 89.4459 12.0201V12.8994H82.8085C82.8773 13.7009 83.1559 14.335 83.6441 14.8015C84.1385 15.268 84.7581 15.5013 85.5029 15.5013C86.5481 15.5013 87.3993 15.0976 88.0565 14.2901L89.2863 15.4116C88.8795 15.9918 88.335 16.4434 87.6527 16.7664C86.9769 17.0835 86.2163 17.2419 85.3715 17.2419ZM85.0993 8.92474C84.4733 8.92474 83.9664 9.13409 83.5783 9.55279C83.1965 9.97149 82.9525 10.5547 82.846 11.3024H87.1928V11.1409C87.1426 10.4111 86.9392 9.86084 86.5825 9.48999C86.2258 9.11316 85.7313 8.92474 85.0993 8.92474ZM59.0192 34.8326L61.1222 24.9991H63.4786L60.3242 38.0625H58.0523L55.4519 28.5251L52.795 38.0625H50.5138L47.3594 24.9991H49.7157L51.8374 34.8146L54.4473 24.9991H56.4375L59.0192 34.8326ZM70.7449 38.0625C70.6448 37.877 70.5572 37.575 70.482 37.1563C69.7561 37.8801 68.8673 38.2419 67.8159 38.2419C66.7957 38.2419 65.9632 37.9638 65.3186 37.4076C64.674 36.8512 64.3516 36.1634 64.3516 35.3439C64.3516 34.3091 64.7522 33.5167 65.5533 32.9663C66.3607 32.4101 67.5124 32.1318 69.0082 32.1318H70.4069V31.4949C70.4069 30.9925 70.2598 30.5916 69.9657 30.2926C69.6715 29.9876 69.2241 29.835 68.6232 29.835C68.1037 29.835 67.6781 29.9606 67.3465 30.2119C67.0148 30.4571 66.8489 30.7712 66.8489 31.1539H64.5677C64.5677 30.6215 64.7522 30.1252 65.1215 29.6646C65.4908 29.198 65.9915 28.8331 66.6235 28.57C67.262 28.3068 67.9723 28.1752 68.7547 28.1752C69.9438 28.1752 70.892 28.4622 71.5993 29.0364C72.3065 29.6047 72.6695 30.4063 72.6883 31.4411V35.8194C72.6883 36.6928 72.8166 37.3896 73.0731 37.91V38.0625H70.7449ZM68.2383 36.4923C68.6889 36.4923 69.1115 36.3877 69.5057 36.1784C69.9062 35.9689 70.2067 35.6879 70.4069 35.335V33.5046H69.1771C68.3322 33.5046 67.6969 33.6451 67.2713 33.9263C66.8457 34.2074 66.633 34.6052 66.633 35.1196C66.633 35.5383 66.7769 35.8732 67.0648 36.1245C67.359 36.3698 67.7502 36.4923 68.2383 36.4923ZM77.5043 38.0625H75.2231V24.2812H77.5043V38.0625ZM82.4236 38.0625H80.1423V24.2812H82.4236V38.0625ZM89.3896 38.2419C87.9438 38.2419 86.7703 37.8083 85.869 36.941C84.974 36.0676 84.5266 34.9072 84.5266 33.4598V33.1906C84.5266 32.2216 84.7205 31.3573 85.1086 30.5977C85.5029 29.8321 86.0537 29.2369 86.7609 28.8121C87.4681 28.3875 88.2567 28.1752 89.1267 28.1752C90.5098 28.1752 91.577 28.5969 92.3279 29.4403C93.0853 30.2836 93.464 31.4769 93.464 33.0201V33.8994H86.8266C86.8954 34.7009 87.174 35.335 87.6622 35.8014C88.1566 36.268 88.7762 36.5013 89.521 36.5013C90.5662 36.5013 91.4173 36.0975 92.0746 35.2901L93.3044 36.4116C92.8975 36.9918 92.3531 37.4434 91.6708 37.7664C90.9948 38.0835 90.2344 38.2419 89.3896 38.2419ZM89.1172 29.9247C88.4914 29.9247 87.9845 30.1341 87.5964 30.5528C87.2146 30.9715 86.9706 31.5547 86.8641 32.3023H91.2109V32.1409C91.1607 31.4111 90.9573 30.8608 90.6006 30.49C90.2439 30.1132 89.7494 29.9247 89.1172 29.9247ZM98.1016 25.995V28.3546H99.8947V29.9696H98.1016V35.3888C98.1016 35.7596 98.1767 36.0288 98.3269 36.1963C98.4833 36.3578 98.7588 36.4385 99.1531 36.4385C99.416 36.4385 99.682 36.4086 99.951 36.3488V38.0356C99.4316 38.1731 98.9309 38.2419 98.449 38.2419C96.6965 38.2419 95.8203 37.3178 95.8203 35.4695V29.9696H94.1492V28.3546H95.8203V25.995H98.1016Z" fill="white"/>
</svg>
