<svg width="157" height="42" viewBox="0 0 157 42" fill="none" xmlns="http://www.w3.org/2000/svg">
<g clip-path="url(#clip0_4149_15353)">
<path d="M86.1484 28.7272V13.2363H91.5763C93.1049 13.2363 94.3059 13.6145 95.1793 14.3709C96.0528 15.1127 96.4899 16.1236 96.4899 17.4036C96.4899 18.5963 96.0995 19.5636 95.3197 20.3054C94.5555 21.0327 93.4948 21.4472 92.1378 21.549L98.712 28.7272H96.3955L89.8217 21.5272H87.9266V28.7272H86.1484ZM87.9266 19.9999H91.3658C93.5806 19.9999 94.688 19.1345 94.688 17.4036C94.688 15.6581 93.5806 14.7854 91.3658 14.7854H87.9266V19.9999Z" fill="white"/>
<path d="M105.248 28.9448C103.531 28.9448 102.113 28.3994 100.99 27.3085C99.882 26.203 99.3281 24.8575 99.3281 23.2721C99.3281 21.6866 99.882 20.3485 100.99 19.2575C102.113 18.1521 103.531 17.5994 105.248 17.5994C106.948 17.5994 108.305 18.1157 109.318 19.1485V17.8175H110.956V28.7266H109.318V27.3957C108.305 28.4285 106.948 28.9448 105.248 28.9448ZM105.318 27.5266C106.223 27.5266 107.018 27.3448 107.704 26.9812C108.391 26.6175 108.928 26.1375 109.318 25.5412V21.003C108.928 20.4066 108.391 19.9266 107.704 19.563C107.018 19.1994 106.223 19.0175 105.318 19.0175C104.055 19.0175 103.017 19.4321 102.206 20.2612C101.411 21.0757 101.013 22.0794 101.013 23.2721C101.013 24.4648 101.411 25.4757 102.206 26.3048C103.017 27.1194 104.055 27.5266 105.318 27.5266Z" fill="white"/>
<path d="M120.684 28.9445C118.984 28.9445 117.628 28.4281 116.614 27.3954V28.7263H114.977V12.7991H116.614V19.1481C117.628 18.1154 118.984 17.599 120.684 17.599C122.401 17.599 123.812 18.1518 124.92 19.2572C126.043 20.3481 126.604 21.6863 126.604 23.2718C126.604 24.8572 126.043 26.2027 124.92 27.3081C123.812 28.399 122.401 28.9445 120.684 28.9445ZM120.615 27.5263C121.878 27.5263 122.907 27.119 123.703 26.3045C124.514 25.4754 124.92 24.4645 124.92 23.2718C124.92 22.079 124.514 21.0754 123.703 20.2609C122.907 19.4318 121.878 19.0172 120.615 19.0172C119.71 19.0172 118.914 19.199 118.228 19.5627C117.542 19.9263 117.004 20.4063 116.614 21.0027V25.5409C117.004 26.1372 117.542 26.6172 118.228 26.9809C118.914 27.3445 119.71 27.5263 120.615 27.5263Z" fill="white"/>
<path d="M135.357 28.9445C133.657 28.9445 132.3 28.4281 131.287 27.3954V28.7263H129.648V12.7991H131.287V19.1481C132.3 18.1154 133.657 17.599 135.357 17.599C137.073 17.599 138.485 18.1518 139.592 19.2572C140.715 20.3481 141.277 21.6863 141.277 23.2718C141.277 24.8572 140.715 26.2027 139.592 27.3081C138.485 28.399 137.073 28.9445 135.357 28.9445ZM135.287 27.5263C136.551 27.5263 137.58 27.119 138.376 26.3045C139.187 25.4754 139.592 24.4645 139.592 23.2718C139.592 22.079 139.187 21.0754 138.376 20.2609C137.58 19.4318 136.551 19.0172 135.287 19.0172C134.383 19.0172 133.587 19.199 132.901 19.5627C132.214 19.9263 131.677 20.4063 131.287 21.0027V25.5409C131.677 26.1372 132.214 26.6172 132.901 26.9809C133.587 27.3445 134.383 27.5263 135.287 27.5263Z" fill="white"/>
<path d="M145.154 14.9812C144.795 14.9812 144.491 14.8721 144.241 14.6539C144.007 14.4212 143.891 14.1448 143.891 13.8248C143.891 13.5048 144.007 13.2357 144.241 13.0175C144.491 12.7848 144.795 12.6685 145.154 12.6685C145.497 12.6685 145.785 12.7848 146.019 13.0175C146.253 13.2357 146.371 13.5048 146.371 13.8248C146.371 14.1448 146.253 14.4212 146.019 14.6539C145.785 14.8721 145.497 14.9812 145.154 14.9812ZM144.312 28.7266V17.8175H145.949V28.7266H144.312Z" fill="white"/>
<path d="M154.637 28.8354C153.67 28.8354 152.859 28.5663 152.203 28.0281C151.565 27.49 151.245 26.7118 151.245 25.6936V19.2572H148.273V17.8172H151.245V14.7845H152.882V17.8172H156.532V19.2572H152.882V25.5627C152.882 26.2172 153.054 26.6972 153.397 27.0027C153.756 27.3081 154.215 27.4609 154.777 27.4609C155.401 27.4609 155.978 27.3227 156.509 27.0463L157 28.3554C156.345 28.6754 155.557 28.8354 154.637 28.8354Z" fill="white"/>
<path d="M9.2457 26.9527C10.9302 28.5091 12.9579 29.2873 15.3287 29.2873C17.0288 29.2873 18.5651 28.9018 19.9377 28.1309C21.3103 27.36 22.3631 26.3345 23.0961 25.0545L19.8207 23.3964C18.8225 25.0836 17.3251 25.9273 15.3287 25.9273C13.9873 25.9273 12.8409 25.4691 11.8894 24.5527C10.9536 23.6364 10.4857 22.5455 10.4857 21.28C10.4857 20.0145 10.9536 18.9236 11.8894 18.0073C12.8409 17.0909 13.9873 16.6327 15.3287 16.6327C17.3251 16.6327 18.8225 17.4764 19.8207 19.1636L23.0961 17.5055C22.3631 16.2255 21.3103 15.2 19.9377 14.4291C18.5651 13.6582 17.0288 13.2727 15.3287 13.2727C12.9579 13.2727 10.9302 14.0582 9.2457 15.6291C7.57679 17.1855 6.74233 19.0691 6.74233 21.28C6.74233 23.4909 7.57679 25.3818 9.2457 26.9527Z" fill="white"/>
<path d="M34.5786 29.2873C36.9494 29.2873 38.9692 28.5018 40.6381 26.9309C42.3227 25.36 43.1649 23.4764 43.1649 21.28C43.1649 19.0836 42.3227 17.2 40.6381 15.6291C38.9692 14.0582 36.9494 13.2727 34.5786 13.2727C32.2078 13.2727 30.1801 14.0582 28.4956 15.6291C26.8267 17.1855 25.9923 19.0691 25.9923 21.28C25.9923 23.4909 26.8267 25.3818 28.4956 26.9527C30.1801 28.5091 32.2078 29.2873 34.5786 29.2873Z" fill="white"/>
<path d="M51.1089 13.5345H47.389V29.0255H51.1089V13.5345Z" fill="white"/>
<path d="M68.081 29.0255H71.2863V13.5345H67.5429V23.1127L59.4713 13.5345H56.266V29.0255H59.986V19.4473L68.081 29.0255Z" fill="white"/>
<path fill-rule="evenodd" clip-rule="evenodd" d="M7.70552 6C3.44988 6 0 9.25611 0 13.2727V28.7273C0 32.7439 3.44988 36 7.70552 36H71.2761C75.5317 36 78.9816 32.7439 78.9816 28.7273V13.2727C78.9816 9.25611 75.5317 6 71.2761 6H7.70552ZM9.2457 26.9527C10.9302 28.5091 12.9579 29.2873 15.3287 29.2873C17.0288 29.2873 18.5651 28.9018 19.9377 28.1309C21.3103 27.36 22.3631 26.3345 23.0961 25.0545L19.8207 23.3964C18.8225 25.0836 17.3251 25.9273 15.3287 25.9273C13.9873 25.9273 12.8409 25.4691 11.8894 24.5527C10.9536 23.6364 10.4857 22.5455 10.4857 21.28C10.4857 20.0145 10.9536 18.9236 11.8894 18.0073C12.8409 17.0909 13.9873 16.6327 15.3287 16.6327C17.3251 16.6327 18.8225 17.4764 19.8207 19.1636L23.0961 17.5055C22.3631 16.2255 21.3103 15.2 19.9377 14.4291C18.5651 13.6582 17.0288 13.2727 15.3287 13.2727C12.9579 13.2727 10.9302 14.0582 9.2457 15.6291C7.57679 17.1855 6.74233 19.0691 6.74233 21.28C6.74233 23.4909 7.57679 25.3818 9.2457 26.9527ZM34.5786 29.2873C36.9494 29.2873 38.9692 28.5018 40.6381 26.9309C42.3227 25.36 43.1649 23.4764 43.1649 21.28C43.1649 19.0836 42.3227 17.2 40.6381 15.6291C38.9692 14.0582 36.9494 13.2727 34.5786 13.2727C32.2078 13.2727 30.1801 14.0582 28.4956 15.6291C26.8267 17.1855 25.9923 19.0691 25.9923 21.28C25.9923 23.4909 26.8267 25.3818 28.4956 26.9527C30.1801 28.5091 32.2078 29.2873 34.5786 29.2873ZM51.1089 13.5345H47.389V29.0255H51.1089V13.5345ZM68.081 29.0255H71.2863V13.5345H67.5429V23.1127L59.4713 13.5345H56.266V29.0255H59.986V19.4473L68.081 29.0255Z" fill="#1168F1"/>
<path d="M31.1381 24.5526C32.0896 25.4689 33.236 25.9271 34.5774 25.9271C35.9187 25.9271 37.0573 25.4689 37.9932 24.5526C38.929 23.6362 39.3969 22.5453 39.3969 21.2798C39.3969 20.0144 38.929 18.9235 37.9932 18.0071C37.0573 17.0908 35.9187 16.6326 34.5774 16.6326C33.236 16.6326 32.0896 17.0908 31.1381 18.0071C30.2023 18.9235 29.7344 20.0144 29.7344 21.2798C29.7344 22.5453 30.2023 23.6362 31.1381 24.5526Z" fill="#1168F1"/>
</g>
<defs>
<clipPath id="clip0_4149_15353">
<rect width="157" height="42" fill="white"/>
</clipPath>
</defs>
</svg>
