<svg width="112" height="42" viewBox="0 0 112 42" fill="none" xmlns="http://www.w3.org/2000/svg">
<g clip-path="url(#clip0_4149_15966)">
<path fill-rule="evenodd" clip-rule="evenodd" d="M45.6291 19.1905C45.3958 17.9861 44.7374 16.899 43.7679 16.1172C42.7984 15.3355 41.5787 14.9083 40.3198 14.9096C39.054 14.8865 37.8215 15.3056 36.8455 16.0909C35.8696 16.8762 35.2148 17.9757 34.9996 19.1905H45.6291ZM34.9666 22.0052C35.246 23.2813 35.9631 24.4268 36.9999 25.2535C38.0367 26.0801 39.3316 26.5387 40.6716 26.5537C42.7385 26.5092 44.7077 25.6886 46.1677 24.2634L48.3662 26.8427C46.3528 28.8437 43.614 29.9964 40.7376 30.0534C39.4843 30.052 38.2438 29.8089 37.0877 29.3381C35.9315 28.8673 34.8826 28.1782 34.0016 27.3104C33.1206 26.4427 32.4249 25.4136 31.9547 24.2826C31.4845 23.1515 31.2492 21.941 31.2622 20.7209C31.2503 19.5514 31.4792 18.3913 31.9354 17.3094C32.3916 16.2274 33.0659 15.2453 33.9184 14.4213C34.771 13.5972 35.7844 12.9479 36.899 12.5115C38.0136 12.0752 39.2067 11.8607 40.4078 11.8808C45.6511 11.8808 49.5973 15.937 49.5973 22.0908L34.9666 22.0052Z" fill="white"/>
<path fill-rule="evenodd" clip-rule="evenodd" d="M66.8765 20.8823C66.8765 19.79 66.5439 18.7223 65.9206 17.8142C65.2974 16.906 64.4115 16.1982 63.3751 15.7802C62.3387 15.3623 61.1982 15.2529 60.098 15.466C58.9977 15.6791 57.987 16.205 57.1938 16.9773C56.4006 17.7497 55.8604 18.7337 55.6415 19.8049C55.4226 20.8761 55.535 21.9865 55.9643 22.9956C56.3936 24.0047 57.1206 24.8672 58.0533 25.474C58.9861 26.0808 60.0827 26.4047 61.2045 26.4047C62.7022 26.4019 64.1383 25.8236 65.2004 24.7955C66.2626 23.7674 66.8649 22.3726 66.8765 20.9144M66.8765 13.9472V5H70.46V29.6154H67.3931V27.4749C65.7319 29.0645 63.5007 29.9627 61.1715 29.9793C58.6935 29.9793 56.317 29.0208 54.5647 27.3148C52.8125 25.6088 51.8281 23.2949 51.8281 20.8823C51.8281 18.4696 52.8125 16.1557 54.5647 14.4497C56.317 12.7437 58.6935 11.7853 61.1715 11.7853C63.2687 11.7928 65.289 12.5552 66.8435 13.9258" fill="white"/>
<path fill-rule="evenodd" clip-rule="evenodd" d="M87.7164 20.8822C87.7207 19.784 87.3899 18.7092 86.7659 17.7942C86.1419 16.8793 85.2529 16.1654 84.2115 15.7432C83.1702 15.3209 82.0235 15.2093 80.917 15.4225C79.8104 15.6358 78.7938 16.1642 77.9962 16.9408C77.1985 17.7174 76.6558 18.7072 76.4368 19.7846C76.2178 20.8619 76.3324 21.9784 76.7661 22.9923C77.1998 24.0061 77.933 24.8717 78.8727 25.4793C79.8124 26.0868 80.9163 26.4089 82.0444 26.4046C83.5451 26.3934 84.9811 25.808 86.0424 24.7748C87.1036 23.7416 87.7049 22.3434 87.7164 20.8822ZM91.2998 27.6782C91.2998 34.3993 87.0678 37 82.9787 37C81.1505 37.0123 79.3611 36.4862 77.8453 35.4909L79.2633 32.5692C80.3103 33.2233 81.5259 33.5758 82.7698 33.5859C85.7707 33.5859 87.8263 31.5846 87.8263 27.7103C86.2526 29.1543 84.1738 29.9616 82.0114 29.9685C79.5334 29.9685 77.1568 29.0101 75.4046 27.3041C73.6524 25.5981 72.668 23.2842 72.668 20.8715C72.668 18.4589 73.6524 16.145 75.4046 14.439C77.1568 12.733 79.5334 11.7745 82.0114 11.7745C83.1542 11.7733 84.2858 11.9931 85.3406 12.4212C86.3955 12.8493 87.3525 13.4771 88.156 14.2682V12.1277H91.2998V27.6782Z" fill="white"/>
<path fill-rule="evenodd" clip-rule="evenodd" d="M108.088 19.1905C107.855 17.9861 107.196 16.899 106.227 16.1172C105.257 15.3355 104.037 14.9083 102.779 14.9096C101.513 14.8865 100.28 15.3056 99.3043 16.0909C98.3284 16.8762 97.6735 17.9757 97.4584 19.1905H108.088ZM97.4254 22.0052C97.7064 23.2884 98.43 24.4394 99.4758 25.2668C100.522 26.0942 101.827 26.5484 103.174 26.5537C105.214 26.4901 107.153 25.671 108.593 24.2634L110.792 26.8427C108.779 28.8437 106.04 29.9964 103.163 30.0534C101.91 30.052 100.67 29.8089 99.5135 29.3381C98.3573 28.8673 97.3084 28.1782 96.4274 27.3104C95.5464 26.4427 94.8507 25.4136 94.3805 24.2826C93.9103 23.1515 93.6749 21.941 93.688 20.7209C93.6761 19.5514 93.905 18.3913 94.3612 17.3094C94.8174 16.2274 95.4917 15.2453 96.3442 14.4213C97.1967 13.5972 98.2102 12.9479 99.3248 12.5115C100.439 12.0752 101.632 11.8607 102.834 11.8808C108.077 11.8808 112.023 15.937 112.023 22.0908L97.4254 22.0052Z" fill="white"/>
<path fill-rule="evenodd" clip-rule="evenodd" d="M27.0739 8.60718L19.0496 30.0868H0.472656L4.63872 18.9135H11.9596L15.8068 8.60718H27.0739Z" fill="#66EDA8"/>
<path fill-rule="evenodd" clip-rule="evenodd" d="M14.136 5L9.94798 16.1946H0L4.19904 5H14.136Z" fill="#66EDA8"/>
</g>
<defs>
<clipPath id="clip0_4149_15966">
<rect width="112" height="42" fill="white"/>
</clipPath>
</defs>
</svg>
