<svg width="164" height="42" viewBox="0 0 164 42" fill="none" xmlns="http://www.w3.org/2000/svg">
<g clip-path="url(#clip0_4149_15333)">
<path d="M33.4733 13.4627L19.1328 4V9.29066L28.3324 15.3069L27.2502 18.7534H19.1328V23.137H27.2502L28.3324 26.5836L19.1328 32.5998V37.8906L33.4733 28.458L31.1283 20.9604L33.4733 13.4627Z" fill="url(#paint0_linear_4149_15333)"/>
<path d="M6.65954 23.137H14.7467V18.7534H6.62948L5.57724 15.3069L14.7467 9.29066V4L0.40625 13.4627L2.75124 20.9604L0.40625 28.458L14.7768 37.8906V32.5998L5.57724 26.5836L6.65954 23.137Z" fill="url(#paint1_linear_4149_15333)"/>
<mask id="mask0_4149_15333" style="mask-type:alpha" maskUnits="userSpaceOnUse" x="0" y="4" width="34" height="34">
<path d="M33.4772 13.4627L19.1367 4V9.29066L28.3363 15.3069L27.2541 18.7534H19.1367V23.137H27.2541L28.3363 26.5836L19.1367 32.5998V37.8906L33.4772 28.458L31.1323 20.9604L33.4772 13.4627Z" fill="url(#paint2_linear_4149_15333)"/>
<path d="M6.65953 23.137H14.7467V18.7534H6.62947L5.57725 15.3069L14.7467 9.29066V4L0.40625 13.4627L2.75123 20.9604L0.40625 28.458L14.7768 37.8906V32.5998L5.57725 26.5836L6.65953 23.137Z" fill="url(#paint3_linear_4149_15333)"/>
</mask>
<g mask="url(#mask0_4149_15333)">
<path d="M33.2552 4H0.421875V37.8906H33.2552V4Z" fill="url(#paint4_linear_4149_15333)"/>
</g>
<path d="M62.0091 13.3206V16.2834H48.4415V19.3152H59.9694V22.278H48.4415V25.6084H62.0091V28.5713H44.9609V13.3206H62.0091Z" fill="white"/>
<path d="M63.9297 28.5713L71.7246 20.854L64.1506 13.3206H68.9423L74.2863 18.764L79.4093 13.3206H83.8919L76.3399 20.854L84.1348 28.5713H79.2988L74.2863 22.9671L68.567 28.5713H63.9297Z" fill="white"/>
<path d="M93.4824 13.3206C99.7978 13.3206 103.596 16.5033 103.596 20.9459C103.596 25.3885 99.7978 28.5713 93.4824 28.5713C87.1669 28.5713 83.3906 25.3885 83.3906 20.9459C83.3906 16.5033 87.1669 13.3206 93.4824 13.3206ZM93.4824 16.1718C89.6844 16.1718 86.8848 18.0947 86.8848 20.9459C86.8848 23.7971 89.6844 25.7201 93.4824 25.7201C97.3021 25.7201 100.102 23.7971 100.102 20.9459C100.102 18.0947 97.3021 16.1718 93.4824 16.1718Z" fill="white"/>
<path d="M116.185 13.3206C121.243 13.3206 124.291 16.1456 124.291 20.923C124.291 25.7462 121.265 28.5713 116.229 28.5713H105.98V13.3206H116.185ZM120.713 20.923C120.713 17.9371 118.946 16.2834 115.743 16.2834H109.448V25.6084H115.743C118.946 25.6084 120.713 23.9318 120.713 20.923Z" fill="white"/>
<path d="M135.764 28.5713C130.438 28.5713 126.398 26.1383 126.398 21.6555V13.3206H129.883V21.3176C129.883 24.0884 132.746 25.3725 135.764 25.3725C138.805 25.3725 141.668 24.1109 141.668 21.3176V13.3206H145.13V21.6555C145.13 26.1383 141.113 28.5713 135.764 28.5713Z" fill="white"/>
<path d="M154.88 28.5713C152.018 28.5713 148.933 28.0409 146.742 27.0463L147.882 24.217C149.85 25.1233 152.555 25.698 154.991 25.698C157.786 25.698 160.401 25.1012 160.401 24.0402C160.401 23.2667 159.574 22.9351 157.853 22.6698L152.979 22.1394C149.224 21.631 147.39 20.327 147.39 18.0284C147.39 15.0667 150.498 13.3206 155.058 13.3206C157.808 13.3206 161.586 13.8289 163.531 14.713L162.391 17.4095C160.468 16.6138 157.205 16.216 154.902 16.216C152.532 16.216 150.967 16.7686 150.967 17.7853C150.967 18.4925 151.75 18.8462 153.762 19.1335L158.501 19.664C162.123 20.1723 164.001 21.41 164.001 23.8192C164.001 26.8693 160.021 28.5713 154.88 28.5713Z" fill="white"/>
</g>
<defs>
<linearGradient id="paint0_linear_4149_15333" x1="28.8342" y1="40.2206" x2="19.1119" y2="0.30649" gradientUnits="userSpaceOnUse">
<stop stop-color="#0B46F9"/>
<stop offset="1" stop-color="#BBFBE0"/>
</linearGradient>
<linearGradient id="paint1_linear_4149_15333" x1="28.8375" y1="40.2206" x2="19.1152" y2="0.306489" gradientUnits="userSpaceOnUse">
<stop stop-color="#0B46F9"/>
<stop offset="1" stop-color="#BBFBE0"/>
</linearGradient>
<linearGradient id="paint2_linear_4149_15333" x1="28.8381" y1="40.2206" x2="19.1158" y2="0.30649" gradientUnits="userSpaceOnUse">
<stop stop-color="#0B46F9"/>
<stop offset="1" stop-color="#BBFBE0"/>
</linearGradient>
<linearGradient id="paint3_linear_4149_15333" x1="28.8374" y1="40.2206" x2="19.1151" y2="0.306489" gradientUnits="userSpaceOnUse">
<stop stop-color="#0B46F9"/>
<stop offset="1" stop-color="#BBFBE0"/>
</linearGradient>
<linearGradient id="paint4_linear_4149_15333" x1="2.52657" y1="11.6254" x2="19.2294" y2="24.0205" gradientUnits="userSpaceOnUse">
<stop offset="0.119792" stop-color="#8952FF" stop-opacity="0.87"/>
<stop offset="1" stop-color="#DABDFF" stop-opacity="0"/>
</linearGradient>
<clipPath id="clip0_4149_15333">
<rect width="164" height="42" fill="white"/>
</clipPath>
</defs>
</svg>
