<svg width="203" height="42" viewBox="0 0 203 42" fill="none" xmlns="http://www.w3.org/2000/svg">
<path d="M18.0932 19.038C19.4684 20.6721 15.4411 23.833 16.3458 22.528H7.76737C6.83937 21.4463 6.20137 20.2646 5.89453 19.038H18.0932Z" fill="white"/>
<path d="M15.6057 28.4583C14.3868 29.3244 13.0689 30.0738 11.6739 30.6942L10.991 31L10.3044 30.695C3.85045 27.81 0 22.84 0 17.395V11H3.93652V17.3942C3.93652 17.8025 3.96645 18.2092 4.02913 18.6133C4.52494 21.9217 7.03203 24.9742 10.976 27.03C10.98 27.0331 10.9844 27.0356 10.9891 27.0375L10.9994 27.0317L11.0163 27.0225C12.442 27.7329 13.9946 28.218 15.6057 28.4583Z" fill="white"/>
<path d="M21.8638 19.0388C21.6814 20.3025 21.2922 21.5356 20.7085 22.6988C19.6299 24.8588 17.8955 26.8246 15.6111 28.4605C14.0005 28.22 12.4486 27.734 11.0234 27.0238C11.538 26.753 12.0375 26.4596 12.5193 26.1446C12.567 26.1171 12.6128 26.0863 12.6577 26.0546C15.3243 24.3442 17.2453 21.8654 18.0957 19.038L21.8638 19.0388Z" fill="white"/>
<path d="M21.983 11H3.9375V14.505H21.983V11Z" fill="white"/>
<path d="M21.9829 14.5066V17.3941C21.9829 17.5133 21.9782 17.6333 21.9735 17.7524H18.0352C18.0398 17.6333 18.0417 17.5133 18.0417 17.3941V14.5066H21.9829Z" fill="white"/>
<path d="M62.964 20.4C62.964 21.5875 62.8144 22.5583 62.5131 23.31C62.1072 24.3901 61.3078 25.3184 60.2418 25.9475C59.162 26.5529 57.9053 26.8603 56.6299 26.8308C54.366 26.8308 52.6307 26.1458 51.4211 24.7741C50.4973 23.7099 50.0128 22.3949 50.0487 21.05C50.0487 19.4516 50.5848 18.1091 51.6559 17.0208C52.872 15.785 54.569 15.1666 56.7487 15.1666C58.2043 15.1666 59.4373 15.5 60.4494 16.165C61.1716 16.635 61.7881 17.3316 62.2998 18.2541L59.2707 19.3725C59.0687 18.9333 58.76 18.5391 58.3652 18.2208C57.8682 17.8575 57.2418 17.6642 56.599 17.6758C55.2051 17.6758 54.2322 18.315 53.684 19.5933C53.4791 20.0587 53.3744 20.5542 53.3753 21.0541C53.3586 21.5335 53.4485 22.011 53.6399 22.4592C53.8313 22.9074 54.1203 23.3175 54.4904 23.6658C55.0405 24.1858 55.7748 24.445 56.6916 24.4433C57.5055 24.4433 58.151 24.2325 58.6281 23.8108C58.977 23.4691 59.1931 23.0375 59.2455 22.5783H56.6084V20.3991L62.964 20.4ZM79.4463 21.8466C79.4538 22.4133 79.3902 22.9783 79.2564 23.5325C79.0491 24.2991 78.5867 24.9921 77.9299 25.5208C76.9299 26.3625 75.5931 26.7841 73.9195 26.7841C72.2169 26.7841 70.8876 26.355 69.9306 25.4975C69.414 25.029 69.0544 24.4414 68.8922 23.8008C68.7422 23.1611 68.6753 22.5082 68.6929 21.855V15.5166H71.8979V21.4541C71.8979 21.9325 71.9073 22.2875 71.926 22.5216C71.984 23.2675 72.3628 23.7875 73.0626 24.0816C73.3619 24.2066 73.6894 24.2691 74.0205 24.265C74.8016 24.265 75.391 24.0225 75.7886 23.535C76.0842 23.1766 76.2311 22.4833 76.2311 21.4541V15.5175H79.437L79.4463 21.8466ZM96.3253 26.4941H92.9023L92.109 24.58H87.6851L86.8366 26.4941H83.4521L88.1856 15.5175H91.6853L96.3253 26.4941ZM91.2428 22.41L89.9172 18.91L88.571 22.41H91.2428ZM111.689 26.4941H107.713L104.652 22.2775V26.4941H101.439V15.5175H106.424C107.88 15.5175 108.957 15.9058 109.655 16.6825C110.22 17.3085 110.521 18.0916 110.503 18.895C110.503 19.8658 110.179 20.64 109.529 21.2191C109.052 21.6175 108.457 21.8858 107.813 21.9916L111.689 26.4941ZM107.182 19.0525C107.187 18.867 107.146 18.6829 107.064 18.5126C106.981 18.3423 106.858 18.1899 106.704 18.0658C106.401 17.8133 105.915 17.6883 105.244 17.6891H104.646V20.4225H105.244C105.922 20.4225 106.407 20.2966 106.704 20.045C106.857 19.9191 106.98 19.7655 107.062 19.5944C107.144 19.4233 107.185 19.2386 107.181 19.0525H107.182ZM127.537 21.0016C127.518 22.1375 127.114 23.2417 126.377 24.1689C125.641 25.0961 124.606 25.8028 123.409 26.1958C122.783 26.3916 122.123 26.4919 121.459 26.4925H116.726V15.5166H121.459C122.604 15.5126 123.724 15.812 124.678 16.3766C125.635 16.9244 126.405 17.6954 126.904 18.6058C127.318 19.3504 127.535 20.1707 127.537 21.0016ZM124.214 21.0016C124.23 20.288 123.978 19.59 123.498 19.0183C122.867 18.2708 121.921 17.8975 120.658 17.8983H119.926V24.115H120.658C121.921 24.115 122.867 23.7408 123.498 22.9933C123.976 22.4183 124.227 21.7175 124.21 21.0016H124.214ZM143.504 26.4941H140.083L139.287 24.58H134.863L134.015 26.4941H130.629L135.363 15.5175H138.864L143.504 26.4941ZM138.42 22.41L137.096 18.91L135.759 22.41H138.42ZM158.867 26.4941H154.88L151.82 22.2775V26.4941H148.619V15.5175H153.602C155.058 15.5175 156.135 15.9058 156.833 16.6825C157.398 17.3091 157.699 18.0916 157.682 18.895C157.682 19.8658 157.356 20.64 156.706 21.2191C156.23 21.6179 155.634 21.8861 154.991 21.9916L158.867 26.4941ZM154.363 19.0525C154.366 18.867 154.325 18.6831 154.242 18.5129C154.159 18.3428 154.036 18.1904 153.882 18.0658C153.579 17.8141 153.094 17.6891 152.424 17.6891H151.826V20.4225H152.419C153.095 20.4225 153.581 20.2975 153.876 20.045C154.031 19.9191 154.154 19.7657 154.237 19.5947C154.321 19.4237 154.363 19.2389 154.361 19.0525H154.363ZM167.115 26.4941H163.908V15.5175H167.113L167.115 26.4941ZM185.112 26.4941H181.689L180.894 24.58H176.471L175.623 26.4941H172.236L176.97 15.5175H180.462L185.112 26.4941ZM180.03 22.41L178.705 18.91L177.359 22.41H180.03ZM202.531 26.4941H199.326L193.43 19.7725V26.4941H190.225V15.5175H193.43L199.326 22.2325V15.5175H202.531V26.4941Z" fill="white"/>
</svg>
