<svg width="134" height="42" viewBox="0 0 134 42" fill="none" xmlns="http://www.w3.org/2000/svg">
<path fill-rule="evenodd" clip-rule="evenodd" d="M39.1596 4.50654C39.2021 4.55358 39.2277 4.61215 39.2328 4.67376C39.259 4.97587 41.59 34.9459 19.81 41.926C19.7445 41.947 19.6736 41.947 19.6081 41.926C-2.17118 34.9459 0.159778 4.97587 0.185439 4.67376C0.190672 4.61234 0.21629 4.55401 0.258636 4.50701C0.300982 4.46001 0.357931 4.42676 0.42145 4.41189L19.6353 0.00806338C19.6839 -0.00268779 19.7342 -0.00268779 19.7829 0.00806338L38.9959 4.41189C39.0598 4.42635 39.1169 4.45949 39.1596 4.50654ZM35.6233 7.70651C35.6579 7.74461 35.6791 7.79199 35.6835 7.84198H35.6857C35.7072 8.0884 37.6138 32.5563 19.7918 38.2538C19.7395 38.2726 19.6817 38.2726 19.6294 38.2538C1.80662 32.5563 3.71402 8.0884 3.73541 7.84198C3.73955 7.79199 3.76042 7.74447 3.79501 7.70636C3.8296 7.66827 3.87615 7.64145 3.92794 7.62979L19.6478 4.03235C19.6876 4.02296 19.7292 4.02296 19.7691 4.03235L35.4904 7.62979C35.5421 7.64159 35.5885 7.66846 35.6233 7.70651Z" fill="#798CE5"/>
<path d="M19.4917 9.40048L9.00982 11.7974C8.97527 11.8057 8.94435 11.824 8.9213 11.8496C8.89831 11.8752 8.88436 11.907 8.88147 11.9405C8.86794 12.1049 7.59658 28.4169 19.4766 32.2159C19.5123 32.2266 19.5509 32.2266 19.5865 32.2159C31.4666 28.4163 30.196 12.1049 30.1817 11.9398C30.1789 11.9062 30.1651 11.8743 30.1419 11.8488C30.1187 11.8232 30.0874 11.8052 30.0526 11.7974L19.5714 9.39982C19.5454 9.39326 19.5178 9.39326 19.4917 9.39982" fill="#798CE5"/>
<path d="M54.8165 23.1479V20.4628H59.4348V28.36C57.2111 28.7031 55.4074 28.875 54.0234 28.875C51.551 28.875 49.8482 28.2408 48.9152 26.9732C47.9978 25.7056 47.5391 23.6916 47.5391 20.9325C47.5391 18.1738 48.0211 16.1831 48.9852 14.9592C49.9493 13.7368 51.5898 13.125 53.9068 13.125C55.3529 13.125 56.9157 13.282 58.5952 13.5947L59.4348 13.7517L59.3415 16.1453C57.4755 15.9517 55.9439 15.8542 54.7465 15.8542C53.5647 15.8542 52.7328 15.9884 52.2507 16.2567C51.7687 16.5254 51.411 17.025 51.1778 17.7556C50.9601 18.472 50.8512 19.7101 50.8512 21.4696C50.8512 23.2152 51.0767 24.4376 51.5276 25.1387C51.9786 25.8397 52.9116 26.1906 54.3266 26.1906L56.2627 26.1006V23.1479H54.8165Z" fill="#798CE5"/>
<path d="M65.5586 23.5282C65.5586 25.3033 66.4994 26.1912 68.381 26.1912C70.2626 26.1912 71.2033 25.3033 71.2033 23.5282V13.3939H74.4221V23.4613C74.4221 25.3253 73.9168 26.6976 72.906 27.5781C71.9108 28.4428 70.4024 28.8756 68.381 28.8756C66.3594 28.8756 64.8434 28.4428 63.8326 27.5781C62.8374 26.6976 62.3398 25.3253 62.3398 23.4613V13.3939H65.5586V23.5282Z" fill="#798CE5"/>
<path d="M76.3008 28.6069L79.8694 13.3939H85.9806L89.5494 28.6069H86.3305L85.7008 25.8556H80.1494L79.5196 28.6069H76.3008ZM82.3652 15.9449L80.7558 23.1705H85.0942L83.4849 15.9449H82.3652Z" fill="#798CE5"/>
<path d="M94.8751 23.5061V28.6069H91.6562V13.3939H97.8141C101.546 13.3939 103.412 15.0644 103.412 18.4054C103.412 20.3894 102.635 21.851 101.079 22.7909L103.342 28.6069H99.82L97.9775 23.5061H94.8751ZM97.8606 20.8662C98.6225 20.8662 99.1901 20.6428 99.5637 20.1951C99.9368 19.7481 100.123 19.1584 100.123 18.4274C100.123 17.6968 99.921 17.1157 99.5168 16.6829C99.1281 16.2506 98.5605 16.0338 97.8141 16.0338H94.8751V20.8662H97.8606Z" fill="#798CE5"/>
<path d="M111.462 28.6069H106.121V13.3939H111.462C112.831 13.3939 113.958 13.5359 114.844 13.8196C115.731 14.0872 116.415 14.5427 116.897 15.1844C117.395 15.8103 117.737 16.5555 117.923 17.4214C118.11 18.2712 118.203 19.3826 118.203 20.7549C118.203 22.1264 118.118 23.2673 117.947 24.1773C117.776 25.0723 117.449 25.8777 116.967 26.593C116.501 27.294 115.817 27.809 114.914 28.1371C114.013 28.4507 112.862 28.6069 111.462 28.6069ZM114.844 22.5663C114.876 22.0898 114.891 21.4328 114.891 20.5975C114.891 19.7481 114.86 19.0691 114.798 18.562C114.736 18.0552 114.588 17.5922 114.355 17.1751C114.121 16.7569 113.772 16.474 113.305 16.3246C112.854 16.1605 112.24 16.079 111.462 16.079H109.34V25.9229H111.462C112.629 25.9229 113.476 25.6389 114.005 25.0723C114.456 24.6101 114.736 23.7748 114.844 22.5663Z" fill="#798CE5"/>
<path d="M119.434 28.6069L123.002 13.3939H129.113L132.682 28.6069H129.463L128.833 25.8556H123.282L122.652 28.6069H119.434ZM125.498 15.9449L123.888 23.1705H128.227L126.618 15.9449H125.498Z" fill="#798CE5"/>
</svg>
