<svg width="114" height="42" viewBox="0 0 114 42" fill="none" xmlns="http://www.w3.org/2000/svg">
<path fill-rule="evenodd" clip-rule="evenodd" d="M114 17.5841C114 5.3838 113.977 4.98833 113.219 4.60072C112.79 4.38069 112.072 3.88476 111.627 3.49828C110.83 2.80893 110.807 2.81155 110.338 3.65235C110.075 4.12316 109.385 4.81477 108.805 5.18887L107.749 5.86923L108.051 11.1775C108.216 14.0973 108.266 19.3535 108.16 22.8584L107.967 29.2309L109.508 30.4841L111.05 31.7372L112.089 30.9526C112.661 30.5212 113.325 30.168 113.564 30.168C113.876 30.168 114 26.5896 114 17.5841ZM7.19496 14.4747C6.28856 14.2307 6.26785 14.1311 6.29287 10.1077L6.31787 5.98994L4.67774 4.61947L3.03762 3.24863L2.02261 4.05719C1.46431 4.50177 0.745829 5.03406 0.425455 5.24023C-0.0773603 5.56411 -0.108616 6.63132 0.196123 13.1122C0.389905 17.2356 0.44421 22.7617 0.316457 25.3928L0.0843848 30.1759L1.17285 30.5728C1.77138 30.7914 2.52504 31.1955 2.84775 31.4714C3.34783 31.8984 3.67093 31.7702 5.03367 30.6017L6.63237 29.2309L6.34443 25.2949C6.1862 23.1302 6.13619 21.2323 6.23347 21.0778C6.33115 20.923 7.19144 20.7967 8.14591 20.7967H9.88097L9.8841 24.8263L9.88721 28.8561L11.4953 29.6939L13.1034 30.5313L14.2571 29.6001C14.8916 29.0877 15.5288 28.6686 15.6737 28.6686C15.8184 28.6686 15.9367 23.7768 15.9367 17.7979C15.9367 11.8189 15.8109 6.92708 15.6573 6.92708C15.5034 6.92708 14.7704 6.41539 14.0281 5.78977C13.1284 5.03218 12.5866 4.7949 12.404 5.0783C12.2533 5.31258 11.5399 5.74066 10.8194 6.02968L9.50864 6.55484L9.75438 10.6771L10.0005 14.799L9.06168 14.7615C8.5452 14.7409 7.7052 14.612 7.19496 14.4747ZM103.407 6.17737C103.167 6.17737 102.524 5.83999 101.977 5.42766C101.431 5.01532 100.924 4.69144 100.85 4.70831C100.777 4.7248 99.97 5.27284 99.0574 5.92658L97.3986 7.1145L97.6392 10.9568C97.7716 13.0702 97.7896 14.799 97.6791 14.799C97.1532 14.799 93.0982 9.21031 93.0982 8.48497C93.0982 7.92794 92.7478 7.53021 92.0246 7.26669C91.4339 7.05116 90.6681 6.62944 90.3224 6.32919C89.771 5.85049 89.6308 5.85687 89.178 6.38016C88.8944 6.70815 88.1966 7.20746 87.6274 7.48973L86.5928 8.00328L86.6537 17.5785L86.7147 27.1538L88.1419 28.0831L89.5691 29.0123L91.1861 28.3178L92.8032 27.6232L92.7337 23.3663L92.6641 19.1099L94.2731 21.1715C96.9391 24.5873 97.5521 25.7186 97.4587 27.0489C97.4106 27.7338 97.5392 28.2938 97.7442 28.2938C97.9494 28.2938 98.66 28.732 99.3238 29.268L100.53 30.2418L102.107 29.4937L103.684 28.745L103.763 17.4613C103.82 9.36625 103.719 6.17737 103.407 6.17737ZM34.1386 8.61392L32.1195 8.32903C31.0088 8.17271 29.2866 7.65842 28.2927 7.18647C26.6381 6.40115 26.3881 6.37453 25.3351 6.87047C24.7027 7.16848 22.9792 7.49535 21.5048 7.59657C19.3783 7.74238 18.8696 7.89232 19.0411 8.32153C19.1602 8.61917 19.2576 13.126 19.2576 18.3365V27.8106L21.7541 28.034C23.127 28.1573 24.8351 28.4868 25.5496 28.7664C26.7292 29.2282 26.9944 29.198 28.4251 28.4381C29.2921 27.9773 30.7048 27.489 31.5643 27.3522C32.4238 27.2157 33.3908 27.0362 33.7131 26.9537C34.2163 26.8243 34.2878 25.5202 34.2191 17.7087L34.1386 8.61392ZM82.6144 8.37738L81.1321 7.65241C80.138 7.16605 79.729 6.94971 79.3654 7.01028C79.0749 7.05868 78.8135 7.28379 78.3062 7.68915C77.7991 8.09474 77.1748 8.42649 76.9193 8.42649C76.572 8.42649 76.4594 10.7517 76.4739 17.6145C76.493 26.4686 76.5223 26.8108 77.2752 27.0301C77.7049 27.1553 78.3484 27.5031 78.7048 27.8031C79.2727 28.281 79.4998 28.2753 80.541 27.7589C81.1947 27.4346 81.958 27.1692 82.237 27.1692C82.6417 27.1688 82.7315 25.2635 82.6797 17.7731L82.6144 8.37738ZM42.7553 9.00601C42.3513 8.88269 41.7067 8.44898 41.3227 8.04189C40.4717 7.14 40.3924 7.14074 39.2371 8.064C38.73 8.4696 38.06 8.80134 37.7485 8.80134C37.2774 8.80134 37.2341 9.25942 37.4899 11.519C37.6591 13.0136 37.7916 17.0201 37.7845 20.4218L37.7717 26.607L39.9424 26.6912C41.1362 26.7377 42.849 27.0425 43.7488 27.369C45.2107 27.8998 45.5046 27.9032 46.5184 27.4001C47.1424 27.0905 48.8196 26.6422 50.2452 26.4041L52.8379 25.9708L52.7499 21.041C52.7015 18.3294 52.8066 14.5505 52.984 12.6436C53.2235 10.0687 53.1887 9.1762 52.8487 9.1762C52.5976 9.1762 51.8955 8.83733 51.2892 8.42312L50.1871 7.67003L48.8035 8.51683L47.4205 9.36363L47.3983 14.4241C47.3725 20.261 47.029 21.359 45.2287 21.359C43.4328 21.359 42.9514 19.5173 43.2507 13.7948C43.4733 9.54506 43.439 9.21406 42.7553 9.00601ZM70.9265 9.54731C70.3357 9.54543 68.9117 9.12372 67.7623 8.61017C65.4927 7.59657 65.2087 7.55608 63.8992 8.06175C63.4181 8.24694 61.4843 8.51046 59.6015 8.6469L56.1779 8.89468L56.1275 11.9407C56.0998 13.616 56.0228 15.9142 55.9564 17.0482C55.89 18.1821 55.983 20.7547 56.1635 22.7646L56.4912 26.4195H58.9006C60.2262 26.4195 62.2445 26.6856 63.3862 27.011C65.4205 27.5906 65.506 27.583 67.7057 26.6361C68.9398 26.1047 70.3233 25.6697 70.78 25.6697C71.52 25.6697 71.6109 25.4561 71.6184 23.7018C71.6227 22.6192 71.8525 20.6999 72.1282 19.4363C72.4045 18.1727 72.5009 16.8232 72.3431 16.4375C72.1849 16.0518 72.0435 14.3447 72.0283 12.6436L72.0009 9.55105L70.9265 9.54731ZM24.8112 17.0114C24.8816 14.9726 25.1195 13.5609 25.4586 13.1691C26.2436 12.2631 27.3499 12.4123 28.111 13.5267C28.896 14.6757 29.0115 19.5776 28.2947 21.29C27.9384 22.1409 27.6456 22.3227 26.7873 22.2271C25.1672 22.0468 24.6815 20.7644 24.8112 17.0114ZM62.2336 17.1021C62.2336 14.4609 62.3769 13.3063 62.7219 13.1729C62.9907 13.0691 63.2279 12.9705 63.2498 12.9544C63.2713 12.9382 63.8284 13.105 64.4879 13.3259C65.7779 13.7573 66.9218 15.5514 66.9218 17.143C66.9218 17.6483 66.5206 18.6349 66.0303 19.3355C65.3255 20.3424 64.8344 20.6337 63.6861 20.7255L62.2336 20.842V17.1021ZM42.7709 32.3186C43.2503 31.5943 43.1554 31.3968 42.2106 31.1539C39.2844 30.4016 36.8386 31.3238 36.8386 33.1796C36.8386 34.3907 37.6489 35.0441 40.0618 35.7781C40.8679 36.0232 41.527 36.4607 41.527 36.7501C41.527 37.4924 39.8083 37.8169 38.3905 37.3427C37.406 37.0137 37.1524 37.0466 36.9594 37.529C36.4729 38.7455 39.5954 39.479 41.6879 38.6401C44.4986 37.5133 43.8203 35.1195 40.4299 34.2007C39.456 33.9368 38.5862 33.5118 38.4976 33.2561C38.2615 32.5764 39.9681 32.096 41.3081 32.4644C42.1129 32.6859 42.5569 32.6417 42.7709 32.3186ZM49.015 35.9827C48.8719 35.8482 48.3891 34.6959 47.9422 33.4218C47.3155 31.6356 46.9353 31.0778 46.2817 30.9852C45.8152 30.9197 45.4339 30.9954 45.4339 31.1535C45.4339 31.3121 45.9988 33.0949 46.6892 35.1157C47.8581 38.5374 48.0151 38.7897 48.9798 38.7897C49.8998 38.7897 50.0921 38.5498 50.7051 36.6342C51.0844 35.449 51.5282 34.3372 51.6915 34.1644C51.8553 33.9916 52.3741 34.9613 52.8453 36.3198C53.6165 38.543 53.806 38.7893 54.7448 38.7855C55.7173 38.7818 55.8626 38.5486 56.9104 35.3182C57.5281 33.4136 58.1188 31.63 58.2235 31.3548C58.3541 31.0115 58.1344 30.8938 57.5222 30.98C56.8163 31.0793 56.4623 31.5861 55.8184 33.4218C55.3715 34.6959 54.8968 35.8403 54.7639 35.9655C54.6307 36.0904 54.1033 35.0478 53.5919 33.6489C52.8941 31.7406 52.4628 31.0778 51.8647 30.9957C51.1926 30.9035 50.9277 31.3038 50.1714 33.5567C49.6783 35.0258 49.1579 36.1174 49.015 35.9827ZM67.5646 38.7331C68.3452 38.6086 68.2936 38.4149 66.5074 34.76C65.0052 31.6862 64.4664 30.9177 63.8128 30.9177C63.3267 30.9177 62.858 31.2592 62.6555 31.7612C62.4683 32.2249 61.6815 33.9331 60.9072 35.5566C60.1325 37.1801 59.4988 38.5719 59.4988 38.6491C59.4988 38.7264 59.918 38.7897 60.4298 38.7897C61.0326 38.7897 61.4331 38.525 61.5655 38.04C61.8703 36.921 65.4189 36.9496 66.1991 38.077C66.5363 38.5647 67.0563 38.8145 67.5646 38.7331ZM77.6006 33.9159C77.6006 33.0281 77.2966 32.4224 76.5372 31.7957C75.687 31.0939 75.0201 30.9177 73.2163 30.9177C71.9747 30.9177 70.8417 31.0302 70.6987 31.1677C70.5553 31.305 70.4381 33.0762 70.4381 35.1038C70.4381 38.7855 70.4393 38.7897 71.4148 38.7897C72.2396 38.7897 72.3916 38.6147 72.3916 37.6652C72.3916 36.5863 72.4615 36.5405 74.1063 36.5405C76.3462 36.5405 77.6006 35.5982 77.6006 33.9159ZM74.6799 35.184C73.1069 35.7148 72.3916 35.2634 72.3916 33.7408C72.3916 32.4872 72.4611 32.4171 73.7113 32.4171C76.0125 32.4171 76.738 34.4897 74.6799 35.184ZM62.822 35.1348C62.9771 34.7739 63.1919 34.1838 63.3002 33.8228C63.5753 32.9048 63.9851 33.0053 64.5149 34.1216C65.1938 35.5509 65.0844 35.7908 63.7545 35.7908C62.7517 35.7908 62.5895 35.6768 62.822 35.1348Z" fill="white"/>
</svg>
