<svg width="158" height="42" viewBox="0 0 158 42" fill="none" xmlns="http://www.w3.org/2000/svg">
<path d="M31.0412 15.1382V15.1354H30.99C28.4761 15.1315 23.9243 12.3223 21.4421 11.9089C20.5643 11.7639 17.519 11.8938 19.8184 15.1469L28.668 27.6698C28.668 27.6698 30.9673 30.9232 33.294 27.6911C33.294 27.6911 39.449 19.4355 41.8835 15.8082C39.4334 18.6412 31.0412 15.1382 31.0412 15.1382Z" fill="url(#paint0_linear_4730_7931)"/>
<path d="M40.6702 11.9072C38.1728 12.3082 33.5982 15.1001 31.043 15.1337V15.1365C31.043 15.1365 39.4344 18.6394 41.8826 15.8064C42.0227 15.5975 42.1508 15.4039 42.2658 15.228C42.7656 14.4564 44.5462 11.2859 40.6702 11.9072Z" fill="url(#paint1_linear_4730_7931)"/>
<path d="M25.1842 25.6895C25.6832 26.4611 27.4638 29.633 23.5878 29.0104C21.0725 28.6068 16.4523 25.7785 13.9083 25.7833C11.3943 25.7878 6.84171 28.597 4.36064 29.0104C3.4828 29.1566 0.437029 29.0255 2.73607 25.7724L11.5854 13.2495C11.5854 13.2495 13.8847 9.99613 16.2114 13.2282C16.2114 13.2282 23.0959 22.4624 25.1828 25.6895H25.1842Z" fill="url(#paint2_linear_4730_7931)"/>
<mask id="mask0_4730_7931" style="mask-type:luminance" maskUnits="userSpaceOnUse" x="1" y="11" width="26" height="19">
<path d="M25.1842 25.6969C25.6832 26.4685 27.4638 29.6404 23.5878 29.0178C21.0725 28.6142 16.4523 25.786 13.9083 25.7908C11.3943 25.7952 6.84171 28.6044 4.36064 29.0178C3.4828 29.164 0.437029 29.0329 2.73607 25.7798L11.5854 13.257C11.5854 13.257 13.8847 10.0036 16.2114 13.2357C16.2114 13.2357 23.0959 22.4699 25.1828 25.6969H25.1842Z" fill="white"/>
</mask>
<g mask="url(#mask0_4730_7931)">
<path d="M27.4632 10.0071H0.4375V29.6439H27.4632V10.0071Z" fill="url(#paint3_linear_4730_7931)"/>
</g>
<path d="M25.1842 25.7417C25.6832 26.5133 27.4638 29.6852 23.5878 29.0626C21.0736 28.659 16.4539 25.8311 13.9083 25.8356C11.3946 25.84 6.84171 28.6492 4.36064 29.0626C3.4828 29.2088 0.437029 29.0777 2.73607 25.8246L11.5857 13.3018C11.5857 13.3018 13.885 10.0484 16.2117 13.2805C16.2117 13.2805 23.0965 22.5147 25.1831 25.7417" fill="url(#paint4_linear_4730_7931)"/>
<path d="M25.1838 25.734C25.0699 25.5584 24.9421 25.3649 24.8006 25.156C22.3515 22.3227 13.9609 25.8259 13.9609 25.8259V25.8287C16.5159 25.8612 21.0907 28.6541 23.5879 29.0552C27.4628 29.6775 25.682 26.5057 25.1838 25.734Z" fill="url(#paint5_linear_4730_7931)"/>
<path d="M54.5 25.6367V15.6426H56.6244V23.8867H60.6882V25.6367H54.5Z" fill="white"/>
<path d="M63.9365 21.8018C63.9365 22.5583 64.0599 23.1302 64.3066 23.5176C64.5579 23.9049 64.9645 24.0986 65.5264 24.0986C66.0838 24.0986 66.4835 23.9072 66.7257 23.5244C66.9724 23.137 67.0957 22.5628 67.0957 21.8018C67.0957 21.0452 66.9724 20.4779 66.7257 20.0996C66.479 19.7214 66.0747 19.5322 65.5127 19.5322C64.9553 19.5322 64.5533 19.7214 64.3066 20.0996C64.0599 20.4733 63.9365 21.0407 63.9365 21.8018ZM69.2339 21.8018C69.2339 23.0459 68.9049 24.0189 68.247 24.7207C67.5892 25.4225 66.6731 25.7734 65.499 25.7734C64.7635 25.7734 64.1147 25.6139 63.5528 25.2949C62.9908 24.9714 62.5591 24.5088 62.2576 23.9072C61.956 23.3057 61.8053 22.6038 61.8053 21.8018C61.8053 20.5531 62.1319 19.5824 62.7852 18.8896C63.4385 18.1969 64.3568 17.8506 65.5401 17.8506C66.2757 17.8506 66.9244 18.0101 67.4864 18.3291C68.0483 18.6481 68.48 19.1061 68.7816 19.7031C69.0831 20.3001 69.2339 20.9997 69.2339 21.8018Z" fill="white"/>
<path d="M74.0721 25.7734C71.6872 25.7734 70.4948 24.4678 70.4948 21.8564C70.4948 20.5576 70.8192 19.5664 71.4679 18.8828C72.1167 18.1947 73.0464 17.8506 74.2571 17.8506C75.1434 17.8506 75.9383 18.0238 76.6419 18.3701L76.0252 19.9834C75.6962 19.8512 75.3901 19.7441 75.1069 19.6621C74.8236 19.5755 74.5403 19.5322 74.2571 19.5322C73.1698 19.5322 72.6261 20.3024 72.6261 21.8428C72.6261 23.3376 73.1698 24.085 74.2571 24.085C74.6591 24.085 75.0315 24.0326 75.3741 23.9277C75.7168 23.8184 76.0594 23.6497 76.4021 23.4219V25.2061C76.064 25.4202 75.7213 25.5684 75.3741 25.6504C75.0315 25.7324 74.5975 25.7734 74.0721 25.7734Z" fill="white"/>
<path d="M83.0494 25.6367L82.6451 24.5977H82.5903C82.2385 25.0397 81.8753 25.3473 81.5007 25.5205C81.1306 25.6891 80.6463 25.7734 80.0478 25.7734C79.3123 25.7734 78.7321 25.5638 78.3072 25.1445C77.8869 24.7253 77.6767 24.1283 77.6767 23.3535C77.6767 22.5423 77.96 21.9453 78.5265 21.5625C79.0976 21.1751 79.9565 20.9609 81.1032 20.9199L82.4327 20.8789V20.5439C82.4327 19.7692 82.0352 19.3818 81.2403 19.3818C80.6281 19.3818 79.9085 19.5664 79.0816 19.9355L78.3894 18.5273C79.2712 18.0671 80.2489 17.8369 81.3225 17.8369C82.3504 17.8369 83.1385 18.0602 83.6868 18.5068C84.235 18.9535 84.5091 19.6325 84.5091 20.5439V25.6367H83.0494ZM82.4327 22.0957L81.624 22.123C81.0164 22.1413 80.5641 22.2507 80.2671 22.4512C79.9702 22.6517 79.8217 22.957 79.8217 23.3672C79.8217 23.9551 80.1598 24.249 80.8359 24.249C81.3202 24.249 81.7063 24.11 81.9941 23.832C82.2865 23.554 82.4327 23.1849 82.4327 22.7246V22.0957Z" fill="white"/>
<path d="M88.7579 25.6367H86.6678V15H88.7579V25.6367Z" fill="white"/>
<path d="M95.3779 17.2627C94.5784 17.2627 93.9594 17.5635 93.5208 18.165C93.0822 18.762 92.8629 19.596 92.8629 20.667C92.8629 22.8955 93.7012 24.0098 95.3779 24.0098C96.0815 24.0098 96.9335 23.8343 97.9341 23.4834V25.2607C97.1117 25.6025 96.1934 25.7734 95.1792 25.7734C93.7218 25.7734 92.607 25.3337 91.8349 24.4541C91.0628 23.57 90.6768 22.3031 90.6768 20.6533C90.6768 19.6143 90.8664 18.7051 91.2456 17.9258C91.6248 17.1419 92.1684 16.5426 92.8766 16.1279C93.5893 15.7087 94.4231 15.499 95.3779 15.499C96.351 15.499 97.3287 15.7337 98.311 16.2031L97.6257 17.9258C97.2511 17.748 96.8741 17.5931 96.4949 17.4609C96.1157 17.3288 95.7434 17.2627 95.3779 17.2627Z" fill="white"/>
<path d="M101.573 21.8018C101.573 22.5583 101.696 23.1302 101.943 23.5176C102.194 23.9049 102.601 24.0986 103.163 24.0986C103.72 24.0986 104.12 23.9072 104.362 23.5244C104.609 23.137 104.732 22.5628 104.732 21.8018C104.732 21.0452 104.609 20.4779 104.362 20.0996C104.115 19.7214 103.711 19.5322 103.149 19.5322C102.592 19.5322 102.19 19.7214 101.943 20.0996C101.696 20.4733 101.573 21.0407 101.573 21.8018ZM106.87 21.8018C106.87 23.0459 106.541 24.0189 105.883 24.7207C105.226 25.4225 104.31 25.7734 103.135 25.7734C102.4 25.7734 101.751 25.6139 101.189 25.2949C100.627 24.9714 100.196 24.5088 99.894 23.9072C99.5925 23.3057 99.4417 22.6038 99.4417 21.8018C99.4417 20.5531 99.7684 19.5824 100.422 18.8896C101.075 18.1969 101.993 17.8506 103.177 17.8506C103.912 17.8506 104.561 18.0101 105.123 18.3291C105.685 18.6481 106.117 19.1061 106.418 19.7031C106.72 20.3001 106.87 20.9997 106.87 21.8018Z" fill="white"/>
<path d="M108.508 16.0186C108.508 15.3395 108.887 15 109.646 15C110.404 15 110.783 15.3395 110.783 16.0186C110.783 16.3421 110.687 16.5951 110.496 16.7773C110.308 16.9551 110.025 17.0439 109.646 17.0439C108.887 17.0439 108.508 16.7021 108.508 16.0186ZM110.687 25.6367H108.597V17.9941H110.687V25.6367Z" fill="white"/>
<path d="M119.959 25.6367H117.869V21.1729C117.869 20.6214 117.771 20.209 117.575 19.9355C117.378 19.6576 117.065 19.5186 116.636 19.5186C116.051 19.5186 115.628 19.7145 115.368 20.1064C115.108 20.4938 114.977 21.1387 114.977 22.041V25.6367H112.887V17.9941H114.484L114.765 18.9717H114.881C115.114 18.6025 115.434 18.3245 115.841 18.1377C116.252 17.9463 116.718 17.8506 117.239 17.8506C118.13 17.8506 118.806 18.0921 119.267 18.5752C119.729 19.0537 119.959 19.7464 119.959 20.6533V25.6367Z" fill="white"/>
<path d="M128.19 22.8613C128.19 23.7637 127.863 24.4746 127.21 24.9941C126.561 25.5137 125.657 25.7734 124.496 25.7734C123.427 25.7734 122.481 25.5729 121.659 25.1719V23.2031C122.335 23.5039 122.906 23.7158 123.372 23.8389C123.843 23.9619 124.272 24.0234 124.661 24.0234C125.127 24.0234 125.483 23.9346 125.73 23.7568C125.981 23.5791 126.107 23.3148 126.107 22.9639C126.107 22.7679 126.052 22.5947 125.942 22.4443C125.832 22.2894 125.67 22.1413 125.456 22C125.245 21.8587 124.814 21.6331 124.16 21.3232C123.548 21.0361 123.089 20.7604 122.783 20.4961C122.477 20.2318 122.232 19.9242 122.05 19.5732C121.867 19.2223 121.776 18.8122 121.776 18.3428C121.776 17.4587 122.075 16.7637 122.673 16.2578C123.276 15.752 124.108 15.499 125.168 15.499C125.689 15.499 126.184 15.5605 126.655 15.6836C127.13 15.8066 127.626 15.9798 128.142 16.2031L127.457 17.8506C126.922 17.6318 126.479 17.4792 126.127 17.3926C125.78 17.306 125.437 17.2627 125.099 17.2627C124.697 17.2627 124.389 17.3561 124.174 17.543C123.959 17.7298 123.852 17.9736 123.852 18.2744C123.852 18.4613 123.895 18.6253 123.982 18.7666C124.069 18.9033 124.206 19.0378 124.393 19.1699C124.585 19.2975 125.035 19.5299 125.743 19.8672C126.68 20.3138 127.322 20.7627 127.669 21.2139C128.016 21.6605 128.19 22.2096 128.19 22.8613Z" fill="white"/>
<path d="M136.139 25.6367L135.55 22.9639L134.769 19.5869H134.707L133.309 25.6367H131.061L128.882 17.9941H130.965L131.849 21.3779C131.95 21.779 132.089 22.6152 132.267 23.8867H132.322C132.34 23.5404 132.42 22.9912 132.562 22.2393L132.672 21.6582L133.617 17.9941H135.92L136.818 21.6582C136.873 21.9089 136.939 22.278 137.017 22.7656C137.099 23.2487 137.144 23.6224 137.154 23.8867H137.208C137.259 23.4811 137.329 23.0208 137.421 22.5059C137.512 21.9863 137.59 21.6104 137.654 21.3779L138.572 17.9941H140.621L138.415 25.6367H136.139Z" fill="white"/>
<path d="M146.727 25.6367L146.323 24.5977H146.268C145.916 25.0397 145.553 25.3473 145.178 25.5205C144.808 25.6891 144.324 25.7734 143.726 25.7734C142.99 25.7734 142.41 25.5638 141.985 25.1445C141.565 24.7253 141.354 24.1283 141.354 23.3535C141.354 22.5423 141.638 21.9453 142.204 21.5625C142.775 21.1751 143.634 20.9609 144.781 20.9199L146.11 20.8789V20.5439C146.11 19.7692 145.713 19.3818 144.918 19.3818C144.306 19.3818 143.586 19.5664 142.759 19.9355L142.067 18.5273C142.949 18.0671 143.927 17.8369 145 17.8369C146.028 17.8369 146.816 18.0602 147.364 18.5068C147.913 18.9535 148.187 19.6325 148.187 20.5439V25.6367H146.727ZM146.11 22.0957L145.302 22.123C144.694 22.1413 144.242 22.2507 143.945 22.4512C143.648 22.6517 143.499 22.957 143.499 23.3672C143.499 23.9551 143.837 24.249 144.514 24.249C144.998 24.249 145.384 24.11 145.672 23.832C145.964 23.554 146.11 23.1849 146.11 22.7246V22.0957Z" fill="white"/>
<path d="M154.553 25.7734C153.653 25.7734 152.947 25.4476 152.436 24.7959H152.326C152.399 25.4339 152.436 25.8031 152.436 25.9033V29H150.346V17.9941H152.045L152.34 18.9854H152.436C152.925 18.2288 153.649 17.8506 154.608 17.8506C155.513 17.8506 156.221 18.1992 156.732 18.8965C157.244 19.5938 157.5 20.5622 157.5 21.8018C157.5 22.6175 157.379 23.3262 157.137 23.9277C156.899 24.5293 156.559 24.9873 156.116 25.3018C155.673 25.6162 155.152 25.7734 154.553 25.7734ZM153.936 19.5186C153.42 19.5186 153.043 19.6781 152.806 19.9971C152.568 20.3115 152.445 20.8333 152.436 21.5625V21.7881C152.436 22.6084 152.557 23.1963 152.799 23.5518C153.046 23.9072 153.434 24.085 153.964 24.085C154.9 24.085 155.369 23.3148 155.369 21.7744C155.369 21.0225 155.252 20.4596 155.019 20.0859C154.791 19.7077 154.43 19.5186 153.936 19.5186Z" fill="white"/>
<defs>
<linearGradient id="paint0_linear_4730_7931" x1="30.4368" y1="11.0754" x2="30.4015" y2="27.9104" gradientUnits="userSpaceOnUse">
<stop stop-color="#F3D600"/>
<stop offset="0.27" stop-color="#EFCB04"/>
<stop offset="0.72" stop-color="#E5AF0F"/>
<stop offset="1" stop-color="#DD9B17"/>
</linearGradient>
<linearGradient id="paint1_linear_4730_7931" x1="37.048" y1="12.0632" x2="37.1185" y2="16.7894" gradientUnits="userSpaceOnUse">
<stop stop-color="#F3D600"/>
<stop offset="0.27" stop-color="#EFCB04"/>
<stop offset="0.72" stop-color="#E5AF0F"/>
<stop offset="1" stop-color="#DD9B17"/>
</linearGradient>
<linearGradient id="paint2_linear_4730_7931" x1="13.9449" y1="26.1214" x2="13.8303" y2="14.4452" gradientUnits="userSpaceOnUse">
<stop stop-color="#3F71FB"/>
<stop offset="0.21" stop-color="#3C6AF0"/>
<stop offset="0.57" stop-color="#3458D4"/>
<stop offset="1" stop-color="#293CAA"/>
</linearGradient>
<linearGradient id="paint3_linear_4730_7931" x1="14.0095" y1="26.1318" x2="13.8948" y2="14.4556" gradientUnits="userSpaceOnUse">
<stop stop-color="#3F71FB"/>
<stop offset="0.21" stop-color="#3C6AF0"/>
<stop offset="0.57" stop-color="#3458D4"/>
<stop offset="1" stop-color="#293CAA"/>
</linearGradient>
<linearGradient id="paint4_linear_4730_7931" x1="13.9449" y1="26.1736" x2="13.83" y2="14.4975" gradientUnits="userSpaceOnUse">
<stop stop-color="#3F71FB"/>
<stop offset="0.21" stop-color="#3C6AF0"/>
<stop offset="0.57" stop-color="#3458D4"/>
<stop offset="1" stop-color="#293CAA"/>
</linearGradient>
<linearGradient id="paint5_linear_4730_7931" x1="20.0996" y1="27.6066" x2="19.687" y2="24.7264" gradientUnits="userSpaceOnUse">
<stop stop-color="#3F71FB"/>
<stop offset="0.21" stop-color="#3C6AF0"/>
<stop offset="0.57" stop-color="#3458D4"/>
<stop offset="1" stop-color="#293CAA"/>
</linearGradient>
</defs>
</svg>
