<svg width="216" height="42" viewBox="0 0 216 42" fill="none" xmlns="http://www.w3.org/2000/svg">
<path d="M16.4135 24.7889L15.743 24.9729V10.2004H18.1813V27.2861H15.743L2.88104 12.7238L3.55156 12.5398V27.2861H1.11328V10.2004H3.55156L16.4135 24.7889ZM32.6837 27.5489C30.8749 27.5489 29.2291 27.1901 27.7462 26.4712C26.2832 25.7352 25.1145 24.7101 24.2412 23.3958C23.3666 22.0815 22.9293 20.5306 22.9293 18.7432C22.9293 16.9558 23.3666 15.4049 24.2412 14.0906C25.1145 12.7592 26.2819 11.7341 27.7462 11.0152C29.2291 10.2964 30.8749 9.9375 32.6837 9.9375C34.4912 9.9375 36.1278 10.2964 37.5908 11.0152C39.0736 11.7341 40.2517 12.7592 41.1263 14.0906C41.9996 15.4049 42.4369 16.9558 42.4369 18.7432C42.4369 20.5306 41.9996 22.0815 41.125 23.3958C40.2897 24.6768 39.0686 25.7394 37.5908 26.4712C36.1278 27.1901 34.4912 27.5489 32.6837 27.5489ZM32.6837 25.5775C34.0645 25.5775 35.3049 25.3238 36.4021 24.8152C37.4993 24.2895 38.3726 23.5181 39.0233 22.5021C39.6726 21.4849 39.9986 20.2324 39.9986 18.7432C39.9986 17.2541 39.6726 16.0095 39.0233 15.0106C38.3726 13.9935 37.4993 13.2232 36.4021 12.6975C35.3049 12.1718 34.0645 11.9089 32.6837 11.9089C31.3215 11.9089 30.0825 12.1718 28.9653 12.6975C27.8681 13.2232 26.9935 13.9946 26.3442 15.0106C25.6935 16.0095 25.3689 17.2541 25.3689 18.7432C25.3689 20.2324 25.6935 21.4861 26.3442 22.5021C26.9935 23.5192 27.8681 24.2895 28.9653 24.8152C30.0825 25.3238 31.3215 25.5775 32.6837 25.5775ZM51.5804 27.2861L44.4511 10.2004H47.0722L53.1984 25.0255H52.4669L58.3466 10.2004H60.9678L66.8502 25.0255H66.1187L72.2462 10.2004H74.8064L67.7354 27.2861H65.1752L59.3233 11.9352H59.9938L54.1419 27.2861H51.5804Z" fill="#64ACFF"/>
<path d="M80.5444 21.2396V19.2682H86.762C87.9811 19.2682 88.9657 18.9436 89.7171 18.2956C90.491 17.6293 90.8766 16.771 90.8766 15.7196C90.8766 14.6339 90.491 13.7744 89.7184 13.1436C88.9657 12.4956 87.9811 12.171 86.762 12.171H81.032V27.2853H78.5938V10.1996H86.762C87.6764 10.1996 88.5298 10.3219 89.3222 10.5676C90.1146 10.8133 90.8064 11.1722 91.3947 11.6453C92.0043 12.1184 92.4721 12.6967 92.7967 13.3802C93.1413 14.0636 93.3136 14.843 93.3136 15.7196C93.3136 16.5962 93.1413 17.3756 92.7967 18.059C92.4884 18.7217 92.0089 19.315 91.3947 19.7939C90.7967 20.2716 90.0913 20.6384 89.3222 20.8716C88.5 21.1213 87.6337 21.2458 86.762 21.2396H80.5444ZM102.641 27.5482C101.458 27.5523 100.301 27.2501 99.3191 26.6807C98.324 26.0853 97.5209 25.2784 96.9113 24.2624C96.3217 23.2282 96.0275 22.0544 96.0275 20.7402C96.0275 19.4259 96.3323 18.2522 96.9418 17.2179C97.5514 16.1836 98.373 15.3687 99.4106 14.7733C100.46 14.1792 101.691 13.8681 102.946 13.8796C104.368 13.8796 105.445 14.195 106.177 14.8259C106.928 15.4396 107.436 16.2624 107.701 17.2967C107.986 18.331 108.127 19.4784 108.127 20.7402C108.127 21.4064 108.047 22.1333 107.884 22.9219C107.72 23.6969 107.432 24.4488 107.03 25.1562C106.657 25.8434 106.092 26.4396 105.384 26.891C104.673 27.3287 103.758 27.5482 102.641 27.5482ZM103.251 25.5504C104.287 25.5504 105.141 25.331 105.811 24.8933C106.501 24.4556 107.01 23.8762 107.335 23.1584C107.66 22.4224 107.823 21.6156 107.823 20.7402C107.823 19.7767 107.65 18.9344 107.305 18.2167C106.98 17.4807 106.471 16.9116 105.781 16.5082C105.11 16.0876 104.267 15.8773 103.25 15.8773C101.726 15.8773 100.549 16.3413 99.7154 17.2704C98.8819 18.1813 98.4658 19.339 98.4658 20.7402C98.4658 21.6693 98.6685 22.5013 99.0753 23.2373C99.468 23.9219 100.055 24.5097 100.782 24.9459C101.519 25.3504 102.377 25.5605 103.251 25.5504ZM107.823 14.1424H110.261V27.2853H108.035L107.975 26.8122C107.95 26.4438 107.919 26.0758 107.882 25.7082C107.846 25.3585 107.827 25.0077 107.823 24.6567V14.1424ZM113.657 14.1424H116.278L121.734 26.7596L119.601 27.2853L113.657 14.1424ZM127.83 14.1424L119.326 32.5424H116.675L120.363 25.4453L125.239 14.1424H127.83ZM131.212 14.1424H133.65V27.2853H131.212V14.1424ZM138.892 13.8796C139.705 13.8796 140.436 13.9847 141.087 14.195C141.737 14.4053 142.286 14.7116 142.733 15.115C143.179 15.5184 143.525 16.0087 143.769 16.587C144.013 17.147 144.135 17.787 144.135 18.5059V27.2853H141.696V19.0316C141.696 18.0144 141.422 17.2533 140.873 16.7447C140.325 16.2362 139.502 15.9824 138.405 15.9824C137.571 15.9824 136.8 16.1664 136.088 16.5344C135.365 16.9125 134.759 17.4355 134.32 18.059C133.874 18.6899 133.6 19.4259 133.498 20.267L133.467 18.7424C133.569 18.0064 133.772 17.3402 134.077 16.7447C134.374 16.1841 134.775 15.6691 135.265 15.2202C135.731 14.7955 136.29 14.4558 136.911 14.2213C137.541 13.9927 138.202 13.8796 138.892 13.8796ZM149.133 13.8796C149.945 13.8796 150.677 13.9847 151.327 14.195C151.978 14.4053 152.527 14.7116 152.973 15.115C153.42 15.5184 153.766 16.0087 154.01 16.587C154.253 17.147 154.375 17.787 154.375 18.5059V27.2853H151.937V19.0316C151.937 18.0144 151.663 17.2533 151.114 16.7447C150.565 16.2362 149.743 15.9824 148.645 15.9824C147.812 15.9824 147.041 16.1664 146.329 16.5344C145.606 16.9125 145 17.4355 144.561 18.059C144.115 18.6899 143.84 19.4259 143.738 20.267L143.708 18.7424C143.81 18.0064 144.013 17.3402 144.317 16.7447C144.615 16.1841 145.016 15.6691 145.506 15.2202C145.972 14.7955 146.531 14.4558 147.152 14.2213C147.781 13.9927 148.443 13.8796 149.133 13.8796ZM169.911 23.0533H172.197C172.046 23.8876 171.67 24.6798 171.1 25.3664C170.531 26.0473 169.778 26.5978 168.906 26.9699C168.011 27.355 166.975 27.5482 165.797 27.5482C164.374 27.5482 163.093 27.259 161.957 26.6807C160.825 26.0907 159.89 25.2574 159.244 24.2624C158.593 23.2282 158.269 22.0544 158.269 20.7402C158.269 19.4259 158.583 18.2522 159.213 17.2179C159.83 16.2143 160.745 15.3705 161.865 14.7733C162.982 14.1779 164.242 13.8796 165.644 13.8796C167.127 13.8796 168.377 14.1687 169.393 14.747C170.43 15.307 171.191 16.1402 171.679 17.2442C172.187 18.3299 172.391 19.6716 172.289 21.2659H160.707C160.808 22.1242 161.082 22.8773 161.53 23.5264C161.957 24.1576 162.566 24.6828 163.298 25.051C164.029 25.4019 164.861 25.5767 165.797 25.5767C166.833 25.5767 167.706 25.3482 168.418 24.8933C169.149 24.4202 169.648 23.8076 169.911 23.0533ZM165.736 15.851C164.476 15.851 163.419 16.1664 162.566 16.7973C161.713 17.4282 161.143 18.2864 160.859 19.3733H169.789C169.707 18.2167 169.271 17.3402 168.479 16.7447C167.73 16.1566 166.749 15.8369 165.736 15.851ZM176.227 14.1424H178.665V27.2853H176.227V14.1424ZM183.908 13.8796C184.721 13.8796 185.453 13.9847 186.102 14.195C186.753 14.4053 187.301 14.7116 187.748 15.115C188.196 15.5184 188.54 16.0087 188.784 16.587C189.028 17.147 189.15 17.787 189.15 18.5059V27.2853H186.712V19.0316C186.712 18.0144 186.437 17.2533 185.889 16.7447C185.34 16.2362 184.517 15.9824 183.42 15.9824C182.588 15.9824 181.815 16.1664 181.104 16.5344C180.381 16.9129 179.775 17.4358 179.336 18.059C178.889 18.6899 178.615 19.4259 178.513 20.267L178.482 18.7424C178.585 18.0064 178.787 17.3402 179.092 16.7447C179.418 16.1493 179.814 15.6407 180.281 15.2202C180.746 14.7955 181.306 14.4558 181.927 14.2213C182.557 13.9927 183.217 13.8796 183.908 13.8796ZM192.833 14.1424H201.793V16.1139H192.833V14.1424ZM196.094 10.7253H198.532V27.2853H196.094V10.7253ZM204.738 23.0533H206.993C207.054 23.8076 207.379 24.4202 207.968 24.8933C208.578 25.3664 209.451 25.603 210.59 25.603C211.28 25.603 211.818 25.5242 212.205 25.3664C212.61 25.2087 212.906 24.9984 213.089 24.7356C213.272 24.4556 213.363 24.1482 213.363 23.8156C213.363 23.4122 213.241 23.0967 212.997 22.8693C212.744 22.6048 212.42 22.3974 212.053 22.2647C211.617 22.0908 211.169 21.9415 210.712 21.8179C210.101 21.6181 209.492 21.4166 208.883 21.2133C208.273 20.9847 207.694 20.7219 207.146 20.4247C206.635 20.1257 206.2 19.7414 205.865 19.2944C205.539 18.8384 205.378 18.2956 205.378 17.6647C205.378 17.139 205.5 16.6476 205.744 16.1927C205.98 15.7279 206.334 15.3148 206.78 14.9836C207.256 14.6286 207.803 14.3524 208.395 14.1687C209.062 13.9707 209.763 13.8728 210.468 13.8796C211.483 13.8796 212.336 14.0544 213.028 14.4053C213.738 14.7562 214.278 15.2556 214.643 15.9036C215.029 16.5344 215.232 17.2704 215.253 18.1116H213.15C213.007 17.323 212.713 16.7539 212.266 16.403C211.839 16.035 211.219 15.851 210.407 15.851C209.573 15.851 208.933 16.0087 208.487 16.3242C208.039 16.6396 207.816 17.0602 207.816 17.5859C207.816 17.971 207.978 18.2956 208.304 18.5584C208.628 18.8042 209.045 19.0316 209.553 19.2419C210.081 19.435 210.64 19.6362 211.23 19.8464C211.818 20.0567 212.388 20.267 212.936 20.4773C213.485 20.6876 213.973 20.9333 214.399 21.2133C214.826 21.4933 215.161 21.8442 215.405 22.2647C215.669 22.6682 215.801 23.1756 215.801 23.7893C215.801 24.5253 215.597 25.1824 215.192 25.7607C214.805 26.3207 214.226 26.7596 213.455 27.075C212.702 27.3904 211.778 27.5482 210.681 27.5482C209.685 27.5482 208.831 27.443 208.121 27.2327C207.487 27.0341 206.899 26.7405 206.384 26.3653C205.949 26.0325 205.579 25.6421 205.286 25.2087C205.056 24.8379 204.891 24.4391 204.799 24.0259C204.72 23.7063 204.7 23.3783 204.738 23.0533Z" fill="#FEFEFE"/>
</svg>
