<svg width="127" height="42" viewBox="0 0 127 42" fill="none" xmlns="http://www.w3.org/2000/svg">
<g clip-path="url(#clip0_21612_14222)">
<path fill-rule="evenodd" clip-rule="evenodd" d="M18.0006 2.54719C16.551 2.54719 13.8637 3.14209 11.0414 3.9097C11.0337 3.9118 11.0259 3.91381 11.0182 3.91573C8.23714 4.66878 5.42414 5.56049 3.75946 6.10487C3.41693 6.21874 3.11339 6.42656 2.88358 6.70459C2.65702 6.9787 2.51114 7.31011 2.46203 7.66189C2.46124 7.669 2.46037 7.67611 2.45942 7.68322C1.01343 18.5499 4.36209 26.5135 8.36765 31.7553C8.37658 31.767 8.38525 31.7788 8.39365 31.7909C10.0861 34.0194 12.1023 35.9831 14.3757 37.6172L14.3768 37.618C15.1261 38.1581 15.9207 38.6327 16.7518 39.0363C16.772 39.0462 16.7919 39.0567 16.8114 39.0678C17.182 39.264 17.5847 39.3922 18.0002 39.4464C18.4224 39.391 18.8314 39.2594 19.2071 39.0578C19.2186 39.0516 19.2303 39.0457 19.2421 39.0399C20.0741 38.6344 20.8701 38.1591 21.6215 37.6191L22.2113 38.4373L21.6215 37.6191C23.8986 35.9828 25.9178 34.0158 27.6122 31.7833C27.6239 31.7668 27.6362 31.7506 27.649 31.7349C28.0388 31.2257 28.4206 30.6896 28.7944 30.1266C29.1024 29.6625 29.7289 29.5356 30.1937 29.8432C30.6585 30.1507 30.7855 30.7763 30.4775 31.2404C30.076 31.8452 29.6639 32.4237 29.2409 32.9754C29.24 32.9766 29.2392 32.9777 29.2383 32.9788C27.419 35.3807 25.249 37.4965 22.801 39.2556C21.962 39.8585 21.0734 40.3897 20.1449 40.8434C19.5111 41.1806 18.8175 41.3914 18.1029 41.4641C18.0351 41.471 17.9668 41.471 17.899 41.4642C17.1782 41.3914 16.4788 41.1779 15.8405 40.8358C14.9151 40.3843 14.03 39.8547 13.1948 39.2527C10.7485 37.4941 8.58006 35.3794 6.76172 32.9788C6.75424 32.969 6.74694 32.9589 6.73984 32.9488C2.46105 27.336 -1.05953 18.8629 0.454985 7.43864C0.455735 7.4318 0.456556 7.42497 0.457446 7.41815C0.553272 6.6842 0.854383 5.99209 1.32623 5.42124C1.79807 4.85039 2.42154 4.42392 3.12508 4.19076L3.12886 4.18951L3.12887 4.18952C4.81142 3.63927 7.67321 2.73181 10.511 1.96404C10.518 1.96216 10.5249 1.96036 10.5319 1.95863C13.3007 1.2062 16.2396 0.531006 18.0006 0.531006C19.7658 0.531006 22.7141 1.21176 25.4876 1.96097L25.4925 1.96229C27.9702 2.64483 30.4304 3.38663 32.873 4.1877L32.8768 4.18892C33.5802 4.42267 34.2035 4.84957 34.6752 5.42072C35.1469 5.99187 35.4479 6.68415 35.5436 7.41822C35.5493 7.46141 35.5521 7.50491 35.5521 7.54846V7.55043C35.5521 8.10718 35.1001 8.55852 34.5425 8.55852C34.0216 8.55852 33.5929 8.1647 33.5386 7.65902C33.4891 7.30792 33.3434 6.97716 33.1173 6.7034C32.8874 6.42498 32.5836 6.21675 32.2408 6.10252C29.8305 5.31208 27.4029 4.58009 24.9579 3.90655C22.1333 3.1436 19.4499 2.54719 18.0006 2.54719Z" fill="url(#paint0_linear_21612_14222)"/>
<path d="M10.6724 27.9537H13.566V15.4396H13.612L21.6512 27.9537H25.3273V11.6386H22.4309V23.7584H22.3877L14.4922 11.6386H10.6724V27.9537ZM29.9497 23.3442C30.3471 24.3527 30.9522 25.2666 31.7256 26.0269C32.499 26.7873 33.4237 27.3771 34.4397 27.7582C35.544 28.1752 36.7164 28.3829 37.8969 28.3708C39.0916 28.3711 40.2758 28.1487 41.3887 27.715C42.4094 27.3154 43.3395 26.7157 44.1242 25.9511C44.9009 25.1845 45.5117 24.2668 45.919 23.255C46.3557 22.1469 46.5698 20.9639 46.5489 19.7733C46.566 18.5595 46.3482 17.3538 45.9075 16.2224C45.5036 15.2021 44.8926 14.2763 44.1128 13.5033C43.3344 12.742 42.4016 12.1562 41.3772 11.7855C40.2583 11.3833 39.0743 11.1921 37.8855 11.2214C36.7049 11.2097 35.5324 11.4176 34.428 11.8344C33.4141 12.2203 32.4915 12.812 31.7184 13.5722C30.9391 14.35 30.3282 15.2795 29.9237 16.303C29.4956 17.4418 29.2906 18.6521 29.3198 19.8682C29.3025 21.0586 29.5204 22.2408 29.9611 23.3471H29.9497L29.9497 23.3442ZM32.7424 17.3993C32.9973 16.7133 33.3843 16.0838 33.8816 15.5462C34.3753 15.0134 34.9747 14.5891 35.6417 14.3004C36.3658 13.9915 37.147 13.8385 37.9343 13.8515C38.7232 13.8413 39.5057 13.9942 40.2327 14.3004C40.9033 14.5871 41.5059 15.0116 42.0014 15.5462C42.497 16.0849 42.8839 16.7142 43.1406 17.3993C43.4071 18.1272 43.5387 18.8974 43.5289 19.6723C43.538 20.4964 43.4016 21.3156 43.126 22.0923C42.8759 22.7987 42.4889 23.4489 41.9871 24.006C41.4924 24.5466 40.8898 24.9778 40.2181 25.2719C39.4921 25.5759 38.7128 25.7324 37.9256 25.7324C37.1384 25.7324 36.3591 25.5759 35.6332 25.2719C34.9662 24.9754 34.3679 24.5445 33.8759 24.006C33.3739 23.449 32.9868 22.7987 32.7367 22.0923C32.4636 21.315 32.3283 20.4961 32.3369 19.6723C32.3303 18.8936 32.4668 18.1203 32.7396 17.3907L32.7424 17.3993ZM53.5127 27.9537H56.176L59.9441 15.532H59.9901L63.7725 27.9537H66.5281L71.2596 11.6386H68.32L65.13 23.3931H65.084L61.4945 11.6386H58.644L54.9854 23.3931H54.9393L51.8845 11.6386H48.7006L53.5127 27.9537Z" fill="#00C26F"/>
<path d="M75.5638 19.8975L77.42 26.4345H77.4548L79.6056 19.8975H80.774L82.9251 26.4345H82.9596L84.8158 19.8975H86.1567L83.6102 27.9485H82.3382L80.2057 21.3424H80.1712L78.039 27.9485H76.7668L74.2202 19.8975H75.5638Z" fill="white"/>
<path d="M93.8421 23.7355C93.5551 23.7355 93.1939 23.7514 92.7586 23.7862C92.3394 23.8066 91.9241 23.8761 91.5211 23.9933C91.1517 24.0871 90.8061 24.2572 90.5067 24.4928C90.3697 24.608 90.2612 24.7533 90.1898 24.9173C90.1184 25.0813 90.0859 25.2596 90.095 25.4383C90.0887 25.6768 90.1416 25.9131 90.2489 26.1262C90.3642 26.3101 90.5161 26.4683 90.6951 26.5911C90.8816 26.7074 91.0849 26.7943 91.2979 26.8487C91.5244 26.894 91.7547 26.9171 91.9856 26.9177C92.3523 26.9267 92.7166 26.8561 93.0532 26.7106C93.3472 26.5845 93.6108 26.397 93.8262 26.1607C94.0327 25.9207 94.1849 25.6389 94.2721 25.3347C94.3763 25.0066 94.4284 24.6641 94.4263 24.3199V23.7355L93.8421 23.7355ZM94.4263 22.8059V22.5988C94.4263 21.2123 93.7385 20.5181 92.3628 20.5164C91.4521 20.5053 90.5719 20.8437 89.9039 21.4619L89.2161 20.6544C89.9729 19.8735 91.1076 19.4839 92.6203 19.4856C92.9997 19.4844 93.377 19.5426 93.7383 19.6582C94.0894 19.7634 94.4125 19.9459 94.6838 20.1922C94.9571 20.4349 95.1746 20.7339 95.3211 21.0686C95.4903 21.4711 95.5726 21.9046 95.5626 22.341V25.9377C95.5626 26.2457 95.5735 26.5752 95.5974 26.9177C95.6319 27.2499 95.6664 27.526 95.7009 27.744H94.5988C94.5643 27.5499 94.5351 27.3375 94.5139 27.1065C94.5033 26.8779 94.498 26.6548 94.498 26.4371H94.4635C94.182 26.9275 93.7715 27.3316 93.2764 27.6057C92.7611 27.8501 92.1949 27.9685 91.6247 27.9511C91.2745 27.9523 90.9262 27.9004 90.5916 27.7971C90.2693 27.7099 89.9658 27.5639 89.6965 27.3667C89.4446 27.1616 89.2346 26.91 89.0778 26.6257C88.9238 26.3033 88.8474 25.9494 88.8549 25.5923C88.8222 25.0369 89.0005 24.4896 89.3542 24.0597C89.7026 23.6792 90.1394 23.39 90.6261 23.2177C91.1532 23.0322 91.7022 22.9161 92.2593 22.8723C92.8435 22.8272 93.3764 22.8041 93.858 22.8033H94.4263L94.4263 22.8059Z" fill="white"/>
<path d="M101.211 27.9484H100.075V14.9434H101.211V27.9484Z" fill="white"/>
<path d="M106.976 27.9484H105.84V14.9434H106.976L106.976 27.9484Z" fill="white"/>
<path d="M117.609 23.0983C117.632 22.7507 117.58 22.4021 117.457 22.0763C117.333 21.7505 117.141 21.4551 116.892 21.2101C116.644 20.9652 116.346 20.7764 116.019 20.6567C115.691 20.537 115.341 20.4892 114.993 20.5164C114.627 20.5164 114.264 20.5923 113.928 20.7395C113.592 20.8716 113.284 21.0643 113.018 21.3079C112.766 21.5466 112.557 21.8259 112.399 22.134C112.252 22.4342 112.176 22.7641 112.176 23.0983L117.609 23.0983ZM112.141 24.0279C112.174 24.4206 112.273 24.805 112.433 25.1648C112.587 25.5112 112.803 25.8264 113.071 26.0944C113.337 26.3473 113.645 26.5514 113.981 26.6974C114.335 26.8478 114.715 26.9238 115.099 26.9204C115.65 26.9355 116.192 26.7926 116.664 26.5089C117.07 26.2613 117.417 25.9264 117.678 25.5286L118.554 26.2511C118.135 26.8094 117.587 27.2578 116.956 27.558C116.372 27.8237 115.738 27.9588 115.097 27.9538C114.526 27.9584 113.96 27.8537 113.429 27.6456C112.938 27.4375 112.494 27.1332 112.123 26.7505C111.75 26.3615 111.453 25.9067 111.246 25.4091C111.036 24.8718 110.931 24.2991 110.938 23.7223C110.933 23.1457 111.038 22.5733 111.246 22.0357C111.442 21.5366 111.735 21.0808 112.107 20.6943C112.471 20.3158 112.911 20.0172 113.397 19.8176C113.909 19.602 114.458 19.491 115.013 19.491C115.568 19.491 116.118 19.602 116.629 19.8176C117.089 20.0193 117.5 20.3185 117.832 20.6943C118.17 21.0612 118.428 21.4946 118.589 21.9667C118.764 22.4641 118.851 22.988 118.847 23.5152V24.0306H112.141V24.0279Z" fill="white"/>
<path d="M126.701 20.7236H124.381V25.4729C124.375 25.7228 124.404 25.9723 124.468 26.214C124.513 26.3746 124.596 26.5222 124.71 26.6444C124.811 26.7465 124.934 26.823 125.071 26.8674C125.23 26.9025 125.392 26.9194 125.554 26.9178C125.758 26.9161 125.961 26.8875 126.157 26.8329C126.354 26.7784 126.544 26.7037 126.725 26.6098L126.776 27.6589C126.292 27.8652 125.77 27.9649 125.244 27.9512C125.012 27.9491 124.781 27.9206 124.556 27.8663C124.322 27.8052 124.105 27.6936 123.919 27.5394C123.711 27.3611 123.546 27.1376 123.438 26.886C123.299 26.5423 123.234 26.1729 123.25 25.8024V20.7262H121.547V19.6928H123.25V17.4219H124.383V19.6928H126.704V20.7236H126.701Z" fill="white"/>
</g>
<defs>
<linearGradient id="paint0_linear_21612_14222" x1="17.8247" y1="0.531006" x2="17.8247" y2="41.4693" gradientUnits="userSpaceOnUse">
<stop stop-color="#FB9600"/>
<stop offset="0.25081" stop-color="#00C26F"/>
<stop offset="0.50428" stop-color="#6696D6"/>
<stop offset="0.776" stop-color="#F28984"/>
<stop offset="0.9999" stop-color="#5FCEF0"/>
</linearGradient>
<clipPath id="clip0_21612_14222">
<rect width="127" height="42" fill="white"/>
</clipPath>
</defs>
</svg>
