<svg width="120" height="42" viewBox="0 0 120 42" fill="none" xmlns="http://www.w3.org/2000/svg">
<path d="M110.629 15.8548C110.905 15.7881 111.404 15.7148 111.741 15.6815C112.078 15.6548 112.685 15.6415 113.09 15.6615C113.494 15.6748 114.121 15.7348 114.472 15.7948C114.822 15.8481 115.341 15.9748 115.618 16.0615C115.894 16.1548 116.393 16.3615 116.73 16.5214C117.067 16.6814 117.553 16.9748 117.809 17.1681C118.065 17.3681 118.476 17.7481 118.719 18.0214C118.962 18.2947 119.299 18.788 119.474 19.1147C119.643 19.448 119.831 19.8813 119.892 20.0813C119.953 20.2813 120 20.5546 120 20.6813C120.007 20.8146 119.946 20.9946 119.865 21.1012C119.791 21.2012 119.616 21.3146 119.481 21.3546C119.319 21.4012 118.544 21.4146 117.337 21.4012C115.759 21.3879 115.415 21.3612 115.281 21.2746C115.186 21.2212 114.997 20.9479 114.863 20.6746C114.721 20.4013 114.512 20.0613 114.391 19.9213C114.269 19.7813 114.02 19.5813 113.831 19.488C113.528 19.3347 113.42 19.3147 112.779 19.3147C112.125 19.3147 112.038 19.328 111.674 19.5146C111.445 19.628 111.188 19.828 111.067 19.9813C110.952 20.1279 110.791 20.4213 110.71 20.6346C110.629 20.8412 110.534 21.2012 110.494 21.4346C110.46 21.6612 110.426 22.4212 110.426 23.1145C110.433 23.9144 110.467 24.5744 110.528 24.9144C110.582 25.2077 110.716 25.6277 110.824 25.8477C110.939 26.081 111.141 26.3543 111.31 26.501C111.471 26.641 111.761 26.801 111.943 26.861C112.139 26.921 112.496 26.9676 112.786 26.9676C113.103 26.9676 113.433 26.921 113.663 26.8476C113.892 26.7676 114.128 26.6277 114.29 26.4677C114.424 26.3277 114.66 25.9743 114.809 25.681C114.957 25.3877 115.146 25.0877 115.233 25.0144C115.375 24.8811 115.469 24.8811 119.595 24.8811L119.798 25.0811C119.953 25.2344 120 25.341 120 25.5344C120 25.6677 119.939 25.9877 119.858 26.2477C119.784 26.5077 119.616 26.9076 119.488 27.1476C119.366 27.3876 119.09 27.7876 118.881 28.0476C118.679 28.3076 118.335 28.6609 118.126 28.8342C117.917 29.0142 117.526 29.2875 117.27 29.4475C117.013 29.6142 116.541 29.8475 116.225 29.9742C115.908 30.1075 115.409 30.2675 115.112 30.3408C114.815 30.4141 114.276 30.5075 113.919 30.5475C113.555 30.5808 113.009 30.6141 112.705 30.6141C112.395 30.6141 111.876 30.5808 111.539 30.5408C111.202 30.5008 110.642 30.3941 110.292 30.3075C109.941 30.2142 109.382 30.0142 109.044 29.8608C108.707 29.7008 108.289 29.4742 108.101 29.3475C107.919 29.2209 107.568 28.9342 107.332 28.7142C107.096 28.4942 106.772 28.1342 106.611 27.9143C106.456 27.6943 106.22 27.2876 106.085 27.0143C105.957 26.741 105.788 26.2743 105.714 25.981C105.64 25.6877 105.545 25.1944 105.505 24.8811C105.471 24.5677 105.438 23.7878 105.438 23.1478C105.438 22.5078 105.471 21.7279 105.505 21.4146C105.539 21.1012 105.633 20.6079 105.707 20.3146C105.781 20.0213 105.95 19.5546 106.085 19.2813C106.22 19.008 106.435 18.6213 106.57 18.4214C106.712 18.2214 106.954 17.908 107.123 17.7281C107.292 17.5414 107.595 17.2681 107.797 17.1148C107.999 16.9548 108.397 16.7081 108.674 16.5548C108.95 16.4081 109.395 16.2148 109.651 16.1281C109.907 16.0348 110.352 15.9148 110.629 15.8548Z" fill="white"/>
<path fill-rule="evenodd" clip-rule="evenodd" d="M98.2448 10.0153H102.196L102.6 10.4152V13.4818L102.209 13.8817H100.227C98.6763 13.8817 98.2246 13.8618 98.1167 13.7951C98.0426 13.7418 97.9414 13.6151 97.8943 13.5084C97.8336 13.3684 97.8134 12.9418 97.8471 10.4219L98.2448 10.0153ZM82.6711 10.6819C84.4374 10.6819 84.6532 10.6952 84.8015 10.8019C84.8891 10.8619 85.0037 11.0152 85.0509 11.1352C85.1184 11.3019 85.1386 12.0152 85.1386 17.1483L85.597 16.8083C85.8465 16.6216 86.251 16.3683 86.487 16.2483C86.7297 16.1283 87.1409 15.9683 87.3971 15.8883C87.6601 15.8083 88.159 15.715 88.5095 15.6817C88.941 15.635 89.386 15.635 89.8579 15.6883C90.3231 15.7283 90.795 15.8283 91.2063 15.9683C91.5636 16.0883 92.0288 16.2883 92.2513 16.415C92.4738 16.5483 92.9187 16.9083 93.2356 17.2149C93.5727 17.5416 93.9368 17.9816 94.0986 18.2482C94.2469 18.5082 94.4761 19.0015 94.6042 19.3482C94.7323 19.7015 94.8874 20.2415 94.948 20.5481C95.0087 20.8614 95.0896 21.5681 95.1233 22.1147C95.157 22.7347 95.157 23.508 95.1233 24.1479C95.0829 24.7213 95.0087 25.4412 94.948 25.7479C94.8874 26.0612 94.7525 26.5545 94.6581 26.8478C94.557 27.1411 94.3413 27.6211 94.1727 27.9144C93.9705 28.2811 93.6806 28.6411 93.2626 29.0544C92.8581 29.461 92.5007 29.7477 92.1839 29.921C91.9277 30.061 91.5029 30.241 91.24 30.321C90.9838 30.401 90.4647 30.5077 90.0939 30.5543C89.7096 30.601 89.15 30.621 88.7792 30.5943C88.4286 30.5743 87.9162 30.5077 87.6331 30.4477C87.3567 30.3877 86.9184 30.241 86.6555 30.121C86.3993 30.0077 86.0353 29.8077 85.8465 29.681C85.6645 29.5544 85.3678 29.321 84.8689 28.8477V29.301C84.8689 29.5744 84.8285 29.8277 84.7678 29.9477C84.7138 30.061 84.579 30.1943 84.4644 30.2477C84.3026 30.3277 83.9385 30.3477 82.5632 30.3477C81.0732 30.3477 80.8305 30.3343 80.6215 30.2343C80.4597 30.1543 80.3653 30.041 80.3046 29.881C80.244 29.7077 80.2237 27.4145 80.2237 20.5481C80.2237 14.7217 80.244 11.3619 80.2844 11.2019C80.3249 11.0619 80.4327 10.8886 80.5339 10.8152C80.7024 10.6886 80.817 10.6819 82.6711 10.6819ZM86.1634 19.8681C85.9611 20.0015 85.7117 20.2548 85.6038 20.4148C85.4959 20.5814 85.3341 20.9281 85.2532 21.1814C85.1251 21.6014 85.1049 21.7881 85.1116 23.0147C85.1116 24.1279 85.1318 24.4679 85.233 24.8479C85.3071 25.1079 85.4217 25.4346 85.4959 25.5812C85.5701 25.7279 85.7251 25.9679 85.8397 26.1079C85.9544 26.2545 86.1701 26.4412 86.3184 26.5212C86.4667 26.6078 86.696 26.7145 86.8241 26.7478C86.9589 26.7878 87.3364 26.8212 87.6668 26.8212C88.1252 26.8278 88.368 26.7878 88.6444 26.6878C88.8534 26.6078 89.0961 26.4812 89.1905 26.4012C89.2849 26.3145 89.4467 26.1479 89.541 26.0145C89.6422 25.8879 89.7972 25.5745 89.8849 25.3146C89.9725 25.0612 90.0871 24.5346 90.1343 24.1479C90.1815 23.7213 90.2018 23.1347 90.1748 22.648C90.1546 22.208 90.0737 21.6281 90.0062 21.3481C89.9321 21.0748 89.804 20.7014 89.7096 20.5148C89.6152 20.3348 89.4062 20.0615 89.2444 19.9148C89.0421 19.7415 88.8062 19.6082 88.5432 19.5348C88.3073 19.4682 87.9297 19.4215 87.6331 19.4215C87.3567 19.4215 86.9926 19.4682 86.8241 19.5215C86.6623 19.5748 86.3589 19.7282 86.1634 19.8681ZM48.5975 10.9752C52.6157 10.9952 53.364 11.0152 53.8562 11.1085C54.1731 11.1685 54.7663 11.3219 55.1709 11.4485C55.5821 11.5819 56.1687 11.8285 56.4788 12.0018C56.7957 12.1752 57.2474 12.4818 57.4901 12.6885C57.7395 12.8885 58.0834 13.2351 58.2586 13.4551C58.4339 13.6684 58.6766 14.0284 58.7913 14.2484C58.9059 14.4684 59.0744 14.8484 59.1553 15.0817C59.2362 15.3217 59.3374 15.7417 59.3845 16.015C59.4385 16.3416 59.4587 16.8816 59.4385 17.5482C59.4115 18.3282 59.3643 18.7015 59.2564 19.0682C59.1823 19.3348 59.0137 19.7548 58.8856 20.0015C58.7643 20.2481 58.4811 20.6748 58.2654 20.9481C58.0496 21.2214 57.6384 21.6281 57.3552 21.8481C57.0721 22.068 56.6608 22.3347 56.0473 22.6347L57.989 26.0745C59.3913 28.5744 59.9239 29.5744 59.9239 29.7344C59.9239 29.8677 59.8632 30.021 59.6003 30.3143L57.5575 30.3343C56.29 30.3477 55.4068 30.3343 55.2383 30.2877C55.09 30.2543 54.8742 30.121 54.7529 30.001C54.6248 29.8744 53.8764 28.5144 51.2538 23.5146L48.4627 23.4813V26.6145C48.4627 29.2677 48.4492 29.781 48.3615 29.9477C48.3076 30.061 48.1593 30.1943 48.0244 30.2477C47.8357 30.3277 47.4312 30.3477 45.921 30.3477C44.8895 30.3543 43.9591 30.321 43.8445 30.2877C43.7366 30.2543 43.5883 30.1477 43.5276 30.0543C43.413 29.8944 43.4062 29.3344 43.4062 20.6348C43.4062 12.2418 43.4197 11.3685 43.5141 11.2285C43.5748 11.1419 43.6894 11.0485 43.7703 11.0152C43.8512 10.9819 45.921 10.9619 48.5975 10.9752ZM48.4627 19.5482C51.1055 19.5482 52.0561 19.5215 52.2921 19.4815C52.5213 19.4482 52.8651 19.3415 53.0472 19.2482C53.2359 19.1615 53.5124 18.9549 53.6607 18.8015C53.809 18.6415 53.9978 18.3549 54.0719 18.1482C54.1731 17.8816 54.2135 17.6282 54.2135 17.2149C54.2135 16.7883 54.1731 16.555 54.0584 16.2483C53.9708 16.0217 53.782 15.7217 53.6202 15.5483C53.4584 15.375 53.182 15.1817 52.973 15.095C52.7775 15.0084 52.3662 14.9084 52.0696 14.875C51.7729 14.8417 50.8426 14.815 49.9998 14.815H48.4627V19.5482ZM64.7106 15.955C66.5579 15.955 66.7804 15.9617 66.9152 16.0683C66.9894 16.1283 67.0905 16.2483 67.131 16.335C67.1849 16.4416 67.2051 17.7016 67.2051 20.6014C67.2119 24.008 67.2254 24.7879 67.3063 25.1346C67.3669 25.3612 67.4546 25.6412 67.5085 25.7479C67.5692 25.8612 67.7108 26.0612 67.8321 26.1945C67.9535 26.3278 68.1895 26.5012 68.3513 26.5812C68.5198 26.6678 68.7625 26.7545 68.8906 26.7812C69.0255 26.8078 69.3558 26.8278 69.6322 26.8278C69.9221 26.8278 70.2862 26.7745 70.475 26.7145C70.6637 26.6478 70.9402 26.5145 71.102 26.4078C71.257 26.3012 71.493 26.0612 71.6211 25.8679C71.7492 25.6745 71.8975 25.3346 71.9582 25.1146C72.0458 24.7746 72.0593 24.1013 72.0593 20.6348C72.0593 17.1483 72.0795 16.515 72.1604 16.315C72.2211 16.1883 72.3222 16.055 72.3964 16.015C72.4773 15.975 73.3403 15.9483 74.5538 15.9483C76.3741 15.9483 76.5966 15.9617 76.7517 16.0683C76.8461 16.1283 76.9539 16.275 76.9876 16.3816C77.0281 16.5083 77.0551 19.0682 77.0551 23.1347C77.0483 28.8077 77.0348 29.7144 76.9472 29.9144C76.8932 30.0477 76.7584 30.1943 76.6438 30.2477C76.482 30.3277 76.1112 30.3477 74.6752 30.3477C73.0234 30.3477 72.8886 30.341 72.6863 30.2143C72.565 30.141 72.4369 30.0077 72.3964 29.9144C72.3627 29.8277 72.329 29.5077 72.329 28.6811L71.9784 29.0544C71.7829 29.261 71.3986 29.5744 71.1154 29.7544C70.8188 29.9477 70.3671 30.161 70.003 30.2743C69.6727 30.3877 69.0794 30.5077 68.6884 30.5543C68.2906 30.601 67.704 30.6143 67.34 30.5943C66.9692 30.5677 66.4433 30.481 66.0927 30.381C65.7624 30.2877 65.277 30.101 65.014 29.9677C64.6837 29.7944 64.3668 29.5477 63.9353 29.1211C63.4499 28.6411 63.2611 28.3944 63.0117 27.9144C62.8364 27.5878 62.6207 27.0345 62.5263 26.6812C62.4319 26.3345 62.324 25.7812 62.2903 25.4479C62.2499 25.1079 62.2161 23.068 62.2161 20.6681C62.2161 16.9083 62.2296 16.4616 62.3308 16.2883C62.3914 16.1816 62.4858 16.0616 62.5465 16.0217C62.6139 15.9817 63.4297 15.955 64.7106 15.955ZM98.2313 15.9483H102.196L102.6 16.3483V29.881L102.209 30.3143L100.436 30.3343C99.4584 30.3477 98.5617 30.341 98.4403 30.321C98.319 30.301 98.1437 30.201 97.8808 29.9144L97.8673 16.3616L98.2313 15.9483Z" fill="white"/>
<path d="M16.1484 2V2.06634H16.3478C16.2648 2.02091 16.2449 2.01667 16.1484 2Z" fill="#9AF4D2"/>
<path d="M16.398 2.02165C16.3681 2.05147 16.439 2.04773 16.4427 2.04401C16.4726 2.01421 16.4016 2.01792 16.398 2.02165Z" fill="#54ECB3"/>
<path d="M16.4875 2.02803C14.8171 2.25226 13.3017 3.4142 11.873 4.2417C9.32347 5.71845 6.75016 7.15962 4.18233 8.60524C2.7058 9.43652 0.990262 10.1197 0.295283 11.7611C-0.142525 12.7951 0.0360397 14.0966 0.0360397 15.1907V21.852V26.5347C0.0360397 27.5781 -0.0159361 28.6979 0.535233 29.6346C1.11869 30.6261 2.15262 31.1022 3.11232 31.6659L8.32863 34.675L13.2774 37.5358C14.6241 38.3284 15.8522 39.1451 17.4906 38.9143C18.9262 38.712 20.3382 37.5565 21.57 36.8515L29.662 32.2253C31.083 31.4264 32.7707 30.745 33.4514 29.1729C33.9119 28.1091 33.7414 26.805 33.7414 25.6774V19.016V14.4652C33.7414 13.3087 33.7992 12.1977 33.1761 11.1675C32.576 10.1753 31.5098 9.71439 30.5314 9.16117L25.3819 6.25919L19.7644 3.10267C18.7521 2.53513 17.7119 1.86365 16.4875 2.02803Z" fill="#04E38F"/>
<path d="M17.1562 2V2.06634H17.3556C17.2727 2.02091 17.2527 2.01667 17.1562 2Z" fill="#65EDBA"/>
<path d="M17.398 2.02165C17.3681 2.05147 17.439 2.04773 17.4427 2.04401C17.4726 2.01421 17.4016 2.01792 17.398 2.02165Z" fill="#D8FBEE"/>
<path d="M15.9293 2.08804C15.8996 2.11738 15.9702 2.1137 15.9739 2.11004C16.0036 2.08071 15.933 2.08437 15.9293 2.08804ZM17.5568 2.06604V2.13204H17.7574C17.6739 2.08684 17.6539 2.08262 17.5568 2.06604ZM15.6172 2.13204V2.19803H15.8178C15.7344 2.15284 15.7143 2.14862 15.6172 2.13204Z" fill="#77F0C2"/>
<path d="M8.99506 6.41884C8.73384 6.86052 7.9102 7.56107 7.39004 7.67196C7.27521 7.88157 7.03399 7.96676 6.98879 8.19959C6.64926 8.28713 6.34109 8.53039 6.05253 8.72722L6.1194 8.85913C5.96766 8.92891 5.92419 8.9605 5.91877 9.12294C5.45506 9.24839 5.16127 9.69232 4.71501 9.84843C4.6723 10.0088 4.5994 10.1471 4.58126 10.3101C4.04028 10.5274 3.90497 10.9976 3.57812 11.4313C3.9311 11.6799 4.32203 11.9097 4.71501 12.0909C4.79569 11.9559 4.86534 11.866 4.98251 11.7611C5.25998 10.6876 6.7281 10.1884 7.18941 9.25485C7.58692 9.19727 8.25842 8.60402 8.46005 8.26555L8.5938 8.3315C9.24778 7.64659 10.4132 7.229 11.2802 6.87319C13.9269 5.78697 16.6169 5.49693 19.439 5.96215C20.4943 6.13613 21.6801 6.86011 22.7046 6.88052C22.9385 7.18804 24.0625 7.72905 24.4433 7.73792C24.7067 8.14597 25.2833 8.40428 25.6755 8.6889C26.2588 9.11226 26.6327 9.62023 27.319 9.91439L27.2521 10.0463C27.8858 10.5063 28.6696 11.3757 28.9909 12.0909C29.3697 11.9345 29.719 11.7204 30.0609 11.4973V11.3654L29.7934 11.2994C29.7905 11.1619 29.7546 11.0399 29.7265 10.9037C29.5502 10.8809 29.5486 10.8104 29.5259 10.6399C29.2485 10.557 29.0453 10.3296 28.9909 10.0463C28.7563 10.0077 27.9757 9.10467 27.9878 9.05699H27.7871L27.854 8.92508C27.6312 8.80749 27.5228 8.7042 27.4528 8.46341C27.0333 8.30658 26.6248 7.99002 26.3159 7.67196L26.1821 7.73792L25.9815 7.40815C25.761 7.45163 25.637 7.17944 25.4465 7.01243C25.0724 6.68451 23.5254 6.08286 23.574 5.89121C23.3168 5.86599 23.0942 5.77579 22.8383 5.82526C22.6389 5.58208 22.2748 5.65219 22.0358 5.42954C21.8968 5.4319 21.8836 5.4332 21.7683 5.36358C21.0607 5.39817 20.2045 5.05613 19.4945 4.92425C19.224 4.874 18.9145 4.92997 18.692 4.77C17.959 4.85037 17.1653 4.62676 16.4183 4.65494C15.1726 4.70194 13.8697 4.91898 12.6609 5.21839C11.8754 5.41296 11.0938 5.72133 10.3326 5.99447C9.88899 6.15362 9.48459 6.42408 8.99506 6.41884Z" fill="#16E597"/>
<path d="M8.59363 8.33167L8.45988 8.26572C8.17506 8.58225 7.60708 9.14323 7.18924 9.25502C6.62073 10.0167 5.13462 10.7607 4.98235 11.7613C4.83025 11.8537 4.78258 11.9271 4.71484 12.091C4.90985 12.2179 5.10219 12.3296 5.31673 12.4208C8.51064 8.69771 13.1972 6.06181 18.2916 6.62736C18.7432 6.67749 19.1246 6.8953 19.5612 6.9869C20.9454 7.27729 22.1881 7.68328 23.5069 8.21671C25.0031 8.82191 26.1361 10.2732 27.273 11.3085C27.5564 11.5666 28.111 12.5024 28.5226 12.3837C29.5911 12.0759 27.752 10.2867 27.252 10.0465L27.3188 9.91456C26.3697 9.32309 25.2261 8.5412 24.4432 7.73809C24.006 7.69514 23.0404 7.17311 22.7044 6.88069C21.9051 6.80548 21.1013 6.26422 20.2969 6.1067C17.2027 5.50079 14.2109 5.60987 11.28 6.84151C10.5107 7.16479 9.05006 7.60966 8.59363 8.33167Z" fill="#28E79F"/>
<path d="M5.32031 12.4866L5.98907 12.8163C6.63689 11.9407 7.36798 10.9273 8.20727 10.2233C9.19268 9.39664 10.2891 8.88748 11.4669 8.39912C15.3594 6.78511 19.4769 6.68638 23.2544 8.69173C24.6028 9.40759 25.6814 10.107 26.7456 11.2156C27.1873 11.6757 27.6856 12.1228 27.8574 12.7504C28.0294 12.6768 28.1727 12.5939 28.3256 12.4866C23.9908 6.00101 14.1112 4.70025 8.15899 9.70807C7.34297 10.3946 6.56748 11 5.87465 11.8268C5.67683 12.0629 5.42792 12.1904 5.32031 12.4866Z" fill="#38E9A7"/>
<path d="M5.98828 12.6847C6.02928 12.7943 6.05803 12.8485 6.12203 12.9485H6.18891C6.46785 12.626 6.65196 12.2114 6.94287 11.9071C7.74912 11.0637 8.79104 10.3957 9.79418 9.8232C12.2443 8.42495 14.9197 7.39697 17.8253 7.68349C19.5902 7.85753 21.1148 8.3917 22.7072 9.11268C22.9192 9.20871 23.1622 9.16122 23.3699 9.26595C24.0598 9.61393 24.7368 10.2735 25.3102 10.7702C26.069 11.4275 27.0841 12.0018 27.5223 12.9485C28.3616 12.4799 26.766 11.1373 26.3784 10.7611C24.7163 9.14796 22.4208 8.01405 20.1659 7.46767C16.1474 6.49395 11.4241 7.63647 8.20648 10.1744C7.3379 10.8595 6.81627 11.9678 5.98828 12.6847Z" fill="#47EBAD"/>
<path d="M6.1875 12.9482C6.38251 13.075 6.57484 13.1868 6.78938 13.278C7.40524 12.0974 8.38831 11.323 9.43605 10.5357C12.2851 8.39481 15.9653 7.75629 19.4289 8.43277C20.0581 8.55565 20.7677 8.6041 21.3683 8.84107C21.9016 9.05146 22.3966 9.40827 22.9074 9.67261C24.2904 10.3882 25.6979 11.2976 26.624 12.5589C26.7948 12.7915 27.0529 12.8815 27.1865 13.1461C27.8102 12.7976 27.0699 12.2228 26.7477 11.9177C25.9641 11.1755 25.1438 10.5484 24.2734 9.93115C23.9833 9.72538 23.6997 9.36843 23.3685 9.23752C20.471 8.09249 17.3918 7.18888 14.2126 7.89954C12.5917 8.26186 11.1594 9.02772 9.7293 9.82286C8.32806 10.6018 7.04331 11.5807 6.1875 12.9482Z" fill="#54ECB3"/>
<path d="M6.78906 13.344C7.302 13.512 7.42177 13.1346 7.74893 12.8167C8.36051 12.2225 8.97824 11.6451 9.62366 11.0905C9.86147 10.8861 10.2988 10.6639 10.4004 10.3761C11.3621 10.2401 12.2018 9.35418 13.1423 9.11668C15.3066 8.5701 17.783 8.34724 19.9636 8.9568C21.2339 9.3119 22.4087 10.0039 23.508 10.704C24.5049 11.339 25.2958 12.104 26.1275 12.9424C26.3579 13.1747 26.7854 13.5622 27.075 13.1772C27.2117 12.9955 26.3949 12.1257 26.2102 11.9461C25.1087 10.8749 23.7102 9.913 22.3016 9.27859C18.2823 7.46817 12.985 7.73972 9.43574 10.4985C8.49152 11.2323 7.07562 12.0975 6.78906 13.344Z" fill="#65EDBA"/>
<path d="M10.4053 10.3762C10.2092 10.7112 9.6659 11.0131 9.35005 11.2642C8.61301 11.85 7.58018 12.6744 7.19531 13.542C7.37039 13.6466 7.53812 13.7369 7.73032 13.8058C8.18842 12.779 9.23061 11.9379 10.1095 11.2621C13.5416 8.62298 18.566 8.64099 22.3092 10.5379C23.5611 11.1722 25.4598 12.4512 25.9874 13.8058C26.2239 13.7204 26.434 13.5925 26.6561 13.476C26.3057 12.7667 25.4034 12.1564 24.8144 11.6323C21.4979 8.68135 17.3743 8.18582 13.1473 9.10134C12.1803 9.31074 11.3637 10.1382 10.4053 10.3762Z" fill="#77F0C2"/>
<path d="M7.72656 13.8716C8.27902 14.0296 8.76093 13.1694 9.13088 12.8189C10.2278 11.7799 11.5628 10.9144 12.9542 10.3045C13.2437 10.1776 13.5806 10.2247 13.8791 10.1329C18.0842 8.84011 23.0845 10.317 25.6493 14.0035L25.9836 13.8716C25.9034 13.3716 25.554 13.0949 25.2287 12.7342C24.4025 11.8183 23.3947 11.0808 22.3055 10.5027C18.6896 8.58373 13.4088 8.62491 10.1057 11.2241C9.27554 11.8773 7.96798 12.7856 7.72656 13.8716Z" fill="#88F2CA"/>
<path d="M8.0625 14.0696L8.39688 14.2015C9.34344 12.7384 10.8752 11.9672 12.398 11.2656C13.8934 10.5767 15.1727 9.90894 16.8901 9.98307C17.6215 10.0147 18.4538 10.0375 19.1639 10.2166C19.837 10.3864 20.5435 10.7406 21.237 10.7719V11.0358C21.7332 11.0622 22.0986 11.3763 22.5077 11.6251C23.2693 12.0884 24.1801 12.5237 24.8169 13.1575C25.1252 13.4644 25.273 13.8204 25.6508 14.0696C25.2752 12.9164 23.7497 12.0148 22.7865 11.3714C19.0878 8.90051 14.3826 9.14117 10.7185 11.5201C9.78167 12.1283 8.49418 13.0127 8.0625 14.0696Z" fill="#9AF4D2"/>
<path d="M8.92842 14.5314C9.06886 14.1835 9.37588 13.973 9.63389 13.7086C10.2334 13.0942 10.9903 12.222 11.8709 12.0252C12.2465 11.4131 13.3074 11.2593 13.9431 11.0543C15.8885 10.4271 17.6136 10.411 19.5617 10.9808C20.1762 11.1605 20.9985 11.1653 21.4342 11.6954C21.8778 11.6842 22.1806 12.1278 22.5232 12.3598C23.401 12.9541 24.4031 13.4597 24.9786 14.3995C25.1877 14.3032 25.3835 14.1886 25.5805 14.0697C24.7686 13.0061 23.7927 12.343 22.6379 11.6655C22.1761 11.3946 21.7922 11.0491 21.2335 11.0359V10.7721C20.3921 10.6992 19.6083 10.2347 18.7591 10.1314C17.4776 9.9756 16.0831 9.84277 14.8161 10.1533C13.7986 10.4027 12.6868 11.0024 11.7432 11.4596C10.7736 11.9295 9.86983 12.543 9.11935 13.3063C8.66459 13.7689 8.1778 14.1338 8.92842 14.5314Z" fill="#A9F5D8"/>
<path d="M11.8767 12.0249C10.9347 12.1459 10.1748 13.1502 9.53602 13.7575C9.42835 13.8598 8.72214 14.4315 9.08923 14.5644C9.3376 14.6543 9.67853 13.9821 9.86512 13.8446C10.7418 13.1989 11.6086 12.472 12.6124 12.0268C14.961 10.985 17.7007 10.5658 20.1633 11.5877C20.9009 11.8938 21.4756 12.3287 22.1345 12.7652C22.9065 13.2766 23.9978 13.8426 24.3825 14.729C24.597 14.6378 24.7894 14.5261 24.9844 14.3993C24.5767 13.4061 23.3457 12.9004 22.529 12.3188C22.1859 12.0744 21.8936 11.6595 21.44 11.6952C21.1871 11.1643 20.213 11.1292 19.7012 11.0033C19.1459 10.8666 18.5916 10.597 18.0293 10.5251C16.6753 10.352 15.214 10.6156 13.9496 11.0344C13.4095 11.2133 12.0607 11.402 11.8767 12.0249Z" fill="#B7F7DF"/>
<path d="M9.20312 14.6633C9.35279 14.7588 9.53436 14.9081 9.72583 14.8471C10.2523 14.6795 10.782 13.9823 11.181 13.6251C11.6154 13.2363 12.2413 12.9292 12.7501 12.6457C15.6473 11.0316 19.3889 11.2727 22.0068 13.2841C22.5648 13.7127 23.7628 14.3029 23.8489 15.059C24.6352 14.649 24.1515 14.243 23.6282 13.7699C22.8832 13.0965 21.7606 12.2653 20.8369 11.8509C17.6037 10.4004 13.8979 10.8718 11.1111 12.9727C10.3568 13.5413 9.70182 13.815 9.20312 14.6633Z" fill="#C6F9E6"/>
<path d="M9.73438 14.993C10.3615 15.3501 10.4604 14.9132 10.9478 14.5837C11.8196 13.9942 12.6596 13.4321 13.6322 12.9995C16.0749 11.9133 19.4151 12.3147 21.574 13.7806C22.1779 14.1907 22.9007 14.7337 23.2433 15.3887C23.4761 15.2813 23.8817 15.1221 23.8122 14.8011C23.7614 14.566 23.4169 14.377 23.2603 14.2023C22.6396 13.5099 21.5859 12.8554 20.7574 12.4288C17.9985 11.0078 14.8581 11.4784 12.2696 12.9321C11.5578 13.3319 11.0466 13.7575 10.4289 14.2817C10.1481 14.52 9.87802 14.6364 9.73438 14.993Z" fill="#D8FBEE"/>
<path d="M33.6094 12.157V12.3537H33.6758C33.6591 12.2585 33.6549 12.2388 33.6094 12.157Z" fill="#88F2CA"/>
<path d="M0.123576 12.2672C0.119855 12.2709 0.116115 12.3417 0.145968 12.3119C0.149702 12.3082 0.153423 12.2374 0.123576 12.2672Z" fill="#47EBAD"/>
<path d="M10.2656 15.3227C10.5498 15.4161 11.5045 16.245 11.8038 16.0482C12.2008 15.7871 12.6255 14.8987 13.0075 14.9929L13.0744 14.795C13.3265 14.8008 13.7106 14.6602 13.7432 14.3993C14.3465 14.4791 14.9585 14.1384 15.5297 13.998C16.0032 13.8816 16.4789 13.9328 16.9594 13.9306C17.2784 13.9291 17.5992 13.8458 17.8895 14.0036C18.9016 13.9202 20.1351 14.5138 20.9206 15.0859C21.2031 15.2917 21.6034 15.4932 21.7014 15.8503C21.844 15.9265 21.8874 15.9744 21.9689 16.1141C22.2505 15.9844 23.1222 15.6566 23.1712 15.3217C23.2029 15.1043 22.8913 14.8272 22.7513 14.692C22.274 14.2313 21.6396 13.6313 21.03 13.3528C18.2459 12.0808 15.008 12.062 12.3388 13.6278C11.6428 14.036 10.5869 14.5386 10.2656 15.3227Z" fill="#EAFDF6"/>
<path d="M0.057173 12.465C0.0534455 12.4686 0.0497113 12.5395 0.0795648 12.5096C0.0832991 12.5059 0.0870198 12.4351 0.057173 12.465Z" fill="#A9F5D8"/>
<path d="M33.6978 12.5306C33.6941 12.5343 33.6903 12.6051 33.7202 12.5753C33.7239 12.5716 33.7277 12.5008 33.6978 12.5306Z" fill="#88F2CA"/>
<path d="M0.057173 12.5967C0.0534455 12.6004 0.0497113 12.6712 0.0795648 12.6413C0.0832991 12.6376 0.0870198 12.5668 0.057173 12.5967Z" fill="#77F0C2"/>
<path d="M33.6978 12.6627C33.6941 12.6664 33.6903 12.7372 33.7202 12.7074C33.7239 12.7037 33.7277 12.6329 33.6978 12.6627Z" fill="#65EDBA"/>
<path d="M0.057173 12.7289C0.0534455 12.7326 0.0497113 12.8034 0.0795648 12.7735C0.0832991 12.7699 0.0870198 12.699 0.057173 12.7289Z" fill="#47EBAD"/>
<path d="M13.745 14.3992C13.7161 14.6173 13.2947 14.7982 13.0763 14.7949C13.0103 14.8924 13.0094 14.8742 13.0094 14.9927C12.5344 15.0207 11.9564 15.7662 11.6719 16.114C13.4741 17.1751 15.5344 18.8989 17.7576 18.3643C18.9267 18.0832 20.0042 17.2584 21.0345 16.6688C21.2346 16.5542 22.3569 16.0314 21.7032 15.8501C21.649 15.4853 21.2643 15.2837 20.9799 15.0857C20.2483 14.5766 18.8324 13.7647 17.8913 14.0034C17.6617 13.7618 17.1959 13.9243 16.8905 13.9164C15.777 13.8879 14.8275 14.3839 13.745 14.3992Z" fill="white"/>
<path d="M2.17825 14.0696C2.17825 14.1881 2.1792 14.1699 2.24512 14.2674C2.0527 14.3997 2.00544 14.6275 1.84387 14.7951C1.8433 15.1328 1.65146 15.3434 1.54762 15.6522C1.23657 16.5773 0.697565 17.9377 0.974484 18.9502C0.851459 19.0226 0.871335 19.0049 0.907608 19.148C0.773462 19.2223 0.773462 19.2715 0.907608 19.3459C0.714531 20.0185 0.682197 21.4495 1.04136 22.05C0.856408 22.1491 0.943032 22.2924 1.04136 22.4457C0.864313 22.6481 1.05635 23.06 1.09693 23.3032C1.18043 23.8034 1.10188 24.3147 1.2811 24.8072C1.41112 25.1644 1.70082 25.4893 1.50949 25.8753C1.73382 26.0069 2.34396 26.7747 2.17825 26.9965C2.50942 27.2817 2.93955 28.0724 2.98076 28.5134C3.38922 28.9391 4.31827 29.9752 4.38514 30.558C4.87873 30.85 5.44907 31.6253 5.78953 32.009C5.95305 32.1933 6.24282 32.2655 6.19079 32.4707C6.31096 32.4707 6.29251 32.4697 6.39142 32.4047C6.93505 33.454 8.51278 33.7614 9.33395 34.5152C9.45412 34.5152 9.43567 34.5143 9.53457 34.4493C9.53457 34.5678 9.53551 34.5496 9.60145 34.6471C9.81452 34.6745 9.92847 34.7531 10.0696 34.9109C10.468 34.9959 10.8088 35.3311 11.2125 35.4643C12.4057 35.8581 14.0302 36.2036 15.2859 36.23L15.3528 33.5919H15.2859V35.1748C14.6071 35.1729 13.2106 35.0146 12.6777 34.5812C12.0448 34.5909 11.3706 34.1774 10.8052 33.9309C8.96325 33.1276 7.48871 31.9981 6.07101 30.6061C5.61793 30.1612 5.27165 29.5033 4.71952 29.173C4.67759 28.7086 3.97145 27.6047 3.58264 27.3263C3.55042 26.9325 3.2593 26.571 3.1094 26.2051C2.71929 25.2527 2.31927 24.2414 2.12871 23.2312C1.95015 22.2847 1.84584 21.2451 1.88288 20.2807C1.90439 19.7206 2.12486 18.9514 1.97762 18.4225C2.1626 18.3227 2.23969 17.5642 2.17825 17.3673C2.5341 17.0653 2.55652 16.1603 2.67383 15.721C2.73889 15.4774 2.90161 15.3164 2.91388 15.0589C3.07661 14.9239 3.08757 14.7354 3.11451 14.5313C2.8054 14.3707 2.51212 14.1738 2.17825 14.0696Z" fill="#16E597"/>
<path d="M30.2615 14.729C31.4755 17.4716 31.8119 20.0643 31.383 23.0392C31.2794 23.7581 31.3027 25.0444 30.7965 25.6114C30.704 26.5143 29.7881 27.2621 29.7265 28.1176C29.5995 28.1879 29.504 28.2861 29.3922 28.3814C29.3432 28.6861 29.0694 28.8637 29.0578 29.1729C28.8041 29.2552 28.6652 29.4761 28.4559 29.6345C28.4651 29.8901 28.1731 29.9718 28.01 30.1292L26.9178 31.3383C25.3411 32.8682 23.2453 33.9416 21.1664 34.6251C20.4817 34.8502 19.7867 34.9732 19.0933 35.1417C18.8625 35.1977 18.4357 35.2736 18.3577 35.0427H18.2908C18.2908 35.3387 18.1538 36.0793 18.3595 36.3102C18.5338 36.5057 18.9104 36.2621 19.0933 36.1946C19.6048 36.0056 20.4905 35.8181 21.0327 35.8342C21.2549 35.6572 21.5084 35.6948 21.7683 35.5999L23.6419 34.862C24.3322 34.6177 24.9869 34.5082 25.3796 33.7896C25.6653 33.7836 25.8455 33.5942 26.1152 33.5258C26.1423 33.3206 26.3833 33.2165 26.5834 33.196C26.8289 32.9089 27.1823 32.4701 27.5865 32.4706C27.6081 32.3365 27.6093 32.2739 27.5865 32.1408C28.0708 32.0103 28.2699 31.4613 28.7234 31.3493C28.9516 30.871 29.7021 30.7248 29.7265 30.1622L29.9272 30.0962C29.983 29.8972 30.119 29.7835 30.1278 29.5686C30.383 29.4282 30.4487 29.1617 30.6628 28.975C30.6665 28.7893 30.7004 28.6302 30.6628 28.4474L31.0641 28.2495C31.0291 27.8597 31.1426 27.5918 31.5322 27.4581C31.5474 27.3182 31.5423 27.3334 31.6659 27.2602L31.5322 27.0624C32.0963 26.9051 32.2312 25.545 32.1341 25.0837H32.2678C32.3674 24.5235 32.8647 24.1335 32.5353 23.5668C32.6972 23.4145 32.6899 23.1855 32.6691 22.9732C33.1177 22.8438 33.0281 21.4209 33.1372 20.9946H33.0034C33.1078 20.6443 33.0875 20.2398 33.1372 19.8734C33.0125 19.7429 33.0509 19.5855 33.0703 19.4117C32.6112 18.9278 33.2649 17.5346 32.5353 17.1693C32.6013 17.0718 32.6022 17.09 32.6022 16.9714C32.4366 16.7959 32.4504 16.6101 32.4684 16.3779L32.4016 16.3119L32.2678 16.3779C32.3832 16.0366 32.1599 15.7481 32.2009 15.5864C31.9527 15.4279 31.9242 15.0732 31.9334 14.795C31.6881 14.6498 31.7921 14.5033 31.5991 14.4652C31.665 14.3677 31.6659 14.3859 31.6659 14.2673C31.1806 14.0321 30.7004 14.5425 30.2615 14.729Z" fill="#16E597"/>
<path d="M3.11131 14.5969C3.0627 14.7749 3.02614 14.9149 2.91068 15.0586C2.88114 15.2855 2.73045 15.4412 2.67063 15.6581C2.52865 16.1728 2.50719 16.9413 2.17505 17.367C2.19932 17.5704 2.14107 18.3141 1.97442 18.4222C2.08203 18.9735 1.88041 19.6696 1.85878 20.24C1.82075 21.2427 1.93639 22.3093 2.12551 23.2916C2.32199 24.3121 2.71167 25.3076 3.1062 26.2707C3.24891 26.6191 3.51151 26.9566 3.57944 27.326C3.95452 27.7317 4.61191 28.6374 4.71633 29.1727C5.54324 29.9067 6.19889 30.8314 7.0101 31.5883C8.01617 32.527 9.22575 33.2269 10.4679 33.8087C11.1016 34.1055 11.9566 34.6276 12.6745 34.5809C13.0572 35.0496 14.6942 35.1741 15.2827 35.1745C15.2827 34.9324 15.3896 34.3648 15.1755 34.197C14.987 34.0494 14.5778 34.0813 14.3464 34.0345C13.6198 33.887 12.848 33.746 12.1395 33.5587C11.3359 33.3463 10.7114 32.7951 10.0021 32.4018C6.10935 30.2428 3.27514 26.3978 2.82652 21.9558C2.67577 20.463 2.6709 18.8207 3.12292 17.3672C3.27442 16.88 3.5764 16.3304 3.79049 15.8526C3.87134 15.6722 4.08624 15.4683 4.07461 15.2624C4.05594 14.9319 3.37547 14.6918 3.11131 14.5969Z" fill="#28E79F"/>
<path d="M30.0594 14.8609C30.1697 15.419 30.5223 15.8517 30.7116 16.3804C31.1769 17.6808 31.6109 19.6202 31.1963 20.9946C31.3652 21.2947 31.2449 21.6584 31.2073 21.9838C31.1074 22.8498 30.8748 23.7412 30.5765 24.5571C30.2267 25.5137 29.9244 26.6868 29.3158 27.5102C28.9923 27.9478 28.5522 28.2855 28.189 28.6785C27.4698 29.4564 26.8574 30.3686 26.0303 31.0379C25.2042 31.7062 24.2161 32.1763 23.3435 32.7814C22.2451 33.543 20.9473 33.7126 19.6937 33.9799C19.3181 34.06 18.6209 34.4546 18.3562 34.0534H18.2893C18.2893 34.4546 18.2817 34.8448 18.3562 35.2406C21.3058 34.8558 23.7636 33.6814 26.178 32.037C26.8863 31.5546 27.4522 30.8898 27.9893 30.2393C28.1653 30.026 28.4211 29.9246 28.4544 29.6345C28.6907 29.5156 28.8252 29.2972 29.0563 29.1728C29.0923 28.8696 29.3677 28.6971 29.3907 28.3814L29.725 28.1176C29.8646 27.2457 30.7714 26.5479 30.795 25.6113C31.0694 25.4081 31.0249 25.0596 31.0868 24.7539C31.2062 24.1638 31.3149 23.6346 31.3944 23.0391C31.7711 20.2198 31.6809 17.3724 30.3269 14.7949L30.0594 14.8609Z" fill="#28E79F"/>
<path d="M29.2606 15.3228V15.3888C29.8393 15.7061 29.9686 16.8921 30.1142 17.4993C30.5113 19.1555 30.5722 20.8469 30.2663 22.5118C30.1578 23.103 30.0234 24.0858 29.6618 24.5564C29.6228 24.9672 29.3043 25.4056 29.1206 25.7715C28.762 26.4863 28.4533 27.129 27.9898 27.794C26.233 30.3151 23.776 32.1449 20.8342 33.1617C19.9855 33.455 19.2874 33.771 18.3598 33.7899V33.4601H18.293C18.2932 33.7306 18.3098 33.9854 18.3598 34.2515C18.9147 34.2515 19.3613 34.0203 19.898 33.9493C22.0813 33.6601 24.4127 32.4934 26.097 31.0528C26.9044 30.3623 27.4964 29.4324 28.224 28.6657C28.9829 27.866 29.6646 27.1865 30.0278 26.0733C30.4504 24.7778 31.1076 23.5482 31.2 22.182C31.2184 21.9097 31.4885 21.1441 31.2 20.9949C31.3807 20.5253 31.283 19.9713 31.2693 19.4779C31.2396 18.4166 31.0844 17.3231 30.7153 16.3181C30.5384 15.8368 30.2354 15.4111 30.0631 14.9271C29.7805 15.0286 29.5264 15.1848 29.2606 15.3228Z" fill="#38E9A7"/>
<path d="M4.11531 15.1907C3.51884 16.7133 2.81376 17.9823 2.72728 19.6755C2.65668 21.0579 2.67206 22.763 3.09938 24.0883C3.23264 24.5016 3.54143 24.8702 3.70173 25.2818C3.91602 25.8321 3.91992 26.4076 4.25355 26.9245C5.14741 28.3093 6.27419 29.3112 7.38239 30.484C7.52216 30.632 7.5332 30.8452 7.68093 30.9869C7.92362 31.2195 8.30735 31.3298 8.58462 31.5248C9.47426 32.1501 10.4515 32.9058 11.4716 33.3343C12.6375 33.8239 14.0361 33.9568 15.2836 34.1853L15.3504 31.4153H15.2836V33.5258C12.3141 32.9579 9.44504 31.8266 7.21955 29.7193C3.71084 26.397 2.57513 20.8076 4.00489 16.312C4.12067 15.9479 4.37319 15.6737 4.51657 15.3226L4.11531 15.1907Z" fill="#38E9A7"/>
<path d="M4.44705 15.3885C3.12981 18.7304 2.99965 22.5588 4.50954 25.9386C6.36311 30.0876 10.8121 32.9567 15.2809 33.5258C14.7807 32.8777 13.1401 32.9243 12.4053 32.5813C10.186 31.5455 7.97387 30.3367 6.46837 28.3475C6.27396 28.0906 6.22133 27.7432 6.0641 27.464C5.81559 27.0228 5.42939 26.7197 5.31643 26.2049C4.69963 25.8586 4.65363 24.6935 4.42909 24.0944C3.37682 21.2871 3.60739 18.2478 4.71455 15.4545L4.44705 15.3885Z" fill="#47EBAD"/>
<path d="M28.7925 15.5866C30.4045 18.6914 30.0942 22.3432 28.7987 25.4807C28.5591 26.0609 28.3041 26.7956 27.9534 27.3152C27.0676 28.6281 25.6558 29.9703 24.3847 30.9105C23.1334 31.8359 21.8467 32.2511 20.3661 32.6604C19.7232 32.8381 18.9657 33.1509 18.293 32.9984L18.3598 33.7898C19.3132 33.782 20.0295 33.4628 20.9011 33.1616C23.7839 32.1653 26.2909 30.3561 27.9898 27.8566C28.4464 27.185 28.7652 26.5475 29.1206 25.8282C29.3086 25.448 29.6548 24.9857 29.6618 24.5563C29.9949 24.2693 30.1731 23.1596 30.2458 22.7096C30.5301 20.9496 30.5185 19.3233 30.1431 17.5652C29.9829 16.815 29.8359 15.0701 28.7925 15.5866Z" fill="#47EBAD"/>
<path d="M4.65085 15.5204C3.65753 18.2391 3.2847 21.3827 4.40543 24.0944C4.62709 24.6307 4.68521 25.9905 5.31961 26.2049C5.38348 26.7076 5.7234 27.0014 5.99305 27.4033C6.18866 27.6948 6.24015 28.059 6.43463 28.3474C6.64863 28.6647 7.02761 28.9178 7.29772 29.1916C9.37957 31.3013 12.2519 33.0133 15.2841 33.3938V32.9322C13.3119 32.7787 11.6977 31.9584 10.1053 30.878C9.12256 30.2112 8.06285 29.4861 7.28509 28.5968C5.84191 26.9466 4.93148 24.6819 4.48459 22.5774C4.16013 21.0495 4.1949 19.0774 4.56726 17.5649C4.69903 17.0297 5.06976 16.5625 5.19268 16.0488C5.27407 15.7087 4.91524 15.5957 4.65085 15.5204Z" fill="#54ECB3"/>
<path d="M28.4585 15.7843C29.0006 16.7248 29.106 17.7802 29.2783 18.8182C30.0478 23.4534 27.9025 27.5964 24.2512 30.4118C23.0445 31.3423 21.8705 31.8231 20.436 32.2763C19.7211 32.5022 19.0769 32.852 18.2934 32.6685C18.3433 33.301 19.1983 32.9979 19.6311 32.8905C20.9953 32.5523 22.2806 32.1782 23.5097 31.5206C24.6369 30.9174 25.4961 30.0408 26.3593 29.1172C26.8947 28.5443 27.5046 28.0223 27.9538 27.3734C29.0149 25.8406 29.7781 23.4377 29.8602 21.5883C29.9269 20.086 29.9416 18.4114 29.3989 16.9827C29.2246 16.5239 29.1265 15.5236 28.4585 15.7843Z" fill="#54ECB3"/>
<path d="M5.2518 15.8503C5.03565 16.4365 4.68147 16.939 4.55059 17.5651C4.11201 19.6633 4.12798 22.3223 4.86081 24.3609C5.21448 25.3448 5.77904 26.2445 6.31739 27.1284C6.61312 27.614 6.90811 28.2312 7.28415 28.6527C8.05228 29.5139 9.07842 30.2402 10.0475 30.8781C11.6551 31.9364 13.2845 32.8477 15.2832 32.9323V32.2728C13.1656 32.1658 10.7842 30.941 9.1342 29.6894C8.47748 29.1913 7.8122 27.9522 6.99057 27.788C6.89921 26.657 5.85301 25.9103 5.48987 24.8748C4.51915 22.1068 4.2846 18.7292 5.71993 16.0482C5.56431 15.9613 5.42347 15.8991 5.2518 15.8503Z" fill="#65EDBA"/>
<path d="M27.9899 16.0482C28.6342 16.9018 28.6741 17.7979 28.8029 18.8183C29.0783 21.0009 28.8229 23.2507 27.9184 25.2817C27.7035 25.7642 27.3766 26.1542 27.136 26.6077C26.7107 27.4096 26.0719 28.047 25.4855 28.7393C25.1648 29.118 24.747 29.5829 24.2449 29.7006C24.0514 30.1548 23.6177 30.3216 23.1749 30.4921C23.0444 30.9901 22.582 31.0542 22.1718 31.2616C21.3206 31.692 20.5572 31.9708 19.6305 32.2168C19.3 32.3046 18.5853 32.5294 18.3598 32.2069H18.293C18.3063 33.314 19.9869 32.4106 20.567 32.2572C22.8183 31.6621 24.8154 30.3365 26.4028 28.6385C28.7068 26.174 29.797 22.5216 29.386 19.214C29.2937 18.4711 29.1705 17.6966 28.9645 16.9716C28.8575 16.5951 28.6344 16.2361 28.5918 15.8503C28.3651 15.8745 28.193 15.9474 27.9899 16.0482Z" fill="#65EDBA"/>
<path d="M5.65186 16.1138C5.31675 16.638 5.16788 17.36 5.01822 17.9605C4.4514 20.2349 4.70363 22.7506 5.48869 24.9328C5.8553 25.9517 6.84446 26.6872 6.98938 27.7876C7.80165 28.0555 8.40774 29.1607 9.07115 29.689C10.1271 30.53 11.4256 31.1221 12.6735 31.5761C13.5197 31.8839 14.3563 32.251 15.282 32.2724V31.5469C11.0621 31.5465 7.39103 27.9604 5.845 24.2835C5.51611 23.5012 5.38349 22.2343 5.3235 21.3901C5.25308 20.3994 5.26693 19.257 5.51163 18.2902C5.6839 17.6095 6.05339 16.9872 6.18687 16.3116C6.00738 16.2223 5.84935 16.151 5.65186 16.1138ZM27.654 16.2457C28.8179 18.8251 28.7887 22.2144 27.5647 24.754C27.3029 25.2972 26.9917 26.43 26.4502 26.7323C26.3186 27.6759 25.3209 28.5309 24.6121 29.0977C24.0161 29.5742 23.5024 30.1604 22.8292 30.5462C22.2523 30.8769 21.6285 30.9764 21.0446 31.2343C20.1883 31.6126 19.312 32.0744 18.3582 32.0746V31.6788H18.2914C18.292 31.927 18.3123 32.1603 18.3582 32.4043C19.7136 32.2989 20.9845 31.9497 22.1702 31.2967C22.5812 31.0703 23.0941 31.0298 23.1733 30.4917C23.6198 30.3826 24.1187 30.1676 24.2433 29.7002C25.0957 29.5876 25.6026 28.574 26.1402 28.0093C28.2487 25.7945 28.9391 22.6995 28.9245 19.7412C28.9203 18.8605 28.7917 17.7421 28.5096 16.9052C28.3642 16.4737 28.1785 16.0119 27.654 16.2457Z" fill="#77F0C2"/>
<path d="M27.1882 16.5098C27.31 16.7581 27.5357 16.9806 27.6193 17.2389C27.8686 18.0091 27.7406 18.9428 27.7961 19.7415C28.0033 22.7256 27.0403 25.2869 25.0118 27.4891C24.7525 27.7706 24.602 28.1334 24.3283 28.4133C23.2528 29.5133 21.779 30.3201 20.3 30.7223C19.6492 30.8993 19.0565 31.2635 18.3606 31.2834V30.426H18.2937L18.3606 32.0749C19.3549 32.0749 20.2129 31.6189 21.1085 31.2346C21.6963 30.9824 22.3138 30.8846 22.8874 30.5465C23.5377 30.1633 24.0482 29.6219 24.6144 29.1403C25.3271 28.5339 26.3692 27.7316 26.4526 26.7326C26.9321 26.5703 27.3177 25.3974 27.5065 24.9519C28.312 23.0512 28.7107 20.9635 28.4101 18.8841C28.3184 18.2499 28.0456 17.6748 27.929 17.0374C27.8959 16.8564 27.8669 16.4912 27.6856 16.3869C27.531 16.298 27.323 16.4434 27.1882 16.5098ZM6.18923 16.3779C5.28748 18.9101 4.94269 21.6378 5.82596 24.2838C6.00024 24.8059 6.42075 25.2775 6.6906 25.7621C8.43164 28.8892 11.5176 31.5473 15.2843 31.5473V31.1515C13.9377 31.1405 12.7961 30.3813 11.673 29.7569C11.0422 29.4063 10.38 29.3437 9.80179 28.8791C6.80616 26.4719 5.28213 22.1956 5.80055 18.4224C5.89103 17.7637 6.21177 17.0872 6.38986 16.4439L6.32298 16.3779H6.18923Z" fill="#88F2CA"/>
<path d="M6.38896 16.5098C5.8557 17.5078 5.83269 18.5873 5.78447 19.6755C5.63226 23.1074 7.05979 26.6546 9.73636 28.879C10.3066 29.353 10.9754 29.4079 11.6053 29.7569C12.7565 30.3949 13.9066 31.1477 15.2834 31.1515V30.9536C13.9659 30.9268 13.0466 30.2357 11.9336 29.6545C11.6571 29.5101 11.3537 29.4924 11.0826 29.3137C8.38728 27.5364 6.54766 24.2204 6.32811 21.0606C6.22184 19.5325 6.79022 18.2432 6.99084 16.7736C6.79169 16.6707 6.60497 16.5724 6.38896 16.5098Z" fill="#9AF4D2"/>
<path d="M26.7188 16.7735C27.1634 18.3186 27.5361 19.8294 27.3762 21.4562C27.2885 22.3491 26.8274 23.2106 26.7857 24.0943C26.3118 24.258 26.4178 24.9715 25.9832 25.2156C25.949 25.8324 25.4117 26.2786 25.0696 26.7595C24.0478 28.1958 22.1677 30.0012 20.2988 30.1621V30.3599C19.6686 30.3655 18.9747 30.551 18.3594 30.6897V31.2833C19.0829 31.2754 19.6907 30.9057 20.3656 30.7222C22.3684 30.1775 23.7136 29.0642 25.0106 27.5413C26.0132 26.3639 26.9389 25.1869 27.4416 23.6961C27.6574 23.056 27.7041 22.2014 27.8247 21.5222C28.0339 20.344 27.8502 18.8138 27.7028 17.6309C27.63 17.0465 27.3704 16.4525 26.7188 16.7735Z" fill="#9AF4D2"/>
<path d="M6.99477 16.8396C6.59385 18.2461 6.26315 19.5849 6.32862 21.0606C6.48598 24.6049 8.73274 28.0565 11.8741 29.6545C13.0193 30.2372 13.9346 30.9427 15.2874 30.9537V30.3601C12.6426 30.1324 9.80803 28.3681 8.30306 26.204C7.86014 25.5672 7.61491 24.6187 7.34767 23.8966C7.14103 23.3383 6.84611 22.8141 6.78846 22.2006C6.6838 21.0864 6.57265 19.9985 6.74706 18.8842C6.80257 18.5297 6.8007 18.1158 6.89245 17.7742C6.98354 17.435 7.21426 17.2052 7.12852 16.8396H6.99477Z" fill="#A9F5D8"/>
<path d="M26.2512 17.0375C26.3825 17.4081 26.6195 17.708 26.719 18.0927C27.0516 19.3788 27.0411 21.0855 26.7558 22.3796C25.8802 26.3515 22.4728 29.8139 18.3598 30.3601V29.8325H18.293C18.2932 30.1241 18.3229 30.4012 18.3598 30.6899C18.9972 30.5975 19.657 30.3749 20.2992 30.3601V30.1622C22.1616 30.0783 24.0625 28.223 25.07 26.8148C25.433 26.3076 25.9676 25.872 25.9837 25.2157C26.4636 25.0535 26.3543 24.3423 26.7862 24.0945C26.8674 23.206 27.3152 22.3612 27.3821 21.4564C27.5046 19.8014 27.0235 18.4301 26.7862 16.8396L26.2512 17.0375Z" fill="#A9F5D8"/>
<path d="M7.19346 16.9718C6.41021 19.288 6.50257 21.6878 7.34574 23.9629C7.61163 24.6803 7.8554 25.6404 8.30112 26.2687C9.7122 28.2576 11.9971 29.6472 14.3431 30.1137C14.6747 30.1796 14.9347 30.3446 15.2854 30.3604V29.6349C14.3655 29.6348 13.8281 29.3674 13.0056 29.0601C9.989 27.9333 7.879 25.3668 7.40104 22.1821C7.24649 21.1523 7.19975 20.1217 7.35577 19.0823C7.43562 18.5509 7.75535 17.966 7.76351 17.4401C7.76792 17.156 7.4181 17.042 7.19346 16.9718Z" fill="#B7F7DF"/>
<path d="M25.9163 17.2353C26.5829 19.2557 26.7828 21.5332 26.0057 23.5669C25.7215 24.3108 25.3086 24.9827 24.9288 25.6784C24.3971 26.6523 23.4953 28.0607 22.305 28.3155C21.6915 29.4425 19.5046 29.7972 18.3594 30.0303V30.3601C19.3942 30.2767 20.1287 29.9427 21.0345 29.5217C22.2511 28.9564 23.4528 28.2494 24.3494 27.2297C24.5094 27.0478 24.5232 26.7991 24.6606 26.6017C26.415 24.0804 27.4039 21.2726 26.7514 18.1587C26.6691 17.766 26.4434 17.4721 26.3176 17.1034L25.9163 17.2353Z" fill="#B7F7DF"/>
<path d="M7.79668 17.3011C7.49668 18.553 7.19895 19.6884 7.24255 20.9946C7.36199 24.5733 9.54863 27.8248 12.9435 29.0597C13.7928 29.3687 14.3396 29.6345 15.2868 29.6345C15.2085 29.1896 14.521 29.2248 14.1499 29.1043C13.0693 28.7535 12.1452 28.3861 11.2742 27.6345C8.41435 25.1666 7.02313 21.1225 8.19794 17.499L7.79668 17.3011Z" fill="#C6F9E6"/>
<path d="M21.0348 27.9856C20.6052 28.7384 19.1383 28.9949 18.3598 29.2388V27.7218H18.2929C18.2929 28.4816 18.2188 29.2813 18.3598 30.0302C19.3759 29.8953 20.4977 29.5769 21.3882 29.0805C21.7307 28.8896 22.1745 28.7089 22.3054 28.3154C23.482 28.1699 24.4269 26.6753 24.9292 25.7435C25.3054 25.0456 25.7219 24.3767 26.0061 23.6327C26.8107 21.5269 26.4788 19.4118 25.9836 17.3011C25.761 17.3515 25.4714 17.44 25.4134 17.6925C25.3372 18.0238 25.5666 18.4284 25.6355 18.7462C25.7794 19.4111 25.8982 20.1722 25.819 20.8514C25.7332 21.5877 25.7381 22.3167 25.5504 23.0391C25.0485 24.9702 23.1753 27.7051 21.0348 27.9856Z" fill="#C6F9E6"/>
<path d="M8.12987 17.5651C7.30269 21.5067 8.37878 26.0092 12.0753 28.295C13.0216 28.8801 14.1964 29.1684 15.2856 29.3708V28.1176C13.9144 28.0888 13.0032 27.3275 12.0061 26.536C11.7428 26.3271 11.3584 26.2819 11.1301 26.0524C9.08506 23.9971 8.60911 20.8182 9.26676 18.0927C8.8837 17.9161 8.55246 17.6403 8.12987 17.5651Z" fill="#D8FBEE"/>
<path d="M24.0438 24.4241H23.9101C23.857 25.0094 23.2436 25.6195 22.8463 26.0231C21.6182 27.2712 20.0547 28.0825 18.3594 28.5132V29.2387C19.05 29.0829 20.7791 28.7173 21.0344 27.9856C22.1358 27.9128 23.025 27.0648 23.7175 26.2988C25.9926 23.7818 26.0732 20.747 25.3813 17.6309C25.0925 17.7146 24.6633 17.8627 24.6607 18.2161C24.652 19.3876 25.0619 20.4299 24.8911 21.6481C24.7998 22.299 24.6268 22.8832 24.4061 23.5007C24.2961 23.8081 24.0491 24.0989 24.0438 24.4241Z" fill="#D8FBEE"/>
<path d="M24.5793 18.0269C24.1861 18.2556 23.7891 18.496 23.3755 18.6864C23.3634 18.7878 23.3604 18.7942 23.3086 18.8843V18.9502C23.6331 19.5038 23.8743 21.2705 23.3755 21.7862V21.8522L23.5093 21.9181L23.3086 22.1819C23.3121 22.407 23.2562 22.6214 23.3086 22.8415C23.0758 22.9978 22.9244 23.2932 22.9743 23.567L22.7736 23.6989V23.7648H22.9074V23.8308C22.6589 23.9748 22.4986 24.2057 22.5061 24.4903C22.3467 24.5094 22.3465 24.4844 22.3724 24.6222C22.2454 24.6925 22.1499 24.7907 22.038 24.886L22.1049 25.0179C21.7411 25.2327 21.5617 25.5784 21.1017 25.6115C20.5206 26.3664 19.3141 26.8896 18.3598 26.9306V23.6329H18.293L18.3598 28.5135C20.0217 28.2601 21.6846 27.2465 22.8468 26.0782C23.2555 25.6675 23.9011 25.0294 23.9105 24.4244H24.0443C24.0928 23.9143 24.517 23.346 24.6747 22.8415C25.0952 21.496 25.2729 19.3088 24.5793 18.0269Z" fill="#EAFDF6"/>
<path d="M9.20084 18.1586C9.20098 19.43 8.80634 20.8768 9.04596 22.1346C9.30336 23.486 10.0695 25.1774 11.131 26.1001C11.3753 26.3125 11.7422 26.3718 12.007 26.588C12.9873 27.3883 13.932 28.1064 15.2865 28.1176C15.2865 27.7854 15.3156 27.4483 15.2197 27.1283C15.0995 27.1283 15.1179 27.1292 15.019 27.1942L14.9522 26.9964C13.9708 27.0029 12.8616 26.4385 12.2771 25.6773L12.0096 25.7432C11.9011 25.5671 11.7068 25.4939 11.6752 25.2816C11.1159 24.817 11.0476 23.812 10.4715 23.3689C10.531 22.8537 10.1812 22.1223 10.0888 21.59C10.0565 21.4038 10.1104 21.1504 9.93648 21.0605C9.98282 20.8316 9.90886 20.62 10.0034 20.401C9.75123 19.9458 9.92016 19.5441 10.0702 19.0819H9.93648L10.0702 18.5543C9.77691 18.4191 9.5191 18.2305 9.20084 18.1586Z" fill="#EAFDF6"/>
<path d="M15.8628 18.3786C15.833 18.4083 15.9036 18.4045 15.9073 18.4009C15.9371 18.3711 15.8664 18.3749 15.8628 18.3786ZM17.6686 18.3786C17.6388 18.4083 17.7095 18.4045 17.7131 18.4009C17.7429 18.3711 17.6723 18.3749 17.6686 18.3786Z" fill="#77F0C2"/>
<path d="M16.1323 18.4446C16.1024 18.4744 16.1734 18.4707 16.1771 18.467C16.2069 18.4372 16.136 18.4409 16.1323 18.4446Z" fill="#54ECB3"/>
<path d="M16.2188 18.4226V18.489H16.4181C16.3352 18.4435 16.3152 18.4393 16.2188 18.4226Z" fill="#A9F5D8"/>
<path d="M17.2026 18.4446C17.1728 18.4744 17.2437 18.4707 17.2474 18.467C17.2773 18.4372 17.2063 18.4409 17.2026 18.4446Z" fill="#C6F9E6"/>
<path d="M17.2906 18.4226V18.4886H17.4913C17.4078 18.4434 17.3877 18.4392 17.2906 18.4226Z" fill="#77F0C2"/>
<path d="M16.625 18.4885V18.5548H17.0899C16.935 18.4895 16.7939 18.4898 16.625 18.4885Z" fill="#28E79F"/>
<path d="M10.0665 18.6204C10.0047 18.7754 9.96218 18.9182 9.93269 19.0821H10.0665C9.88754 19.4895 9.65974 20.019 9.99957 20.4013C9.86246 20.6145 9.94988 20.8169 9.93269 21.0609C10.099 21.3553 10.0336 21.7114 10.1004 22.0337C10.1923 22.4769 10.4286 22.9148 10.4677 23.3695C10.9126 23.8863 11.0733 24.9505 11.6716 25.2823C11.6836 25.5139 11.8545 25.5788 12.006 25.744L12.2736 25.6781C12.6653 26.4352 14.0934 27.1221 14.9489 26.9973C14.9489 27.1158 14.9498 27.0976 15.0157 27.1952H15.2833C15.2833 25.7016 15.6031 23.7942 15.0673 22.3801C14.5276 20.9556 13.1246 20.3287 11.8723 19.6197C11.2782 19.2833 10.6992 18.8816 10.0665 18.6204Z" fill="white"/>
<path d="M18.3584 26.9314C19.2266 26.9136 20.6816 26.4234 21.1006 25.6122C21.5535 25.6591 21.794 25.2863 22.1038 25.0185L22.0369 24.8866C22.256 24.7913 22.2811 24.5193 22.5051 24.4908C22.5599 24.2195 22.6974 24.0143 22.9064 23.8312C22.8664 23.7524 22.8752 23.7668 22.7726 23.6993L22.9733 23.5674C22.9697 23.2876 23.1119 23.0399 23.3077 22.8418V22.1822C23.4455 22.1089 23.5146 21.9456 23.3746 21.8524V21.7865C23.5969 21.6682 23.5443 21.3515 23.579 21.1269C23.6625 20.586 23.7406 19.3457 23.3077 18.9502V18.8842C23.417 18.8483 23.405 18.8602 23.4415 18.7523C22.8692 18.9152 22.3515 19.3022 21.8363 19.5913C20.497 20.3427 18.9975 21.0159 18.4941 22.578C18.0771 23.8719 18.3584 25.5803 18.3584 26.9314Z" fill="white"/>
<path d="M15.1704 22.6876C15.1667 22.6913 15.163 22.7621 15.1929 22.7323C15.1966 22.7286 15.2003 22.6578 15.1704 22.6876Z" fill="#9AF4D2"/>
<path d="M18.3803 22.8855C18.3766 22.8891 18.3729 22.9588 18.4026 22.9295C18.4063 22.9258 18.4101 22.8561 18.3803 22.8855ZM15.2368 22.9515C15.2332 22.9551 15.2294 23.0248 15.2592 22.9955C15.2629 22.9918 15.2666 22.9221 15.2368 22.9515Z" fill="#88F2CA"/>
<path d="M15.3032 23.2152C15.2996 23.2189 15.2958 23.2897 15.3257 23.2599C15.3294 23.2562 15.3331 23.1854 15.3032 23.2152Z" fill="#38E9A7"/>
<path d="M18.293 23.171V23.3677H18.3594C18.3427 23.2725 18.3385 23.2528 18.293 23.171Z" fill="#65EDBA"/>
<path d="M15.2812 23.3032V23.4999H15.3477C15.331 23.4047 15.3268 23.385 15.2812 23.3032Z" fill="#77F0C2"/>
<path d="M18.293 23.369V23.6306H18.3592C18.3477 23.5204 18.3382 23.4675 18.293 23.369Z" fill="#C6F9E6"/>
<path d="M15.2812 23.501V28.6459H15.3481V25.084C15.3481 24.608 15.4687 23.9415 15.2812 23.501Z" fill="#9AF4D2"/>
<path d="M0.0571715 28.0298C0.053444 28.0335 0.0497166 28.1043 0.0795634 28.0744C0.0832908 28.0708 0.087025 27.9999 0.0571715 28.0298Z" fill="#38E9A7"/>
<path d="M33.6719 28.0516V28.2483H33.7383C33.7216 28.1532 33.7174 28.1335 33.6719 28.0516Z" fill="#54ECB3"/>
<path d="M0.057173 28.1619C0.0534455 28.1655 0.0497113 28.2364 0.0795648 28.2065C0.0832923 28.2028 0.0870265 28.132 0.057173 28.1619Z" fill="#65EDBA"/>
<path d="M0.057173 28.2937C0.0534455 28.2974 0.0497113 28.3682 0.0795648 28.3384C0.0832923 28.3347 0.0870265 28.2639 0.057173 28.2937Z" fill="#9AF4D2"/>
<path d="M33.6978 28.2937C33.6941 28.2974 33.6903 28.3682 33.7202 28.3384C33.7239 28.3347 33.7277 28.2639 33.6978 28.2937Z" fill="#C6F9E6"/>
<path d="M0.101562 28.5135V28.7115H0.168438C0.151639 28.6157 0.147359 28.5959 0.101562 28.5135ZM33.6063 28.5135V28.7115H33.6732C33.6564 28.6157 33.6521 28.5959 33.6063 28.5135ZM15.2823 28.6455V30.0973H15.3492C15.3492 29.6551 15.4564 29.0548 15.2823 28.6455ZM0.190728 28.8215C0.187016 28.8252 0.183298 28.8948 0.213024 28.8655C0.216736 28.8619 0.220454 28.7922 0.190728 28.8215Z" fill="#77F0C2"/>
<path d="M15.2812 30.0962V31.4161H15.3481C15.3481 31.009 15.4416 30.4734 15.2812 30.0962Z" fill="#65EDBA"/>
<path d="M15.937 38.8903C15.9072 38.92 15.9779 38.9163 15.9815 38.9126C16.0113 38.8829 15.9407 38.8866 15.937 38.8903ZM17.5644 38.868V38.9348H17.7651C17.6816 38.8891 17.6615 38.8848 17.5644 38.868Z" fill="#88F2CA"/>
<path d="M16.2188 38.9341V39.0004H16.4181C16.3352 38.955 16.3152 38.9507 16.2188 38.9341Z" fill="#9AF4D2"/>
<path d="M16.4219 38.9341V39.0008H17.0231C16.83 38.9199 16.6307 38.9343 16.4219 38.9341Z" fill="#28E79F"/>
<path d="M17.0195 38.9341V39.0004H17.2189C17.1359 38.955 17.116 38.9507 17.0195 38.9341Z" fill="#54ECB3"/>
<path d="M17.2651 38.9561C17.2353 38.9859 17.3062 38.9822 17.3099 38.9785C17.3398 38.9486 17.2688 38.9524 17.2651 38.9561Z" fill="#9AF4D2"/>
</svg>
