<svg width="134" height="38" viewBox="0 0 134 38" fill="none" xmlns="http://www.w3.org/2000/svg">
<path d="M35.3023 9.70342C35.3023 4.91108 31.3616 1 26.5328 1C24.0352 1 21.7595 2.04658 20.2054 3.69917L0.390635 16.0933C0.00211179 16.3137 -0.108842 16.8646 0.113158 17.2501C0.279681 17.5256 0.557158 17.6357 0.834727 17.6357C1.00116 17.6357 1.1122 17.5806 1.27873 17.5256L18.2073 6.89412C17.8743 7.77548 17.7077 8.71194 17.7077 9.75852C17.7077 11.9619 18.5403 13.945 19.8724 15.4874L6.55153 28.6527C6.21848 28.9833 6.21848 29.479 6.55153 29.8095C6.71805 29.9747 6.94005 30.0298 7.16205 30.0298C7.38414 30.0298 7.60614 29.9747 7.77267 29.8095L21.0935 16.6442C22.592 17.8009 24.4792 18.517 26.4773 18.517C27.6429 18.517 28.7529 18.2967 29.7521 17.9111L19.1509 34.9875C18.9288 35.3731 19.0398 35.8689 19.4284 36.1443C19.5394 36.2544 19.7058 36.2544 19.8724 36.2544C20.1499 36.2544 20.4274 36.0892 20.5939 35.8689L33.3597 15.212C34.5809 13.6696 35.3023 11.7967 35.3023 9.70342ZM22.3145 15.4323L26.1998 11.6314C26.5328 11.3009 26.5328 10.8051 26.1998 10.4746C25.8667 10.1441 25.3673 10.1441 25.0342 10.4746L21.0935 14.3306C20.0389 13.1187 19.3729 11.5212 19.3729 9.75852C19.4284 5.84745 22.592 2.65258 26.5328 2.65258C30.4735 2.65258 33.6373 5.84745 33.6373 9.70342C33.6373 13.6145 30.4181 16.7543 26.5328 16.7543C24.9787 16.8094 23.4801 16.2586 22.3145 15.4323Z" fill="#25B7EB"/>
<path d="M26.5328 3.97462C23.3137 3.97462 20.705 6.56357 20.705 9.75852C20.705 10.1992 21.0935 10.5848 21.5376 10.5848C21.9816 10.5848 22.3701 10.1992 22.3701 9.75852C22.3701 7.50003 24.2017 5.62711 26.5328 5.62711C26.9769 5.62711 27.3654 5.24154 27.3654 4.80086C27.3654 4.36018 26.9769 3.97462 26.5328 3.97462Z" fill="#25B7EB"/>
<path d="M51.9589 23.4683C55.3227 23.4683 57.0046 22.1902 57.0046 19.634C57.0046 17.2604 55.6172 16.0735 52.8423 16.0735H51.1665C49.5636 16.0735 48.7621 15.3736 48.7621 13.9738C48.7621 12.3914 49.9461 11.6002 52.3141 11.6002C53.832 11.6002 55.2437 11.8436 56.5492 12.3305V10.7785C55.2437 10.4134 53.832 10.2308 52.3141 10.2308C48.8228 10.2308 47.0771 11.4784 47.0771 13.9738C47.0771 16.3474 48.4403 17.5342 51.1665 17.5342H52.8423C54.4939 17.5342 55.3196 18.2342 55.3196 19.634C55.3196 21.2773 54.1994 22.0989 51.9589 22.0989C50.3741 22.0989 48.8987 21.8555 47.5325 21.3686V22.9205C48.8987 23.2857 50.3741 23.4683 51.9589 23.4683ZM62.2324 23.377L64.8372 16.2105L67.5786 23.377H69.1178L71.6133 13.7912H69.8282L68.2981 21.3047L65.6387 13.7912H64.1177L61.6313 21.3047L59.9372 13.7912H58.2341L60.6568 23.377H62.2324ZM80.9032 23.377V16.7674C80.9032 14.7833 79.4824 13.7912 76.6408 13.7912C75.6572 13.7912 74.6492 13.9434 73.617 14.2477V15.6171C74.6492 15.3128 75.6572 15.1606 76.6408 15.1606C78.3591 15.1606 79.2183 15.7114 79.2183 16.813V17.7168C78.3864 17.5951 77.5546 17.5342 76.7228 17.5342C74.1362 17.5342 72.8429 18.5172 72.8429 20.483C72.8429 22.4123 73.9813 23.377 76.2583 23.377C77.3816 23.377 78.4198 23.0605 79.3731 22.4276L79.956 23.377H80.9032ZM76.2583 22.0076C75.1046 22.0076 74.5278 21.4903 74.5278 20.4556C74.5278 19.421 75.2595 18.9036 76.7228 18.9036C77.5546 18.9036 78.3864 18.9645 79.2183 19.0862V21.0764C78.4107 21.6972 77.4241 22.0076 76.2583 22.0076ZM85.3205 26.8462V22.9205C86.0369 23.2249 86.7777 23.377 87.5427 23.377C90.6272 23.377 92.1695 21.7003 92.1695 18.3468C92.1695 15.3097 90.6363 13.7912 87.5701 13.7912C86.216 13.7912 84.9045 13.9221 83.6355 14.1838V26.8462H85.3205ZM87.5336 21.9163C86.72 21.9163 85.9823 21.752 85.3205 21.4233V15.4162C85.958 15.2702 86.7018 15.1971 87.5518 15.1971C89.5252 15.1971 90.5119 16.2409 90.5119 18.3285C90.5119 20.7204 89.5191 21.9163 87.5336 21.9163ZM101.459 23.377V22.0989H95.9309L101.641 15.1606V13.7912H94.1732V15.1606H99.7744L93.991 22.0989V23.377H101.459ZM108.017 23.3679C111.053 23.3679 112.571 21.7733 112.571 18.5841C112.571 15.3888 111.053 13.7912 108.017 13.7912C104.981 13.7912 103.463 15.3888 103.463 18.5841C103.475 21.7733 104.993 23.3679 108.017 23.3679ZM108.017 22.0076C106.104 22.0076 105.148 20.8543 105.148 18.5476C105.148 16.2896 106.104 15.1606 108.017 15.1606C109.93 15.1606 110.886 16.2896 110.886 18.5476C110.886 20.8543 109.93 22.0076 108.017 22.0076ZM116.533 23.377V16.4113C117.401 15.6019 118.318 15.1971 119.283 15.1971C120.698 15.1971 121.405 15.9092 121.405 17.3334V23.377H123.09V17.3608C123.09 14.9811 121.897 13.7912 119.511 13.7912C118.339 13.7912 117.264 14.199 116.287 15.0145L115.986 13.7912H114.848V23.377H116.533ZM130.294 23.377C131.503 23.377 132.529 23.2553 133.373 23.0118V21.6424C132.529 21.8859 131.563 22.0076 130.477 22.0076C128.194 22.0076 127.052 21.0277 127.052 19.068H133.764C133.819 18.6298 133.846 18.2189 133.846 17.8355C133.846 15.1393 132.486 13.7912 129.766 13.7912C126.833 13.7912 125.367 15.3523 125.367 18.4746C125.367 21.7429 127.01 23.377 130.294 23.377ZM132.225 17.6621H127.052C127.161 15.9823 128.066 15.1424 129.766 15.1424C131.369 15.1424 132.189 15.9823 132.225 17.6621Z" fill="#E8168D"/>
<path d="M51.9589 23.4683C55.3227 23.4683 57.0046 22.1902 57.0046 19.634C57.0046 17.2604 55.6172 16.0735 52.8423 16.0735H51.1665C49.5636 16.0735 48.7621 15.3736 48.7621 13.9738C48.7621 12.3914 49.9461 11.6002 52.3141 11.6002C53.832 11.6002 55.2437 11.8436 56.5492 12.3305V10.7785C55.2437 10.4134 53.832 10.2308 52.3141 10.2308C48.8228 10.2308 47.0771 11.4784 47.0771 13.9738C47.0771 16.3474 48.4403 17.5342 51.1665 17.5342H52.8423C54.4939 17.5342 55.3196 18.2342 55.3196 19.634C55.3196 21.2773 54.1994 22.0989 51.9589 22.0989C50.3741 22.0989 48.8987 21.8555 47.5325 21.3686V22.9205C48.8987 23.2857 50.3741 23.4683 51.9589 23.4683ZM62.2324 23.377L64.8372 16.2105L67.5786 23.377H69.1178L71.6133 13.7912H69.8282L68.2981 21.3047L65.6387 13.7912H64.1177L61.6313 21.3047L59.9372 13.7912H58.2341L60.6568 23.377H62.2324ZM80.9032 23.377V16.7674C80.9032 14.7833 79.4824 13.7912 76.6408 13.7912C75.6572 13.7912 74.6492 13.9434 73.617 14.2477V15.6171C74.6492 15.3128 75.6572 15.1606 76.6408 15.1606C78.3591 15.1606 79.2183 15.7114 79.2183 16.813V17.7168C78.3864 17.5951 77.5546 17.5342 76.7228 17.5342C74.1362 17.5342 72.8429 18.5172 72.8429 20.483C72.8429 22.4123 73.9813 23.377 76.2583 23.377C77.3816 23.377 78.4198 23.0605 79.3731 22.4276L79.956 23.377H80.9032ZM76.2583 22.0076C75.1046 22.0076 74.5278 21.4903 74.5278 20.4556C74.5278 19.421 75.2595 18.9036 76.7228 18.9036C77.5546 18.9036 78.3864 18.9645 79.2183 19.0862V21.0764C78.4107 21.6972 77.4241 22.0076 76.2583 22.0076ZM85.3205 26.8462V22.9205C86.0369 23.2249 86.7777 23.377 87.5427 23.377C90.6272 23.377 92.1695 21.7003 92.1695 18.3468C92.1695 15.3097 90.6363 13.7912 87.5701 13.7912C86.216 13.7912 84.9045 13.9221 83.6355 14.1838V26.8462H85.3205ZM87.5336 21.9163C86.72 21.9163 85.9823 21.752 85.3205 21.4233V15.4162C85.958 15.2702 86.7018 15.1971 87.5518 15.1971C89.5252 15.1971 90.5119 16.2409 90.5119 18.3285C90.5119 20.7204 89.5191 21.9163 87.5336 21.9163ZM101.459 23.377V22.0989H95.9309L101.641 15.1606V13.7912H94.1732V15.1606H99.7744L93.991 22.0989V23.377H101.459ZM108.017 23.3679C111.053 23.3679 112.571 21.7733 112.571 18.5841C112.571 15.3888 111.053 13.7912 108.017 13.7912C104.981 13.7912 103.463 15.3888 103.463 18.5841C103.475 21.7733 104.993 23.3679 108.017 23.3679ZM108.017 22.0076C106.104 22.0076 105.148 20.8543 105.148 18.5476C105.148 16.2896 106.104 15.1606 108.017 15.1606C109.93 15.1606 110.886 16.2896 110.886 18.5476C110.886 20.8543 109.93 22.0076 108.017 22.0076ZM116.533 23.377V16.4113C117.401 15.6019 118.318 15.1971 119.283 15.1971C120.698 15.1971 121.405 15.9092 121.405 17.3334V23.377H123.09V17.3608C123.09 14.9811 121.897 13.7912 119.511 13.7912C118.339 13.7912 117.264 14.199 116.287 15.0145L115.986 13.7912H114.848V23.377H116.533ZM130.294 23.377C131.503 23.377 132.529 23.2553 133.373 23.0118V21.6424C132.529 21.8859 131.563 22.0076 130.477 22.0076C128.194 22.0076 127.052 21.0277 127.052 19.068H133.764C133.819 18.6298 133.846 18.2189 133.846 17.8355C133.846 15.1393 132.486 13.7912 129.766 13.7912C126.833 13.7912 125.367 15.3523 125.367 18.4746C125.367 21.7429 127.01 23.377 130.294 23.377ZM132.225 17.6621H127.052C127.161 15.9823 128.066 15.1424 129.766 15.1424C131.369 15.1424 132.189 15.9823 132.225 17.6621Z" fill="#E8168D"/>
</svg>
