<svg width="130" height="42" viewBox="0 0 130 42" fill="none" xmlns="http://www.w3.org/2000/svg">
<path fill-rule="evenodd" clip-rule="evenodd" d="M6.05784 8H17.2817C19.0521 8 19.9365 8 20.6136 8.34265C21.2091 8.64118 21.6906 9.12206 21.9943 9.71176C22.3395 10.3838 22.3395 11.2618 22.3395 13.0191V14.8824H1V13.0191C1 11.2618 1 10.3838 1.34519 9.71176C1.64593 9.12206 2.13038 8.64265 2.72595 8.34265C3.40299 8 4.28745 8 6.05784 8ZM22.341 20.7059H15.2268L15.2298 21.6838V34.4706H17.2832C19.0535 34.4706 19.938 34.4706 20.6165 34.1279C21.2091 33.8294 21.6921 33.3485 21.9958 32.7588C22.341 32.0868 22.341 31.2088 22.341 29.45V20.7059ZM8.11119 21.2353H1V29.9809C1 31.7382 1 32.6162 1.34519 33.2868C1.6489 33.8779 2.13038 34.3588 2.72595 34.6574C3.40299 35 4.28745 35 6.05784 35H8.11119V21.2353ZM36.1915 25.2029C36.1915 27.8971 37.673 29.4206 40.5249 29.4206C41.5397 29.4206 42.2523 29.2588 42.7738 29.0676V26.4544C42.3071 26.6456 41.8138 26.7279 41.1545 26.7279C40.113 26.7279 39.5101 26.1544 39.5101 24.9044V17.4206H42.6627V14.9441H39.5101V11.8147H36.1915V14.9441H34.2745V17.4206H36.193L36.1915 25.2029ZM53.485 24.1971C53.485 26.0206 51.9769 27.0809 49.9472 27.0809C48.3028 27.0809 47.6435 26.2912 47.6435 25.0956C47.6435 23.3529 49.2613 22.7809 51.7843 22.7809H53.485V24.1971ZM44.3531 25.2309C44.3531 28.1971 46.519 29.4485 49.1531 29.4485C51.3458 29.4485 52.6065 28.6588 53.5384 27.4338V29.1765H56.8021V19.8426C56.8021 15.9515 54.2806 14.6456 51.0717 14.6456C47.8628 14.6456 45.205 16.0324 44.9294 19.3515H48.1368C48.3028 17.9382 49.1517 17.1221 50.8791 17.1221C52.8273 17.1221 53.485 18.0735 53.485 19.9794V20.7147H51.7028C47.5887 20.7147 44.3546 21.9103 44.3546 25.2294L44.3531 25.2309ZM59.5355 29.1765V14.9441H62.854V17.2029C63.54 15.8147 65.1296 14.6441 67.4882 14.6441C70.3667 14.6441 72.3964 16.3059 72.3964 20.2235V29.1765H69.0778V20.5235C69.0778 18.3735 68.2008 17.3941 66.2274 17.3941C64.3607 17.3941 62.854 18.5368 62.854 20.7956V29.1765H59.5355ZM85.7876 21.7206C85.7876 24.4412 84.1165 26.0735 81.8128 26.0735C79.6735 26.0735 78.029 24.4412 78.029 21.8015V21.5838C78.029 18.9985 79.4542 17.2309 81.9224 17.2309C84.3076 17.2309 85.7891 18.8353 85.7891 21.5294L85.7876 21.7206ZM74.7934 29.6662C75.1772 32.3868 77.2053 34.4015 81.7032 34.4015C86.1447 34.4015 88.9699 32.3059 88.9966 28.1147V14.9441H85.678V17.1206C84.8558 15.7059 83.4306 14.6456 81.072 14.6456C77.3713 14.6456 74.6275 17.6382 74.6275 21.6382V21.8294C74.6275 25.9382 77.3979 28.6044 80.9906 28.6044C83.1017 28.6044 84.8839 27.325 85.6795 25.9647V28.0603C85.6795 30.6191 84.2528 31.8985 81.675 31.8985C79.5091 31.8985 78.4128 31.0809 78.1387 29.6662H74.7934ZM98.6441 29.4485C94.4218 29.4485 91.3773 26.7 91.3773 22.2103V21.9926C91.3773 17.5838 94.4218 14.6456 98.5063 14.6456C102.071 14.6456 105.28 16.7412 105.28 21.8294V22.7809H94.7774C94.887 25.475 96.2589 26.9985 98.7256 26.9985C100.729 26.9985 101.77 26.2103 102.016 24.8221H105.225C104.758 27.8162 102.318 29.4485 98.6441 29.4485ZM94.8322 20.5779H101.988C101.825 18.1279 100.563 17.0397 98.5063 17.0397C96.5063 17.0397 95.1611 18.3735 94.8322 20.5779ZM107.64 14.9456V29.1765H110.958V20.6588C110.958 18.4824 112.466 17.3941 114.111 17.3941C115.729 17.3941 116.661 18.2912 116.661 20.3868V29.1765H119.979V20.6588C119.979 18.4824 121.487 17.3941 123.133 17.3941C124.778 17.3941 125.681 18.2912 125.681 20.3868V29.1765H129V20.1691C129 16.25 126.862 14.6456 124.23 14.6456C122.447 14.6456 120.472 15.4338 119.376 17.2044C118.664 15.4338 117.184 14.6456 115.317 14.6456C113.206 14.6456 111.643 15.7882 110.958 17.1221V14.9456H107.64Z" fill="white"/>
</svg>
