<svg width="145" height="42" viewBox="0 0 145 42" fill="none" xmlns="http://www.w3.org/2000/svg">
<mask id="mask0_4149_15985" style="mask-type:luminance" maskUnits="userSpaceOnUse" x="0" y="2" width="145" height="38">
<path d="M144.525 2H0V40H144.525V2Z" fill="white"/>
</mask>
<g mask="url(#mask0_4149_15985)">
<path d="M6.1043 2.03943H32.3273C35.6188 2.03943 38.2871 4.6978 38.2871 7.97693V34.1019C38.2871 37.381 35.6188 40.0394 32.3273 40.0394H6.1043C2.81288 40.0394 0.144531 37.381 0.144531 34.1019V7.97693C0.14468 4.6978 2.81288 2.03943 6.1043 2.03943Z" fill="#2F2F2F"/>
<path d="M6.1043 2.03943H32.3273C35.6188 2.03943 38.2871 4.6978 38.2871 7.97693V34.1019C38.2871 37.381 35.6188 40.0394 32.3273 40.0394H6.1043C2.81288 40.0394 0.144531 37.381 0.144531 34.1019V7.97693C0.14468 4.6978 2.81288 2.03943 6.1043 2.03943Z" fill="url(#paint0_linear_4149_15985)"/>
<path d="M22.2424 16.4105L17.9688 16.3091L26.1357 8.95774C26.5532 8.54197 27.2388 8.56958 27.6189 9.02261L29.343 11.0547C29.51 11.3963 29.4726 11.7938 29.2501 12.0983L26.571 15.7186C25.5614 17.0847 23.9391 16.4383 22.2424 16.4105Z" fill="#FFD500"/>
<path d="M22.2424 16.4105L17.9688 16.3091L26.1357 8.95774C26.5532 8.54197 27.2388 8.56958 27.6189 9.02261L29.343 11.0547C29.51 11.3963 29.4726 11.7938 29.2501 12.0983L26.571 15.7186C25.5614 17.0847 23.9391 16.4383 22.2424 16.4105Z" fill="url(#paint1_linear_4149_15985)"/>
<path d="M21.7435 31.2501L18.5451 34.0484C17.8963 34.6212 16.8672 34.1593 16.8672 33.2911V16.1132L21.567 19.004C21.8637 19.1886 22.0395 19.5118 22.049 19.8539L22.0863 30.4837C22.0862 30.7883 21.966 31.0654 21.7435 31.2501Z" fill="#1389EA"/>
<path d="M21.7435 31.2501L18.5451 34.0484C17.8963 34.6212 16.8672 34.1593 16.8672 33.2911V16.1132L21.567 19.004C21.8637 19.1886 22.0395 19.5118 22.049 19.8539L22.0863 30.4837C22.0862 30.7883 21.966 31.0654 21.7435 31.2501Z" fill="url(#paint2_linear_4149_15985)"/>
<path d="M22.0509 25.8018V19.8543C22.0509 19.5128 21.8745 19.1984 21.5874 19.0137L12.5486 13.1954L10.0738 16.5109C9.73105 16.9727 9.84229 17.6287 10.3243 17.9424L22.0509 25.8018Z" fill="#FFD500"/>
<path d="M22.0509 25.8018V19.8543C22.0509 19.5128 21.8745 19.1984 21.5874 19.0137L12.5486 13.1954L10.0738 16.5109C9.73105 16.9727 9.84229 17.6287 10.3243 17.9424L22.0509 25.8018Z" fill="url(#paint3_linear_4149_15985)"/>
<path d="M25.1076 17.0839H10.3219C9.94178 17.0839 9.81215 16.8344 10.0347 16.53L13.0383 12.3097C13.2237 12.0419 13.5392 11.885 13.8636 11.885H29.1318C29.2336 11.885 29.4101 11.885 29.345 11.9681L25.9241 16.6693C25.7286 16.9359 25.432 17.0839 25.1076 17.0839Z" fill="#1389EA"/>
<path d="M25.1076 17.0839H10.3219C9.94178 17.0839 9.81215 16.8344 10.0347 16.53L13.0383 12.3097C13.2237 12.0419 13.5392 11.885 13.8636 11.885H29.1318C29.2336 11.885 29.4101 11.885 29.345 11.9681L25.9241 16.6693C25.7286 16.9359 25.432 17.0839 25.1076 17.0839Z" fill="url(#paint4_linear_4149_15985)"/>
<path d="M25.1076 17.0839H10.3219C9.94178 17.0839 9.81215 16.8344 10.0347 16.53L13.0383 12.3097C13.2237 12.0419 13.5392 11.885 13.8636 11.885H29.1318C29.2336 11.885 29.4101 11.885 29.345 11.9681L25.9241 16.6693C25.7286 16.9359 25.432 17.0839 25.1076 17.0839Z" fill="url(#paint5_linear_4149_15985)"/>
<path d="M23.543 21.8921V19.8195H24.4612C24.6455 19.8195 24.8034 19.8484 24.9354 19.9069C25.0671 19.9649 25.1686 20.0494 25.2402 20.16C25.3116 20.2705 25.347 20.4027 25.347 20.5566C25.347 20.7086 25.3114 20.8397 25.2402 20.9492C25.1686 21.0586 25.0671 21.1435 24.9354 21.2038C24.8034 21.264 24.6455 21.2942 24.4612 21.2942H23.7599L23.9293 21.1165V21.8925L23.543 21.8921ZM23.9293 21.1576L23.7599 20.9681H24.4435C24.6138 20.9681 24.7421 20.9321 24.8283 20.8602C24.9146 20.7881 24.9576 20.6868 24.9576 20.5564C24.9576 20.4264 24.9146 20.325 24.8283 20.2531C24.7421 20.181 24.6138 20.1451 24.4435 20.1451H23.7599L23.9293 19.9555V21.1576Z" fill="#F7F7F7"/>
<path d="M23.543 24.8516V22.7789H23.9293V24.4367H25.3651V24.8516H23.543Z" fill="#F7F7F7"/>
<path d="M24.4524 27.8432C24.1689 27.8432 23.9467 27.7631 23.7851 27.6033C23.6236 27.4431 23.543 27.2114 23.543 26.9074V25.7407H23.9295V26.8952C23.9295 27.1086 23.9755 27.2635 24.0676 27.3602C24.1598 27.4571 24.2901 27.5052 24.4585 27.5052C24.6271 27.5052 24.7567 27.4571 24.848 27.3602C24.9391 27.2635 24.9848 27.1086 24.9848 26.8952V25.7407H25.3652V26.9074C25.3652 27.2114 25.2844 27.4433 25.1228 27.6033C24.9611 27.7631 24.7378 27.8432 24.4524 27.8432Z" fill="#F7F7F7"/>
<path d="M24.4453 30.8048C24.283 30.8048 24.1278 30.7814 23.9804 30.7351C23.8327 30.6887 23.7142 30.6289 23.625 30.5559L23.7587 30.2569C23.8421 30.322 23.9452 30.3763 24.0678 30.4196C24.1907 30.4633 24.3165 30.4849 24.4452 30.4849C24.5541 30.4849 24.6425 30.4732 24.7098 30.4493C24.7772 30.4258 24.8266 30.3934 24.8584 30.3531C24.8901 30.3127 24.9059 30.2669 24.9059 30.2153C24.9059 30.1521 24.8831 30.1015 24.8375 30.0629C24.7919 30.0243 24.7331 29.9939 24.6608 29.9712C24.5884 29.9484 24.5082 29.9279 24.4199 29.9087C24.3319 29.8899 24.2434 29.8668 24.1554 29.8392C24.0674 29.8116 23.9865 29.7764 23.9133 29.7341C23.84 29.6916 23.781 29.6349 23.7363 29.5637C23.6917 29.4929 23.6694 29.4018 23.6694 29.2912C23.6694 29.1788 23.6996 29.0756 23.7601 28.982C23.8206 28.888 23.9127 28.813 24.0366 28.7568C24.1606 28.7005 24.3175 28.6724 24.5078 28.6724C24.6325 28.6724 24.7565 28.6881 24.8794 28.7197C25.0022 28.7513 25.1093 28.7969 25.2004 28.856L25.0784 29.1549C24.9853 29.0999 24.8894 29.0587 24.7902 29.0323C24.6909 29.0054 24.5959 28.9922 24.5048 28.9922C24.3998 28.9922 24.3135 29.0052 24.2461 29.0308C24.1786 29.0565 24.1296 29.0904 24.0991 29.133C24.0682 29.1755 24.053 29.2222 24.053 29.2736C24.053 29.3369 24.0754 29.3876 24.12 29.4261C24.1644 29.4647 24.2227 29.4948 24.2952 29.5165C24.3674 29.5382 24.4482 29.5591 24.5373 29.5786C24.6265 29.5985 24.7146 29.6215 24.8019 29.6483C24.889 29.6748 24.9692 29.7096 25.0427 29.752C25.1158 29.7945 25.1748 29.8508 25.2194 29.9208C25.2639 29.991 25.2862 30.0803 25.2862 30.1886C25.2862 30.2996 25.2561 30.4017 25.1955 30.4953C25.1351 30.589 25.0425 30.6642 24.9176 30.7205C24.7931 30.7766 24.6356 30.8048 24.4453 30.8048Z" fill="#F7F7F7"/>
<path d="M51.9057 28.6723V17.4633H47.4688V14.8584H59.5518V17.4633H55.1147V28.6723H51.9057Z" fill="#F2F2F2"/>
<path d="M61.668 28.6723V14.8584H67.6699C68.911 14.8584 69.9807 15.0591 70.8788 15.4603C71.7766 15.8618 72.4698 16.4371 72.9585 17.1871C73.4469 17.937 73.6914 18.825 73.6914 19.8512C73.6914 20.8906 73.4469 21.782 72.9585 22.5251C72.4698 23.2686 71.7766 23.8342 70.8788 24.2223C69.9807 24.6105 68.911 24.8044 67.6699 24.8044H63.431L64.8968 23.4231V28.6723H61.668ZM64.8968 23.7781L63.431 22.2587H67.4917C68.4688 22.2587 69.2083 22.0484 69.7102 21.6271C70.2119 21.2063 70.463 20.6144 70.463 19.8512C70.463 19.0884 70.2119 18.4994 69.7102 18.085C69.2083 17.6706 68.4688 17.4633 67.4917 17.4633H63.431L64.8968 15.9438V23.7781ZM70.5024 28.6723L67.0163 23.6597H70.463L73.9491 28.6723H70.5024Z" fill="#F2F2F2"/>
<path d="M82.7831 28.9091C80.8157 28.9091 79.277 28.3632 78.1678 27.271C77.0585 26.1792 76.5039 24.6139 76.5039 22.5743V14.8584H79.7326V22.4954C79.7326 23.7977 80.0028 24.7421 80.5447 25.3272C81.0859 25.9127 81.8386 26.2054 82.8029 26.2054C83.7799 26.2054 84.539 25.9127 85.0809 25.3272C85.6221 24.7421 85.8931 23.7977 85.8931 22.4954V14.8584H89.0427V22.5743C89.0427 24.6137 88.488 26.1792 87.3787 27.271C86.2695 28.3634 84.7378 28.9091 82.7831 28.9091Z" fill="#F2F2F2"/>
<path d="M97.2044 28.9094C96.0951 28.9094 95.0286 28.7614 94.0056 28.4654C92.9819 28.1694 92.1603 27.7845 91.5391 27.311L92.6285 24.9033C93.2093 25.3246 93.9098 25.6699 94.7283 25.9393C95.5468 26.209 96.3724 26.3439 97.2044 26.3439C97.8382 26.3439 98.3501 26.2783 98.7399 26.1466C99.129 26.0151 99.4166 25.8405 99.6012 25.6237C99.7858 25.4065 99.8785 25.1534 99.8785 24.864C99.8785 24.4959 99.7327 24.2028 99.4427 23.9858C99.152 23.7687 98.7661 23.5911 98.2843 23.4529C97.8018 23.3147 97.2773 23.1835 96.7091 23.0582C96.141 22.9334 95.5705 22.782 94.9961 22.6043C94.4216 22.4266 93.8931 22.1898 93.4114 21.8939C92.9288 21.5979 92.5461 21.2101 92.2625 20.7297C91.978 20.2496 91.8362 19.6477 91.8362 18.924C91.8362 18.1345 92.0478 17.4144 92.4701 16.763C92.8932 16.1118 93.5366 15.5923 94.4018 15.2039C95.2663 14.8161 96.3526 14.6218 97.66 14.6218C98.5315 14.6218 99.3936 14.7272 100.245 14.9375C101.097 15.148 101.84 15.4507 102.473 15.8452L101.463 18.2529C100.843 17.8977 100.202 17.6312 99.5418 17.4537C98.8818 17.276 98.2479 17.1872 97.6402 17.1872C97.0063 17.1872 96.4984 17.2563 96.1149 17.3945C95.7322 17.5326 95.4517 17.72 95.2734 17.9569C95.0951 18.1937 95.0064 18.457 95.0064 18.7463C95.0064 19.1147 95.1514 19.4107 95.4422 19.6343C95.7322 19.8581 96.1149 20.0323 96.5911 20.1572C97.0657 20.2823 97.5942 20.4073 98.1758 20.5321C98.7558 20.6573 99.331 20.8118 99.8984 20.9959C100.466 21.1802 100.988 21.4135 101.463 21.6963C101.939 21.9793 102.325 22.3608 102.622 22.8409C102.92 23.3213 103.068 23.9164 103.068 24.6268C103.068 25.4031 102.853 26.1137 102.424 26.7581C101.995 27.4029 101.344 27.9224 100.473 28.3171C99.6012 28.7119 98.5117 28.9094 97.2044 28.9094Z" fill="#F2F2F2"/>
<path d="M108.34 28.6723V17.4633H103.902V14.8584H115.986V17.4633H111.549V28.6723H108.34Z" fill="#F2F2F2"/>
<path d="M121.291 26.1067H128.838V28.6721H118.102V14.8584H128.58V17.4239H121.291V26.1067ZM121.053 20.4037H127.729V22.9098H121.053V20.4037Z" fill="#F2F2F2"/>
<path d="M134.978 26.1067H142.525V28.6721H131.789V14.8584H142.268V17.4239H134.978V26.1067ZM134.741 20.4037H141.416V22.9098H134.741V20.4037Z" fill="#F2F2F2"/>
</g>
<defs>
<linearGradient id="paint0_linear_4149_15985" x1="19.2159" y1="40.0394" x2="19.2159" y2="2.03943" gradientUnits="userSpaceOnUse">
<stop stop-opacity="0"/>
<stop offset="1" stop-color="#F7F7F7" stop-opacity="0.2"/>
</linearGradient>
<linearGradient id="paint1_linear_4149_15985" x1="23.6462" y1="12.3943" x2="23.5218" y2="9.33935" gradientUnits="userSpaceOnUse">
<stop stop-opacity="0.3"/>
<stop offset="1" stop-color="#FFD500" stop-opacity="0"/>
</linearGradient>
<linearGradient id="paint2_linear_4149_15985" x1="18.0987" y1="34.1269" x2="19.6581" y2="21.8215" gradientUnits="userSpaceOnUse">
<stop stop-color="#1389EA" stop-opacity="0"/>
<stop offset="0.7934" stop-opacity="0.2"/>
</linearGradient>
<linearGradient id="paint3_linear_4149_15985" x1="12.7943" y1="15.9188" x2="22.2164" y2="23.602" gradientUnits="userSpaceOnUse">
<stop offset="0.147" stop-opacity="0.3"/>
<stop offset="1" stop-color="#FFD500" stop-opacity="0"/>
</linearGradient>
<linearGradient id="paint4_linear_4149_15985" x1="18.6713" y1="14.4844" x2="9.71192" y2="14.4844" gradientUnits="userSpaceOnUse">
<stop offset="3.40978e-07" stop-color="#1389EA" stop-opacity="0"/>
<stop offset="1" stop-opacity="0.2"/>
</linearGradient>
<linearGradient id="paint5_linear_4149_15985" x1="19.5202" y1="14.4844" x2="28.4794" y2="14.4844" gradientUnits="userSpaceOnUse">
<stop offset="0.1579" stop-color="#1389EA" stop-opacity="0"/>
<stop offset="1" stop-opacity="0.2"/>
</linearGradient>
</defs>
</svg>
