<svg width="42" height="24" viewBox="0 0 42 24" fill="none" xmlns="http://www.w3.org/2000/svg">
<path d="M8.55887 5.70958C9.02979 5.12056 9.34936 4.32967 9.26507 3.52148C8.57571 3.55576 7.73447 3.97628 7.24744 4.56577C6.81013 5.07057 6.42308 5.89457 6.52398 6.66888C7.29783 6.736 8.07096 6.28207 8.55887 5.70958Z" fill="white"/>
<path d="M9.25708 6.81894C8.13327 6.752 7.17775 7.45675 6.64108 7.45675C6.1041 7.45675 5.28227 6.85267 4.39339 6.86895C3.23647 6.88594 2.16297 7.54008 1.57588 8.58046C0.368329 10.6617 1.25721 13.749 2.43148 15.4441C3.00174 16.2827 3.68899 17.2061 4.59456 17.1729C5.45016 17.1393 5.78553 16.6189 6.82555 16.6189C7.86481 16.6189 8.1669 17.1729 9.07261 17.1561C10.0119 17.1393 10.5991 16.3171 11.1693 15.4777C11.8235 14.5217 12.0913 13.5986 12.1081 13.548C12.0913 13.5312 10.297 12.8428 10.2804 10.7789C10.2634 9.05065 11.6891 8.22862 11.7562 8.17765C10.9511 6.98693 9.69318 6.85267 9.25708 6.81894Z" fill="white"/>
<path d="M19.0477 4.48243C21.4903 4.48243 23.1912 6.16612 23.1912 8.61746C23.1912 11.0776 21.4553 12.77 18.9865 12.77H16.2821V17.0708H14.3281V4.48242H19.0477V4.48243ZM16.2821 11.1299H18.5241C20.2253 11.1299 21.1935 10.214 21.1935 8.62621C21.1935 7.0386 20.2253 6.13129 18.5328 6.13129H16.2821V11.1299Z" fill="white"/>
<path d="M23.7031 14.4633C23.7031 12.858 24.9332 11.8723 27.1143 11.7501L29.6265 11.6019V10.8953C29.6265 9.87462 28.9373 9.26397 27.786 9.26397C26.6953 9.26397 26.0148 9.78729 25.8492 10.6074H24.0696C24.1743 8.94981 25.5874 7.72852 27.8557 7.72852C30.0802 7.72852 31.502 8.90623 31.502 10.7469V17.0716H29.6962V15.5624H29.6528C29.1207 16.5832 27.9603 17.2286 26.7565 17.2286C24.9594 17.2286 23.7031 16.112 23.7031 14.4633ZM29.6265 13.6346V12.9105L27.367 13.05C26.2416 13.1286 25.6049 13.6258 25.6049 14.411C25.6049 15.2135 26.2679 15.7369 27.2798 15.7369C28.5971 15.7369 29.6265 14.8296 29.6265 13.6346Z" fill="white"/>
<path d="M33.212 20.4461V18.9194C33.3513 18.9542 33.6653 18.9542 33.8225 18.9542C34.6948 18.9542 35.1659 18.5879 35.4537 17.6458C35.4537 17.6283 35.6196 17.0875 35.6196 17.0787L32.3047 7.89258H34.3458L36.6666 15.3602H36.7012L39.022 7.89258H41.0109L37.5735 17.5497C36.7887 19.7744 35.8814 20.4897 33.9796 20.4897C33.8225 20.4897 33.3513 20.4722 33.212 20.4461Z" fill="white"/>
</svg>
