<svg width="42" height="24" viewBox="0 0 42 24" fill="none" xmlns="http://www.w3.org/2000/svg">
<path d="M20.4058 11.7522V16.4007H18.9062V4.9043H22.805C23.7547 4.9043 24.6545 5.25419 25.3543 5.90399C26.054 6.5038 26.4039 7.40352 26.4039 8.35323C26.4039 9.30293 26.054 10.1527 25.3543 10.8025C24.6545 11.4523 23.8047 11.8022 22.805 11.8022L20.4058 11.7522ZM20.4058 6.30386V10.3026H22.905C23.4548 10.3026 24.0047 10.1027 24.3546 9.70281C25.1543 8.95304 25.1543 7.70343 24.4045 6.95366L24.3546 6.90368C23.9547 6.5038 23.4548 6.25388 22.905 6.30386H20.4058Z" fill="white"/>
<path d="M29.8552 8.30273C30.9548 8.30273 31.8046 8.60264 32.4544 9.20246C33.1042 9.80227 33.4041 10.602 33.4041 11.6017V16.4002H32.0045V15.3006H31.9545C31.3547 16.2003 30.505 16.6501 29.5053 16.6501C28.6556 16.6501 27.9058 16.4002 27.306 15.9004C26.7561 15.4005 26.4062 14.7008 26.4062 13.951C26.4062 13.1512 26.7062 12.5014 27.306 12.0016C27.9058 11.5017 28.7555 11.3018 29.7552 11.3018C30.6549 11.3018 31.3547 11.4518 31.9045 11.8016V11.4518C31.9045 10.9519 31.7046 10.4521 31.3047 10.1522C30.9049 9.80227 30.405 9.60233 29.8552 9.60233C29.0054 9.60233 28.3556 9.95222 27.9058 10.652L26.6062 9.85225C27.4059 8.80258 28.4556 8.30273 29.8552 8.30273ZM27.9558 14.001C27.9558 14.4008 28.1557 14.7507 28.4556 14.9507C28.8055 15.2006 29.2054 15.3506 29.6053 15.3506C30.2051 15.3506 30.8049 15.1006 31.2547 14.6508C31.7546 14.2009 32.0045 13.6511 32.0045 13.0513C31.5547 12.7014 30.9049 12.5014 30.0551 12.5014C29.4553 12.5014 28.9555 12.6514 28.5556 12.9513C28.1557 13.2012 27.9558 13.5511 27.9558 14.001Z" fill="white"/>
<path d="M41.5038 8.55469L36.5553 19.9012H35.0558L36.9052 15.9524L33.6562 8.60467H35.2558L37.605 14.2529H37.655L39.9543 8.60467H41.5038V8.55469Z" fill="white"/>
<path d="M14.4574 10.7539C14.4574 10.304 14.4074 9.85416 14.3574 9.4043H8.10938V11.9535H11.6583C11.5083 12.7533 11.0585 13.503 10.3587 13.9529V15.6024H12.508C13.7576 14.4527 14.4574 12.7533 14.4574 10.7539Z" fill="#4285F4"/>
<path d="M8.1013 17.2019C9.90074 17.2019 11.4003 16.602 12.4999 15.6024L10.3506 13.9529C9.75079 14.3527 9.00102 14.6027 8.1013 14.6027C6.40182 14.6027 4.90229 13.453 4.40244 11.8535H2.20312V13.553C3.35277 15.8023 5.60207 17.2019 8.1013 17.2019Z" fill="#34A853"/>
<path d="M4.4116 11.8542C4.11169 11.0544 4.11169 10.1547 4.4116 9.30494V7.60547H2.21228C1.26257 9.4549 1.26257 11.6542 2.21228 13.5536L4.4116 11.8542Z" fill="#FBBC04"/>
<path d="M8.11381 6.60384C9.06352 6.60384 9.96324 6.95373 10.663 7.60353L12.5624 5.70412C11.3628 4.60446 9.7633 3.95466 8.1638 4.00464C5.66457 4.00464 3.36528 5.40421 2.26562 7.65351L4.46494 9.35298C4.9148 7.75348 6.41434 6.60384 8.11381 6.60384Z" fill="#EA4335"/>
</svg>
