<svg width="28" height="16" viewBox="0 0 28 16" fill="none" xmlns="http://www.w3.org/2000/svg">
<path d="M17.2496 13.827H10.7578V2.16016H17.2496V13.827Z" fill="#FF5F00"/>
<path d="M11.1704 7.99422C11.1704 5.62755 12.2785 3.51939 14.0041 2.1608C12.7422 1.16734 11.1497 0.574376 9.4189 0.574376C5.32145 0.574376 2 3.8963 2 7.99422C2 12.0921 5.32145 15.4141 9.4189 15.4141C11.1497 15.4141 12.7422 14.8211 14.0041 13.8276C12.2785 12.4691 11.1704 10.3609 11.1704 7.99422Z" fill="#EB001B"/>
<path d="M25.9968 7.99422C25.9968 12.0921 22.6753 15.4141 18.5779 15.4141C16.8471 15.4141 15.2545 14.8211 13.9922 13.8276C15.7182 12.4691 16.8263 10.3609 16.8263 7.99422C16.8263 5.62755 15.7182 3.51939 13.9922 2.1608C15.2545 1.16734 16.8471 0.574376 18.5779 0.574376C22.6753 0.574376 25.9968 3.8963 25.9968 7.99422Z" fill="#F79E1B"/>
<path d="M7.59023 8.0395C7.59023 7.7154 7.80261 7.44915 8.14967 7.44915C8.48127 7.44915 8.70514 7.70392 8.70514 8.0395C8.70514 8.37507 8.48127 8.62985 8.14967 8.62985C7.80261 8.62985 7.59023 8.36359 7.59023 8.0395ZM9.0831 8.0395V7.11754H8.68218V7.34141C8.55501 7.17539 8.36205 7.07118 8.09977 7.07118C7.58272 7.07118 7.17738 7.47652 7.17738 8.0395C7.17738 8.60291 7.58272 9.00781 8.09977 9.00781C8.36205 9.00781 8.55501 8.90361 8.68218 8.73758V8.96145H9.0831V8.0395ZM22.6316 8.0395C22.6316 7.7154 22.844 7.44915 23.191 7.44915C23.5231 7.44915 23.7465 7.70392 23.7465 8.0395C23.7465 8.37507 23.5231 8.62985 23.191 8.62985C22.844 8.62985 22.6316 8.36359 22.6316 8.0395ZM24.1249 8.0395V6.37707H23.7235V7.34141C23.5964 7.17539 23.4034 7.07118 23.1411 7.07118C22.6241 7.07118 22.2187 7.47652 22.2187 8.0395C22.2187 8.60291 22.6241 9.00781 23.1411 9.00781C23.4034 9.00781 23.5964 8.90361 23.7235 8.73758V8.96145H24.1249V8.0395ZM14.0598 7.43016C14.3181 7.43016 14.4841 7.59221 14.5265 7.87745H13.5697C13.6125 7.61119 13.7741 7.43016 14.0598 7.43016ZM14.0677 7.07118C13.5273 7.07118 13.1493 7.4646 13.1493 8.0395C13.1493 8.62587 13.5427 9.00781 14.0947 9.00781C14.3724 9.00781 14.6267 8.93849 14.8506 8.74951L14.6541 8.45234C14.4996 8.57554 14.3026 8.6453 14.1176 8.6453C13.8593 8.6453 13.624 8.52564 13.5661 8.1936H14.9354C14.9394 8.1437 14.9433 8.09337 14.9433 8.0395C14.9394 7.4646 14.5844 7.07118 14.0677 7.07118ZM18.9089 8.0395C18.9089 7.7154 19.1213 7.44915 19.4683 7.44915C19.7999 7.44915 20.0238 7.70392 20.0238 8.0395C20.0238 8.37507 19.7999 8.62985 19.4683 8.62985C19.1213 8.62985 18.9089 8.36359 18.9089 8.0395ZM20.4018 8.0395V7.11754H20.0008V7.34141C19.8732 7.17539 19.6807 7.07118 19.4184 7.07118C18.9014 7.07118 18.496 7.47652 18.496 8.0395C18.496 8.60291 18.9014 9.00781 19.4184 9.00781C19.6807 9.00781 19.8732 8.90361 20.0008 8.73758V8.96145H20.4018V8.0395ZM16.6446 8.0395C16.6446 8.59894 17.0341 9.00781 17.6284 9.00781C17.9061 9.00781 18.0911 8.946 18.2916 8.78792L18.0991 8.46382C17.9485 8.572 17.7904 8.62985 17.6165 8.62985C17.2963 8.62587 17.061 8.3945 17.061 8.0395C17.061 7.68449 17.2963 7.45312 17.6165 7.44915C17.7904 7.44915 17.9485 7.50699 18.0991 7.61517L18.2916 7.29107C18.0911 7.133 17.9061 7.07118 17.6284 7.07118C17.0341 7.07118 16.6446 7.48005 16.6446 8.0395ZM21.8138 7.07118C21.5825 7.07118 21.4319 7.17936 21.3277 7.34141V7.11754H20.9303V8.96145H21.3317V7.92778C21.3317 7.62267 21.4628 7.45312 21.7251 7.45312C21.8063 7.45312 21.8911 7.4646 21.9759 7.49948L22.0995 7.12152C22.0108 7.08663 21.8951 7.07118 21.8138 7.07118ZM11.0661 7.26414C10.8731 7.13697 10.6073 7.07118 10.3141 7.07118C9.84698 7.07118 9.54629 7.29505 9.54629 7.66153C9.54629 7.96223 9.77015 8.14768 10.1826 8.20552L10.372 8.23245C10.5919 8.26336 10.6956 8.3212 10.6956 8.42541C10.6956 8.56803 10.549 8.64927 10.2753 8.64927C9.99755 8.64927 9.79709 8.56052 9.66197 8.45632L9.47299 8.76849C9.69288 8.93054 9.97061 9.00781 10.2713 9.00781C10.8038 9.00781 11.1125 8.75701 11.1125 8.40598C11.1125 8.08188 10.8696 7.91233 10.4682 7.85449L10.2793 7.82711C10.1057 7.80415 9.96664 7.76971 9.96664 7.64608C9.96664 7.51096 10.0978 7.43016 10.3177 7.43016C10.553 7.43016 10.7809 7.51891 10.8926 7.58823L11.0661 7.26414ZM16.2393 7.07118C16.0079 7.07118 15.8573 7.17936 15.7536 7.34141V7.11754H15.3562V8.96145H15.7571V7.92778C15.7571 7.62267 15.8882 7.45312 16.1505 7.45312C16.2318 7.45312 16.3166 7.4646 16.4013 7.49948L16.525 7.12152C16.4362 7.08663 16.3205 7.07118 16.2393 7.07118ZM12.8177 7.11754H12.162V6.5581H11.7567V7.11754H11.3827V7.48403H11.7567V8.32518C11.7567 8.75304 11.9227 9.00781 12.3969 9.00781C12.5709 9.00781 12.7714 8.95394 12.8985 8.86519L12.7828 8.52167C12.6632 8.59099 12.532 8.62587 12.4278 8.62587C12.2274 8.62587 12.162 8.50224 12.162 8.31723V7.48403H12.8177V7.11754ZM6.82281 8.96145V7.80415C6.82281 7.36834 6.54508 7.07515 6.09735 7.07118C5.862 7.06721 5.61915 7.1405 5.44916 7.39925C5.32199 7.19481 5.12153 7.07118 4.83982 7.07118C4.64289 7.07118 4.45037 7.12902 4.29981 7.34494V7.11754H3.89844V8.96145H4.30334V7.93926C4.30334 7.61914 4.48084 7.44915 4.75504 7.44915C5.0213 7.44915 5.15597 7.62267 5.15597 7.93529V8.96145H5.56131V7.93926C5.56131 7.61914 5.74632 7.44915 6.01257 7.44915C6.28633 7.44915 6.41747 7.62267 6.41747 7.93529V8.96145H6.82281Z" fill="white"/>
</svg>
