<svg width="42" height="24" viewBox="0 0 42 24" fill="none" xmlns="http://www.w3.org/2000/svg">
<path d="M26.8083 10.7859C26.1507 10.1918 25.3568 9.90131 24.4391 9.90131C23.5338 9.90131 22.7399 10.1921 22.082 10.7859C21.4244 11.3672 21.0901 12.1762 21.0901 13.2126C21.0901 14.2491 21.4244 15.0574 22.082 15.6516C22.7395 16.2328 23.5338 16.5236 24.4391 16.5236C25.3568 16.5236 26.1507 16.2328 26.8083 15.6516C27.4784 15.0574 27.8127 14.2487 27.8127 13.2126C27.8127 12.1766 27.478 11.3672 26.8083 10.7859ZM23.1991 14.5392C22.8523 14.1982 22.6776 13.7556 22.6776 13.2123C22.6776 12.669 22.8508 12.2267 23.1991 11.8979C23.3606 11.734 23.5538 11.6046 23.7669 11.5177C23.98 11.4309 24.2086 11.3883 24.4387 11.3926C24.6707 11.3882 24.9012 11.4308 25.1164 11.5176C25.3316 11.6044 25.5271 11.7338 25.6911 11.8979C26.0501 12.2267 26.2248 12.6686 26.2248 13.2123C26.2248 13.7559 26.0516 14.1979 25.6911 14.5392C25.3443 14.8676 24.9223 15.032 24.4387 15.032C24.2098 15.0356 23.9824 14.9939 23.7697 14.9094C23.557 14.8248 23.3631 14.699 23.1991 14.5392ZM30.1583 16.3463V7.67434H28.5955V16.3463H30.1583ZM35.2024 10.0782V13.5385C35.2024 14.3722 34.7601 14.9251 33.9182 14.9251C33.062 14.9251 32.6315 14.3729 32.6315 13.5385V10.0782H31.0658V13.8039C31.0658 15.2472 31.9589 16.5232 33.9182 16.5232H33.9304C35.8776 16.5232 36.7692 15.2188 36.7692 13.8039V10.0782H35.2024ZM19.4271 10.0782L17.8643 14.3243L16.3015 10.0782H14.6396L17.1334 16.3467H18.5974L21.0909 10.0782H19.4271ZM14.6469 13.0354C14.6469 12.1257 14.362 11.3801 13.8036 10.7859C13.2452 10.1918 12.5269 9.90131 11.6459 9.90131C10.7407 9.90131 9.97111 10.2176 9.33863 10.8364C8.71794 11.456 8.4087 12.2392 8.4087 13.2123C8.4087 14.1853 8.71867 14.9818 9.32646 15.6007C9.94715 16.2203 10.6913 16.5232 11.5719 16.5232C12.9246 16.5232 13.8792 15.9166 14.4612 14.6907L13.2957 14.008C12.912 14.7788 12.3529 15.158 11.5966 15.158C10.6666 15.158 10.0091 14.5513 9.90956 13.5912H14.6466V13.035L14.6469 13.0354ZM11.5955 11.1143C12.476 11.1143 13.0595 11.6196 13.208 12.4287H9.90882C10.1451 11.683 10.7894 11.1143 11.5958 11.1143H11.5955ZM8.40833 16.3463L6.31147 12.606C7.63799 12.1132 8.29554 11.254 8.29554 10.0027C8.29702 8.47342 7.10539 7.5 5.20793 7.5H1.5V16.3463H3.13724V12.7575H4.52679L6.53556 16.3467L8.40833 16.3463ZM5.20793 8.96585C6.17546 8.96585 6.65941 9.35765 6.65941 10.1284C6.65941 10.8991 6.17509 11.2909 5.20793 11.2909H3.13724V8.96585H5.20793ZM39.4186 16.5232C38.4127 16.5232 37.597 15.6917 37.597 14.6656V8.3846H39.1598V10.0804H40.5V11.3694H39.1598V14.5631C39.1598 14.8639 39.399 15.1075 39.6946 15.1075H40.5V16.5232H39.4186Z" fill="white"/>
</svg>
