<svg width="42" height="24" viewBox="0 0 42 24" fill="none" xmlns="http://www.w3.org/2000/svg">
<path d="M1.04688 19.911V18.4922H2.10251V18.7323H1.3344V19.0468H2.04917V19.2858H1.3344V19.6719H2.12983V19.911H1.04688Z" fill="white"/>
<path d="M2.38281 18.4922H2.65576V18.7437H2.38281V18.4922ZM2.38281 18.8832H2.65576V19.911H2.38281V18.8832Z" fill="white"/>
<path d="M3.89323 19.9122H3.62028V19.3877C3.62028 19.2767 3.61456 19.2049 3.60285 19.1722C3.59114 19.1398 3.5724 19.1146 3.54612 19.0965C3.51984 19.0783 3.48836 19.0693 3.45141 19.0693C3.40405 19.0693 3.36164 19.0822 3.32417 19.1082C3.2867 19.1338 3.26068 19.1681 3.24689 19.2106C3.23284 19.2531 3.22608 19.3319 3.22608 19.4465V19.9122H2.95312V18.8844H3.20656V19.0353C3.29659 18.9194 3.41004 18.8613 3.54664 18.8613C3.60675 18.8613 3.66165 18.872 3.71161 18.8937C3.76157 18.9153 3.79904 18.943 3.8248 18.9764C3.8503 19.0099 3.86825 19.048 3.87814 19.0905C3.88829 19.1331 3.89323 19.1942 3.89323 19.2736V19.9122Z" fill="white"/>
<path d="M4.44483 18.4922V19.0139C4.53277 18.9112 4.63816 18.8598 4.76045 18.8598C4.82316 18.8598 4.87988 18.8715 4.93036 18.8948C4.98084 18.9179 5.01883 18.9477 5.04459 18.9838C5.07009 19.0198 5.08752 19.06 5.09689 19.1038C5.10626 19.1476 5.11094 19.2158 5.11094 19.3081V19.911H4.83825V19.368C4.83825 19.2602 4.83305 19.192 4.82264 19.1627C4.81223 19.1339 4.79402 19.1108 4.76774 19.0937C4.74146 19.0766 4.70867 19.068 4.66912 19.068C4.62385 19.068 4.58325 19.0789 4.54787 19.1007C4.51222 19.1227 4.4862 19.1559 4.46955 19.2C4.45315 19.2444 4.44483 19.3097 4.44483 19.396V19.911H4.17188V18.4922H4.44483Z" fill="white"/>
<path d="M6.01298 19.5852L6.28489 19.6309C6.25003 19.7302 6.1946 19.8056 6.1194 19.8577C6.04395 19.9096 5.94949 19.9355 5.83631 19.9355C5.65677 19.9355 5.52406 19.8772 5.43794 19.7602C5.37002 19.6669 5.33594 19.5489 5.33594 19.4063C5.33594 19.236 5.38069 19.1025 5.4702 19.006C5.55945 18.9096 5.67238 18.8613 5.80898 18.8613C5.9625 18.8613 6.0835 18.9119 6.17223 19.0127C6.26095 19.1139 6.30337 19.2684 6.29946 19.4769H5.61565C5.61774 19.5575 5.63959 19.6202 5.68175 19.6651C5.7239 19.7099 5.77646 19.7322 5.83917 19.7322C5.88184 19.7322 5.91775 19.7208 5.94689 19.6975C5.97603 19.6742 5.99815 19.6368 6.01298 19.5852ZM6.02859 19.3104C6.02651 19.2316 6.00622 19.1719 5.96745 19.131C5.92842 19.09 5.88132 19.0695 5.82564 19.0695C5.76605 19.0695 5.71687 19.091 5.67784 19.1343C5.63907 19.1774 5.62008 19.2362 5.6206 19.3104H6.02859Z" fill="white"/>
<path d="M6.53125 18.4922H6.8042V18.7437H6.53125V18.4922ZM6.53125 18.8832H6.8042V19.911H6.53125V18.8832Z" fill="white"/>
<path d="M7.57009 18.8845V19.1012H7.38352V19.5156C7.38352 19.5993 7.38535 19.6483 7.38899 19.662L7.41319 19.6965L7.4595 19.71C7.48474 19.71 7.52117 19.7012 7.56905 19.6838L7.59247 19.8949C7.52898 19.9218 7.45716 19.9353 7.37676 19.9353C7.32758 19.9353 7.28335 19.9273 7.2438 19.9107C7.20425 19.8944 7.17536 19.8731 7.15689 19.8469C7.13841 19.8207 7.12566 19.7855 7.11838 19.7409C7.11265 19.7095 7.10979 19.6455 7.10979 19.5493V19.1012H6.98438V18.8845H7.10979V18.6802L7.38352 18.5215V18.8845H7.57009Z" fill="white"/>
<path d="M7.77344 18.4922H8.04639V19.911H7.77344V18.4922Z" fill="white"/>
<path d="M8.33594 18.4922H8.60889V18.7437H8.33594V18.4922ZM8.33594 18.8832H8.60889V19.911H8.33594V18.8832Z" fill="white"/>
<path d="M9.81119 19.1885L9.54214 19.237C9.53303 19.1834 9.51248 19.1432 9.48047 19.1159C9.44847 19.089 9.40683 19.0752 9.35583 19.0752C9.28766 19.0752 9.23354 19.0988 9.19295 19.1455C9.15262 19.1922 9.13232 19.2705 9.13232 19.3801C9.13232 19.502 9.15288 19.5883 9.19399 19.6386C9.2351 19.6889 9.29026 19.7138 9.35948 19.7138C9.41152 19.7138 9.45367 19.6993 9.48671 19.67C9.51976 19.6407 9.54318 19.5902 9.55671 19.5186L9.82472 19.564C9.79688 19.6866 9.74353 19.7792 9.66443 19.8417C9.58559 19.9044 9.47969 19.9355 9.34699 19.9355C9.19607 19.9355 9.07586 19.8881 8.98609 19.7934C8.89658 19.6985 8.85156 19.5673 8.85156 19.3996C8.85156 19.2298 8.89658 19.0978 8.98661 19.0032C9.07664 18.9088 9.19841 18.8613 9.35193 18.8613C9.47735 18.8613 9.57726 18.8883 9.65142 18.9422C9.72558 18.9962 9.77892 19.0781 9.81119 19.1885Z" fill="white"/>
<path d="M10.2964 18.4922V19.0139C10.3843 18.9112 10.4897 18.8598 10.612 18.8598C10.6747 18.8598 10.7314 18.8715 10.7819 18.8948C10.8324 18.9179 10.8704 18.9477 10.8962 18.9838C10.9217 19.0198 10.9391 19.06 10.9485 19.1038C10.9578 19.1476 10.9625 19.2158 10.9625 19.3081V19.911H10.6898V19.368C10.6898 19.2602 10.6846 19.192 10.6742 19.1627C10.6638 19.1339 10.6456 19.1108 10.6193 19.0937C10.593 19.0766 10.5602 19.068 10.5207 19.068C10.4754 19.068 10.4348 19.0789 10.3994 19.1007C10.3638 19.1227 10.3375 19.1559 10.3211 19.2C10.3047 19.2444 10.2964 19.3097 10.2964 19.396V19.911H10.0234V18.4922H10.2964Z" fill="white"/>
<path d="M11.8487 19.5852L12.1206 19.6309C12.0857 19.7302 12.0303 19.8056 11.9551 19.8577C11.8796 19.9096 11.7852 19.9355 11.672 19.9355C11.4924 19.9355 11.3597 19.8772 11.2736 19.7602C11.2057 19.6669 11.1719 19.5489 11.1719 19.4063C11.1719 19.236 11.2164 19.1025 11.3059 19.006C11.3951 18.9096 11.5081 18.8613 11.6447 18.8613C11.7982 18.8613 11.9192 18.9119 12.0079 19.0127C12.0966 19.1139 12.139 19.2684 12.1351 19.4769H11.4513C11.4534 19.5575 11.4753 19.6202 11.5174 19.6651C11.5596 19.7099 11.6121 19.7322 11.6748 19.7322C11.7175 19.7322 11.7534 19.7208 11.7826 19.6975C11.8117 19.6742 11.8338 19.6368 11.8487 19.5852ZM11.8643 19.3104C11.8622 19.2316 11.8419 19.1719 11.8031 19.131C11.7641 19.09 11.717 19.0695 11.6613 19.0695C11.6017 19.0695 11.5526 19.091 11.5135 19.1343C11.4748 19.1774 11.4558 19.2362 11.4563 19.3104H11.8643Z" fill="white"/>
<path d="M12.6323 19.9122H12.3594V18.8844H12.6128V19.0306C12.6563 18.9617 12.6953 18.916 12.7299 18.8943C12.7645 18.8722 12.8038 18.8613 12.848 18.8613C12.9102 18.8613 12.9701 18.8784 13.0276 18.9124L12.943 19.1496C12.8972 19.1198 12.8543 19.105 12.815 19.105C12.7767 19.105 12.7442 19.1157 12.7177 19.1367C12.6911 19.1574 12.6703 19.1955 12.6552 19.2502C12.6399 19.3052 12.6323 19.4198 12.6323 19.5948V19.9122Z" fill="white"/>
<path d="M13.7266 19.911V18.4922H14.7822V18.7323H14.0141V19.0468H14.7289V19.2858H14.0141V19.6719H14.8095V19.911H13.7266Z" fill="white"/>
<path d="M15.7471 19.9125V19.7588C15.7096 19.8135 15.6602 19.8568 15.599 19.8882C15.5379 19.9198 15.4734 19.9359 15.4052 19.9359C15.336 19.9359 15.2738 19.9206 15.2189 19.8902C15.1637 19.8599 15.1239 19.8174 15.0994 19.7627C15.0747 19.7077 15.0625 19.632 15.0625 19.535V18.8848H15.3355V19.3572C15.3355 19.5016 15.3404 19.59 15.3503 19.6227C15.3604 19.6553 15.3786 19.681 15.4052 19.7002C15.4317 19.7191 15.4656 19.7287 15.5061 19.7287C15.553 19.7287 15.5946 19.716 15.6316 19.6906C15.6685 19.6649 15.6937 19.6333 15.7073 19.5957C15.7208 19.5578 15.7276 19.4655 15.7276 19.3183V18.8848H16.0005V19.9125H15.7471Z" fill="white"/>
<path d="M16.5542 19.9122H16.2812V18.8844H16.5347V19.0306C16.5781 18.9617 16.6172 18.916 16.6518 18.8943C16.6864 18.8722 16.7257 18.8613 16.7699 18.8613C16.8321 18.8613 16.8919 18.8784 16.9494 18.9124L16.8649 19.1496C16.8191 19.1198 16.7764 19.105 16.7369 19.105C16.6986 19.105 16.6661 19.1157 16.6395 19.1367C16.613 19.1574 16.5922 19.1955 16.5771 19.2502C16.5617 19.3052 16.5542 19.4198 16.5542 19.5948V19.9122Z" fill="white"/>
<path d="M17.0312 19.3838C17.0312 19.2935 17.0536 19.2062 17.0984 19.1214C17.1429 19.0371 17.2061 18.9726 17.2881 18.928C17.37 18.8836 17.4614 18.8613 17.5626 18.8613C17.7184 18.8613 17.8465 18.9116 17.9461 19.0127C18.0458 19.1136 18.0957 19.2412 18.0957 19.3954C18.0957 19.5507 18.0453 19.6799 17.9446 19.782C17.8439 19.8842 17.7171 19.9353 17.5644 19.9353C17.4699 19.9353 17.3797 19.914 17.2941 19.8715C17.2082 19.829 17.1429 19.7665 17.0984 19.6843C17.0536 19.6021 17.0312 19.5017 17.0312 19.3838ZM17.311 19.3983C17.311 19.5002 17.3352 19.5782 17.3838 19.6324C17.4325 19.6866 17.4923 19.7138 17.5634 19.7138C17.6347 19.7138 17.6942 19.6866 17.7426 19.6324C17.7908 19.5782 17.815 19.4997 17.815 19.3962C17.815 19.2956 17.7908 19.2184 17.7426 19.1642C17.6942 19.11 17.6347 19.0828 17.5634 19.0828C17.4923 19.0828 17.4325 19.11 17.3838 19.1642C17.3352 19.2184 17.311 19.2964 17.311 19.3983Z" fill="white"/>
<path d="M18.2812 19.2598H18.8173V19.5317H18.2812V19.2598Z" fill="white"/>
<path d="M18.875 19.911V19.6527L19.6228 18.7323H18.9596V18.4922H20.0017V18.7149L19.2218 19.6719H20.0316V19.911H18.875Z" fill="white"/>
<path d="M20.4243 19.1981L20.1765 19.1535C20.2044 19.0542 20.2523 18.9806 20.3204 18.9329C20.3883 18.8852 20.4893 18.8613 20.6233 18.8613C20.7451 18.8613 20.8356 18.8756 20.8952 18.9044C20.9548 18.9331 20.9967 18.9697 21.0209 19.0138C21.0454 19.0581 21.0573 19.1393 21.0573 19.257L21.0545 19.5746C21.0545 19.6651 21.0589 19.7315 21.0677 19.7742C21.0763 19.8173 21.0927 19.8632 21.1166 19.9124H20.8468C20.8395 19.8943 20.8309 19.8676 20.8205 19.8321L20.8106 19.8002C20.7641 19.8453 20.7144 19.8793 20.6613 19.9018C20.6082 19.9241 20.5515 19.9355 20.4914 19.9355C20.385 19.9355 20.3014 19.907 20.2403 19.8494C20.1791 19.7921 20.1484 19.7195 20.1484 19.6316C20.1484 19.5736 20.1622 19.522 20.1901 19.4763C20.2179 19.431 20.2569 19.396 20.3072 19.3718C20.3574 19.3477 20.4297 19.3265 20.5242 19.3086C20.6519 19.2845 20.7401 19.2624 20.7893 19.2417V19.2145C20.7893 19.1623 20.7766 19.125 20.7505 19.1027C20.7245 19.0807 20.6759 19.0695 20.6038 19.0695C20.5554 19.0695 20.5174 19.0789 20.4903 19.098C20.463 19.117 20.4412 19.1504 20.4243 19.1981ZM20.7893 19.4188C20.7544 19.4304 20.699 19.4444 20.6233 19.4605C20.5476 19.4766 20.4981 19.4924 20.4747 19.5077C20.4391 19.5329 20.4214 19.565 20.4214 19.6036C20.4214 19.6418 20.4357 19.6747 20.4641 19.7022C20.4927 19.7302 20.5289 19.7439 20.5728 19.7439C20.622 19.7439 20.6691 19.7278 20.7136 19.6954C20.7466 19.6711 20.7685 19.641 20.7786 19.6055C20.7859 19.5821 20.7893 19.538 20.7893 19.473V19.4188Z" fill="white"/>
<path d="M21.6011 18.4922V19.0139C21.689 18.9112 21.7941 18.8598 21.9167 18.8598C21.9794 18.8598 22.0361 18.8715 22.0866 18.8948C22.1371 18.9179 22.1751 18.9477 22.2008 18.9838C22.2263 19.0198 22.2438 19.06 22.2531 19.1038C22.2625 19.1476 22.2672 19.2158 22.2672 19.3081V19.911H21.9942V19.368C21.9942 19.2602 21.989 19.192 21.9789 19.1627C21.9685 19.1339 21.9503 19.1108 21.924 19.0937C21.8977 19.0766 21.8649 19.068 21.8254 19.068C21.7801 19.068 21.7395 19.0789 21.7039 19.1007C21.6685 19.1227 21.6422 19.1559 21.6258 19.2C21.6091 19.2444 21.6011 19.3097 21.6011 19.396V19.911H21.3281V18.4922H21.6011Z" fill="white"/>
<path d="M22.5625 18.4922H22.8355V19.911H22.5625V18.4922Z" fill="white"/>
<path d="M23.8252 19.9125V19.7588C23.7877 19.8135 23.7383 19.8568 23.6772 19.8882C23.616 19.9198 23.5512 19.9359 23.4833 19.9359C23.4141 19.9359 23.3519 19.9206 23.297 19.8902C23.2418 19.8599 23.202 19.8174 23.1773 19.7627C23.1529 19.7077 23.1406 19.632 23.1406 19.535V18.8848H23.4133V19.3572C23.4133 19.5016 23.4185 19.59 23.4284 19.6227C23.4383 19.6553 23.4568 19.681 23.4833 19.7002C23.5099 19.7191 23.5437 19.7287 23.5843 19.7287C23.6308 19.7287 23.6727 19.716 23.7097 19.6906C23.7466 19.6649 23.7716 19.6333 23.7854 19.5957C23.7989 19.5578 23.8057 19.4655 23.8057 19.3183V18.8848H24.0787V19.9125H23.8252Z" fill="white"/>
<path d="M25.3073 19.9122H25.0343V19.3877C25.0343 19.2767 25.0286 19.2049 25.0169 19.1722C25.0052 19.1398 24.9862 19.1146 24.9599 19.0965C24.9339 19.0783 24.9022 19.0693 24.8655 19.0693C24.8181 19.0693 24.7757 19.0822 24.738 19.1082C24.7005 19.1338 24.675 19.1681 24.661 19.2106C24.6469 19.2531 24.6401 19.3319 24.6401 19.4465V19.9122H24.3672V18.8844H24.6206V19.0353C24.7107 18.9194 24.8238 18.8613 24.9604 18.8613C25.0208 18.8613 25.0757 18.872 25.1257 18.8937C25.1754 18.9153 25.2131 18.943 25.2389 18.9764C25.2644 19.0099 25.2821 19.048 25.2922 19.0905C25.3021 19.1331 25.3073 19.1942 25.3073 19.2736V19.9122Z" fill="white"/>
<path d="M25.575 19.9801L25.8867 20.018C25.8919 20.054 25.9039 20.0789 25.9226 20.0924C25.9484 20.1118 25.9892 20.1214 26.0449 20.1214C26.1162 20.1214 26.1695 20.1108 26.2052 20.0893C26.2291 20.0753 26.2473 20.0524 26.2596 20.0208C26.2679 19.9983 26.2721 19.9565 26.2721 19.8958V19.746C26.1906 19.857 26.0878 19.9124 25.9635 19.9124C25.8248 19.9124 25.715 19.8541 25.634 19.7372C25.5708 19.6451 25.5391 19.5303 25.5391 19.3926C25.5391 19.2204 25.5804 19.089 25.6637 18.9977C25.747 18.907 25.8503 18.8613 25.9741 18.8613C26.1016 18.8613 26.207 18.9173 26.2897 19.0288V18.8847H26.545V19.8069C26.545 19.928 26.5351 20.0187 26.5151 20.0789C26.4948 20.1388 26.4667 20.186 26.4305 20.2202C26.3943 20.2544 26.3457 20.2811 26.2853 20.3006C26.2247 20.3198 26.1482 20.3294 26.0556 20.3294C25.8807 20.3294 25.7569 20.2995 25.6837 20.2399C25.6104 20.1803 25.5739 20.1046 25.5739 20.013L25.575 19.9801ZM25.8188 19.377C25.8188 19.4862 25.8399 19.566 25.8823 19.6169C25.9247 19.6674 25.977 19.6928 26.0392 19.6928C26.1058 19.6928 26.162 19.6666 26.208 19.6148C26.2541 19.5629 26.277 19.4859 26.277 19.384C26.277 19.2775 26.2551 19.1986 26.2109 19.1471C26.1669 19.0955 26.1112 19.0695 26.0439 19.0695C25.9785 19.0695 25.9247 19.0949 25.8823 19.1455C25.8399 19.1961 25.8188 19.2733 25.8188 19.377Z" fill="white"/>
<path d="M26.7344 19.6192L27.0084 19.5775C27.0198 19.6303 27.0435 19.6705 27.0791 19.698C27.1148 19.7255 27.1645 19.7392 27.2288 19.7392C27.2993 19.7392 27.3524 19.7263 27.388 19.7006C27.4119 19.6825 27.4239 19.6581 27.4239 19.6278L27.4044 19.5767C27.3909 19.5637 27.3604 19.5518 27.3131 19.5406C27.0932 19.4924 26.9535 19.4483 26.8947 19.4081C26.8132 19.3527 26.7721 19.2757 26.7721 19.1769C26.7721 19.0879 26.8075 19.013 26.878 18.9523C26.9488 18.8917 27.0581 18.8613 27.2064 18.8613C27.3474 18.8613 27.4525 18.8844 27.521 18.9303C27.5897 18.9759 27.637 19.0436 27.6628 19.1333L27.4054 19.1808C27.3945 19.1408 27.3734 19.11 27.3427 19.089C27.312 19.0675 27.268 19.0568 27.2111 19.0568C27.1395 19.0568 27.088 19.0669 27.0568 19.0869L27.0258 19.1421L27.0529 19.1914C27.0776 19.2095 27.1624 19.2349 27.3079 19.2679C27.4531 19.3008 27.5548 19.3413 27.6123 19.3887C27.6693 19.4372 27.6979 19.5046 27.6979 19.5909C27.6979 19.6853 27.6584 19.7662 27.5792 19.8339C27.5004 19.9018 27.3833 19.9355 27.2288 19.9355C27.0882 19.9355 26.9771 19.9073 26.8952 19.8505C26.8132 19.7937 26.7596 19.7167 26.7344 19.6192Z" fill="white"/>
<path d="M28.2124 19.9125L27.7969 18.8848H28.0834L28.2775 19.4093L28.3339 19.5846C28.3488 19.54 28.3581 19.5107 28.362 19.4964C28.3711 19.4674 28.3808 19.4383 28.3912 19.4093L28.5874 18.8848H28.8681L28.4583 19.9125H28.2124Z" fill="white"/>
<path d="M29.6612 19.5852L29.9331 19.6309C29.8982 19.7302 29.8428 19.8056 29.7676 19.8577C29.6921 19.9096 29.5977 19.9355 29.4845 19.9355C29.3049 19.9355 29.1722 19.8772 29.0861 19.7602C29.0182 19.6669 28.9844 19.5489 28.9844 19.4063C28.9844 19.236 29.0289 19.1025 29.1181 19.006C29.2076 18.9096 29.3206 18.8613 29.4572 18.8613C29.6107 18.8613 29.7317 18.9119 29.8204 19.0127C29.9091 19.1139 29.9515 19.2684 29.9476 19.4769H29.2641C29.2659 19.5575 29.2878 19.6202 29.3299 19.6651C29.3721 19.7099 29.4246 19.7322 29.4873 19.7322C29.53 19.7322 29.5659 19.7208 29.5951 19.6975C29.6242 19.6742 29.6463 19.6368 29.6612 19.5852ZM29.6768 19.3104C29.6747 19.2316 29.6544 19.1719 29.6154 19.131C29.5766 19.09 29.5295 19.0695 29.4738 19.0695C29.4142 19.0695 29.365 19.091 29.3263 19.1343C29.2872 19.1774 29.2683 19.2362 29.2688 19.3104H29.6768Z" fill="white"/>
<path d="M30.4526 19.9122H30.1797V18.8844H30.4331V19.0306C30.4766 18.9617 30.5156 18.916 30.5502 18.8943C30.5848 18.8722 30.6241 18.8613 30.6681 18.8613C30.7303 18.8613 30.7904 18.8784 30.8479 18.9124L30.7633 19.1496C30.7175 19.1198 30.6746 19.105 30.6353 19.105C30.5971 19.105 30.5645 19.1157 30.538 19.1367C30.5114 19.1574 30.4906 19.1955 30.4755 19.2502C30.4602 19.3052 30.4526 19.4198 30.4526 19.5948V19.9122Z" fill="white"/>
<path d="M30.9688 19.911V18.4922H31.2417V19.2451L31.5612 18.8832H31.8972L31.5448 19.2586L31.9226 19.911H31.6284L31.3689 19.4492L31.2417 19.5819V19.911H30.9688Z" fill="white"/>
<path d="M32.6927 19.5852L32.9646 19.6309C32.9297 19.7302 32.8745 19.8056 32.7991 19.8577C32.7234 19.9096 32.6292 19.9355 32.516 19.9355C32.3365 19.9355 32.2038 19.8772 32.1176 19.7602C32.0497 19.6669 32.0156 19.5489 32.0156 19.4063C32.0156 19.236 32.0604 19.1025 32.1499 19.006C32.2391 18.9096 32.3521 18.8613 32.4887 18.8613C32.6422 18.8613 32.7632 18.9119 32.8519 19.0127C32.9406 19.1139 32.983 19.2684 32.9791 19.4769H32.2953C32.2974 19.5575 32.3195 19.6202 32.3614 19.6651C32.4036 19.7099 32.4559 19.7322 32.5189 19.7322C32.5615 19.7322 32.5974 19.7208 32.6266 19.6975C32.6557 19.6742 32.6778 19.6368 32.6927 19.5852ZM32.7083 19.3104C32.7062 19.2316 32.6859 19.1719 32.6471 19.131C32.6084 19.09 32.5607 19.0695 32.5051 19.0695C32.4455 19.0695 32.3963 19.091 32.3575 19.1343C32.3188 19.1774 32.2998 19.2362 32.3003 19.3104H32.7083Z" fill="white"/>
<path d="M33.4917 18.4922V19.0139C33.5796 18.9112 33.6848 18.8598 33.8073 18.8598C33.87 18.8598 33.9268 18.8715 33.9772 18.8948C34.0277 18.9179 34.0657 18.9477 34.0915 18.9838C34.117 19.0198 34.1344 19.06 34.1438 19.1038C34.1531 19.1476 34.1578 19.2158 34.1578 19.3081V19.911H33.8849V19.368C33.8849 19.2602 33.8797 19.192 33.8695 19.1627C33.8591 19.1339 33.8409 19.1108 33.8146 19.0937C33.7883 19.0766 33.7555 19.068 33.716 19.068C33.6707 19.068 33.6301 19.0789 33.5945 19.1007C33.5591 19.1227 33.5328 19.1559 33.5164 19.2C33.4998 19.2444 33.4917 19.3097 33.4917 19.396V19.911H33.2188V18.4922H33.4917Z" fill="white"/>
<path d="M34.7105 19.9122H34.4375V18.8844H34.6909V19.0306C34.7344 18.9617 34.7734 18.916 34.808 18.8943C34.8426 18.8722 34.8819 18.8613 34.9262 18.8613C34.9881 18.8613 35.0479 18.8784 35.1057 18.9124L35.0211 19.1496C34.9753 19.1198 34.9324 19.105 34.8931 19.105C34.8549 19.105 34.8223 19.1157 34.7958 19.1367C34.7693 19.1574 34.7484 19.1955 34.7333 19.2502C34.718 19.3052 34.7105 19.4198 34.7105 19.5948V19.9122Z" fill="white"/>
<path d="M35.125 19.6192L35.3987 19.5775C35.4104 19.6303 35.4341 19.6705 35.4698 19.698C35.5054 19.7255 35.5551 19.7392 35.6194 19.7392C35.6899 19.7392 35.743 19.7263 35.7786 19.7006C35.8026 19.6825 35.8145 19.6581 35.8145 19.6278L35.795 19.5767C35.7815 19.5637 35.751 19.5518 35.7037 19.5406C35.4836 19.4924 35.3441 19.4483 35.2853 19.4081C35.2038 19.3527 35.1627 19.2757 35.1627 19.1769C35.1627 19.0879 35.1981 19.013 35.2686 18.9523C35.3394 18.8917 35.4487 18.8613 35.597 18.8613C35.738 18.8613 35.8429 18.8844 35.9116 18.9303C35.9803 18.9759 36.0276 19.0436 36.0534 19.1333L35.7961 19.1808C35.7851 19.1408 35.7641 19.11 35.7334 19.089C35.7026 19.0675 35.6587 19.0568 35.6017 19.0568C35.5301 19.0568 35.4786 19.0669 35.4474 19.0869L35.4164 19.1421L35.4435 19.1914C35.4682 19.2095 35.553 19.2349 35.6985 19.2679C35.8437 19.3008 35.9454 19.3413 36.0029 19.3887C36.0599 19.4372 36.0885 19.5046 36.0885 19.5909C36.0885 19.6853 36.049 19.7662 35.9699 19.8339C35.891 19.9018 35.7739 19.9355 35.6194 19.9355C35.4786 19.9355 35.3678 19.9073 35.2858 19.8505C35.2038 19.7937 35.1502 19.7167 35.125 19.6192Z" fill="white"/>
<path d="M36.6011 19.9122H36.3281V18.8844H36.5816V19.0306C36.625 18.9617 36.664 18.916 36.6987 18.8943C36.7333 18.8722 36.7726 18.8613 36.8168 18.8613C36.879 18.8613 36.9388 18.8784 36.9963 18.9124L36.9118 19.1496C36.866 19.1198 36.8233 19.105 36.7837 19.105C36.7455 19.105 36.7132 19.1157 36.6864 19.1367C36.6601 19.1574 36.6391 19.1955 36.624 19.2502C36.6086 19.3052 36.6011 19.4198 36.6011 19.5948V19.9122Z" fill="white"/>
<path d="M37.3383 19.1981L37.0906 19.1535C37.1187 19.0542 37.1666 18.9806 37.2345 18.9329C37.3024 18.8852 37.4034 18.8613 37.5374 18.8613C37.6591 18.8613 37.75 18.8756 37.8093 18.9044C37.8689 18.9331 37.911 18.9697 37.9352 19.0138C37.9594 19.0581 37.9714 19.1393 37.9714 19.257L37.9685 19.5746C37.9685 19.6651 37.9729 19.7315 37.9818 19.7742C37.9906 19.8173 38.0068 19.8632 38.0307 19.9124H37.7609C37.7536 19.8943 37.745 19.8676 37.7346 19.8321L37.725 19.8002C37.6784 19.8453 37.6284 19.8793 37.5754 19.9018C37.5223 19.9241 37.4656 19.9355 37.4054 19.9355C37.2993 19.9355 37.2155 19.907 37.1543 19.8494C37.0932 19.7921 37.0625 19.7195 37.0625 19.6316C37.0625 19.5736 37.0766 19.522 37.1044 19.4763C37.1322 19.431 37.171 19.396 37.2215 19.3718C37.2714 19.3477 37.3438 19.3265 37.4385 19.3086C37.566 19.2845 37.6542 19.2624 37.7034 19.2417V19.2145C37.7034 19.1623 37.6906 19.125 37.6646 19.1027C37.6388 19.0807 37.5899 19.0695 37.5181 19.0695C37.4695 19.0695 37.4315 19.0789 37.4044 19.098C37.3771 19.117 37.3552 19.1504 37.3383 19.1981ZM37.7034 19.4188C37.6685 19.4304 37.6131 19.4444 37.5374 19.4605C37.4616 19.4766 37.4122 19.4924 37.3888 19.5077C37.3534 19.5329 37.3355 19.565 37.3355 19.6036C37.3355 19.6418 37.3498 19.6747 37.3781 19.7022C37.4067 19.7302 37.4429 19.7439 37.4869 19.7439C37.5361 19.7439 37.5832 19.7278 37.6279 19.6954C37.6607 19.6711 37.6826 19.641 37.693 19.6055C37.7 19.5821 37.7034 19.538 37.7034 19.473V19.4188Z" fill="white"/>
<path d="M38.9349 19.9125V19.7588C38.8974 19.8135 38.8479 19.8568 38.7868 19.8882C38.7256 19.9198 38.6611 19.9359 38.5929 19.9359C38.5237 19.9359 38.4615 19.9206 38.4066 19.8902C38.3515 19.8599 38.3117 19.8174 38.2872 19.7627C38.2625 19.7077 38.25 19.632 38.25 19.535V18.8848H38.523V19.3572C38.523 19.5016 38.5279 19.59 38.538 19.6227C38.5482 19.6553 38.5664 19.681 38.5929 19.7002C38.6195 19.7191 38.6533 19.7287 38.6939 19.7287C38.7407 19.7287 38.7824 19.716 38.8193 19.6906C38.856 19.6649 38.8815 19.6333 38.895 19.5957C38.9086 19.5578 38.9153 19.4655 38.9153 19.3183V18.8848H39.1883V19.9125H38.9349Z" fill="white"/>
<path d="M39.4609 18.8847H39.7123V19.0249C39.8026 18.916 39.9095 18.8613 40.0339 18.8613C40.1 18.8613 40.1572 18.8751 40.2056 18.902C40.2546 18.9293 40.2941 18.9702 40.3253 19.0249C40.3706 18.9702 40.4195 18.9293 40.4721 18.902C40.5244 18.8751 40.5803 18.8613 40.6399 18.8613C40.7156 18.8613 40.7796 18.8769 40.8322 18.9075C40.8848 18.9381 40.9238 18.9832 40.9498 19.0426C40.9685 19.0864 40.9779 19.1574 40.9779 19.2554V19.9124H40.705V19.3252C40.705 19.223 40.6956 19.1574 40.6769 19.1276C40.6516 19.089 40.6128 19.0695 40.5603 19.0695C40.522 19.0695 40.4861 19.0812 40.4526 19.1045C40.419 19.1276 40.3945 19.1616 40.3797 19.2064C40.3649 19.2513 40.3573 19.3221 40.3573 19.4188V19.9124H40.0844V19.3493C40.0844 19.2492 40.0797 19.1846 40.0698 19.1556C40.0602 19.1266 40.0451 19.1051 40.0248 19.0908C40.0042 19.0768 39.9767 19.0695 39.9415 19.0695C39.8996 19.0695 39.8617 19.0807 39.8281 19.1035C39.7943 19.1261 39.7703 19.1587 39.7557 19.2012C39.7412 19.2438 39.7339 19.3143 39.7339 19.4131V19.9124H39.4609V18.8847Z" fill="white"/>
<path d="M1.01562 16.7322L1.42596 16.6925C1.45042 16.8297 1.50064 16.9303 1.5761 16.9949C1.65156 17.0592 1.75356 17.0913 1.88158 17.0913C2.0174 17.0913 2.11966 17.0625 2.18861 17.0055C2.25731 16.9482 2.29191 16.8813 2.29191 16.8046C2.29191 16.7556 2.27734 16.7135 2.24846 16.6788C2.21932 16.6446 2.16884 16.6145 2.09676 16.5888C2.04732 16.5717 1.93492 16.5414 1.75902 16.4981C1.53317 16.4421 1.37444 16.3736 1.28337 16.2922C1.15509 16.1779 1.09108 16.0381 1.09108 15.8735C1.09108 15.7677 1.12127 15.6684 1.18163 15.5764C1.24174 15.4838 1.32865 15.4138 1.44236 15.3653C1.55554 15.3171 1.69267 15.293 1.85321 15.293C2.11524 15.293 2.31247 15.3503 2.44491 15.4649C2.57736 15.5792 2.64709 15.7322 2.65359 15.9233L2.23207 15.9417C2.21385 15.8346 2.17534 15.7579 2.11602 15.7109C2.05669 15.6643 1.96744 15.6407 1.84879 15.6407C1.7265 15.6407 1.63048 15.6658 1.56127 15.7161C1.51651 15.748 1.49414 15.7913 1.49414 15.8452C1.49414 15.8942 1.51495 15.9365 1.55684 15.9715C1.60993 16.0161 1.73925 16.0622 1.94428 16.1105C2.14932 16.1587 2.30102 16.2087 2.39938 16.2603C2.49773 16.3119 2.57449 16.3825 2.63018 16.4716C2.6856 16.5614 2.71344 16.6718 2.71344 16.8033C2.71344 16.9225 2.68013 17.034 2.61378 17.1382C2.54717 17.2422 2.45324 17.3195 2.33172 17.3703C2.21021 17.4209 2.05877 17.4463 1.87741 17.4463C1.61331 17.4463 1.41061 17.3853 1.26906 17.2637C1.12751 17.1421 1.04321 16.965 1.01562 16.7322Z" fill="white"/>
<path d="M3.14062 15.3281H3.54082V15.6971H3.14062V15.3281ZM3.14062 15.9014H3.54082V17.4088H3.14062V15.9014Z" fill="white"/>
<path d="M5.42568 17.4145H5.02549V16.6452C5.02549 16.4823 5.01691 16.3771 4.99973 16.3294C4.98282 16.2817 4.95498 16.2443 4.91647 16.2179C4.87796 16.1914 4.83164 16.1782 4.77752 16.1782C4.70831 16.1782 4.64612 16.1971 4.59096 16.235C4.53579 16.2729 4.49806 16.3229 4.47777 16.3854C4.45721 16.4479 4.44707 16.5632 4.44707 16.7318V17.4145H4.04688V15.907H4.4187V16.1284C4.55063 15.9581 4.71689 15.873 4.91725 15.873C5.00546 15.873 5.08612 15.8889 5.15924 15.9205C5.23235 15.9524 5.28778 15.9928 5.32525 16.0418C5.36271 16.0911 5.38874 16.1471 5.40357 16.2093C5.4184 16.2718 5.42568 16.3613 5.42568 16.4777V17.4145Z" fill="white"/>
<path d="M5.88095 17.5138L6.33812 17.5692C6.34567 17.6221 6.36336 17.6584 6.39094 17.6784C6.42893 17.7069 6.48852 17.7209 6.57048 17.7209C6.67482 17.7209 6.75314 17.7054 6.80544 17.6742C6.84057 17.6532 6.86711 17.6198 6.88506 17.5734C6.89729 17.5402 6.90354 17.4793 6.90354 17.3903V17.1702C6.78411 17.333 6.63293 17.4145 6.45079 17.4145C6.24757 17.4145 6.08651 17.3286 5.96785 17.1575C5.8747 17.0222 5.82812 16.8539 5.82812 16.6522C5.82812 16.3996 5.88927 16.2065 6.01131 16.0732C6.13334 15.9397 6.28504 15.873 6.4664 15.873C6.65348 15.873 6.80778 15.9547 6.9293 16.1186V15.907H7.30399V17.2597C7.30399 17.4375 7.28916 17.5705 7.25975 17.6584C7.23035 17.7466 7.18898 17.8156 7.1359 17.8659C7.08256 17.9159 7.01152 17.955 6.92279 17.9836C6.83406 18.0118 6.72166 18.0261 6.58609 18.0261C6.32953 18.0261 6.14765 17.9823 6.04045 17.8949C5.93325 17.8073 5.87965 17.6963 5.87965 17.562L5.88095 17.5138ZM6.23846 16.6296C6.23846 16.7893 6.26943 16.9065 6.33188 16.9809C6.3938 17.0551 6.47056 17.0922 6.56189 17.0922C6.65947 17.0922 6.74221 17.0541 6.80961 16.9781C6.877 16.9019 6.91082 16.7891 6.91082 16.6395C6.91082 16.4834 6.87856 16.3675 6.81403 16.2918C6.74924 16.2161 6.66754 16.1782 6.56892 16.1782C6.4729 16.1782 6.3938 16.2153 6.33188 16.2894C6.26943 16.3639 6.23846 16.4772 6.23846 16.6296Z" fill="white"/>
<path d="M7.78125 15.3281H8.18144V17.4088H7.78125V15.3281Z" fill="white"/>
<path d="M9.56298 16.9348L9.96187 17.0014C9.91061 17.1471 9.82943 17.2581 9.71884 17.3343C9.60826 17.4106 9.46983 17.4487 9.30382 17.4487C9.04076 17.4487 8.84613 17.3629 8.71967 17.1917C8.62001 17.0546 8.57031 16.8814 8.57031 16.6721C8.57031 16.4225 8.63562 16.2267 8.76676 16.0851C8.89791 15.9438 9.06339 15.873 9.26375 15.873C9.48882 15.873 9.66654 15.9472 9.79664 16.0952C9.92674 16.2433 9.98893 16.4702 9.98321 16.7759H8.98039C8.98325 16.8941 9.01552 16.9861 9.07718 17.052C9.13885 17.1176 9.21587 17.1505 9.30798 17.1505C9.37069 17.1505 9.42351 17.1334 9.46619 17.0994C9.50886 17.0655 9.54112 17.0105 9.56298 16.9348ZM9.58588 16.5316C9.58302 16.4162 9.55309 16.3283 9.49611 16.2684C9.43912 16.2083 9.36965 16.1782 9.28795 16.1782C9.20078 16.1782 9.12844 16.2101 9.07146 16.2734C9.01448 16.3366 8.98663 16.423 8.98742 16.5316H9.58588Z" fill="white"/>
<path d="M11.2891 17.4088V15.3281H12.8373V15.68H11.7106V16.1415H12.7589V16.492H11.7106V17.0583H12.8773V17.4088H11.2891Z" fill="white"/>
<path d="M14.3166 17.4098V17.1842C14.2615 17.2646 14.1891 17.3279 14.0993 17.3743C14.0096 17.4207 13.9149 17.4437 13.8152 17.4437C13.7135 17.4437 13.6224 17.4217 13.5417 17.3771C13.4611 17.3325 13.4025 17.2703 13.3666 17.1897C13.3305 17.1093 13.3125 16.9981 13.3125 16.8562V15.9023H13.7127V16.5951C13.7127 16.807 13.72 16.9369 13.7348 16.9848C13.7494 17.0325 13.7762 17.0704 13.8152 17.0984C13.8542 17.1261 13.9037 17.1401 13.9633 17.1401C14.0317 17.1401 14.0931 17.1215 14.1472 17.0841C14.2013 17.0468 14.2383 17.0001 14.2583 16.9449C14.2781 16.8894 14.2883 16.7541 14.2883 16.5384V15.9023H14.6884V17.4098H14.3166Z" fill="white"/>
<path d="M15.5799 17.4086H15.1797V15.9012H15.5515V16.1156C15.615 16.0142 15.6722 15.9476 15.723 15.9154C15.7737 15.8833 15.8315 15.8672 15.896 15.8672C15.9874 15.8672 16.075 15.8923 16.1596 15.9424L16.0358 16.2901C15.9681 16.2468 15.9057 16.225 15.8476 16.225C15.7917 16.225 15.7441 16.2403 15.7053 16.2711C15.6663 16.3017 15.6356 16.3575 15.6134 16.4379C15.5911 16.5182 15.5799 16.6868 15.5799 16.9429V17.4086Z" fill="white"/>
<path d="M16.3281 16.6395C16.3281 16.507 16.3609 16.3789 16.4265 16.255C16.4921 16.1308 16.5847 16.0361 16.7049 15.9711C16.8249 15.9057 16.9591 15.873 17.1072 15.873C17.3361 15.873 17.5238 15.9472 17.67 16.0952C17.816 16.2433 17.8893 16.4302 17.8893 16.6566C17.8893 16.8845 17.8154 17.0735 17.6676 17.2234C17.5201 17.3735 17.3343 17.4484 17.11 17.4484C16.9713 17.4484 16.8392 17.4173 16.7135 17.3548C16.5875 17.2923 16.4921 17.2008 16.4265 17.0802C16.3609 16.9594 16.3281 16.8127 16.3281 16.6395ZM16.7385 16.6607C16.7385 16.8103 16.7739 16.9247 16.8451 17.0043C16.9164 17.0836 17.0041 17.1235 17.1087 17.1235C17.2131 17.1235 17.3008 17.0836 17.3715 17.0043C17.442 16.9247 17.4777 16.8093 17.4777 16.6579C17.4777 16.5104 17.442 16.3968 17.3715 16.3172C17.3008 16.2378 17.2131 16.1982 17.1087 16.1982C17.0041 16.1982 16.9164 16.2378 16.8451 16.3172C16.7739 16.3968 16.7385 16.5111 16.7385 16.6607Z" fill="white"/>
<path d="M19.1875 17.4088V15.3281H19.864C20.1206 15.3281 20.2876 15.3385 20.3654 15.3592C20.4851 15.3906 20.5853 15.4585 20.666 15.563C20.7466 15.6675 20.787 15.8026 20.787 15.9683C20.787 16.0958 20.7638 16.2032 20.7172 16.2903C20.6706 16.3774 20.6116 16.4459 20.54 16.4957C20.4682 16.5452 20.3954 16.5781 20.3212 16.5942C20.2208 16.6139 20.0748 16.624 19.8841 16.624H19.609V17.4088H19.1875ZM19.609 15.68V16.2706H19.8398C20.0061 16.2706 20.1172 16.2597 20.1731 16.2379C20.2291 16.2162 20.2731 16.1819 20.3048 16.1358C20.3368 16.0894 20.3527 16.0354 20.3527 15.974C20.3527 15.8983 20.3303 15.8358 20.2858 15.7865C20.2411 15.7373 20.1846 15.7064 20.1162 15.6942C20.0659 15.6849 19.9647 15.68 19.8128 15.68H19.609Z" fill="white"/>
<path d="M21.5294 16.367L21.1664 16.3016C21.207 16.1559 21.2775 16.0481 21.3771 15.9781C21.4768 15.908 21.6248 15.873 21.8216 15.873C21.9998 15.873 22.1328 15.894 22.2202 15.9363C22.3076 15.9783 22.369 16.0317 22.4047 16.0965C22.4403 16.1614 22.458 16.2804 22.458 16.4536L22.4539 16.919C22.4539 17.0517 22.4604 17.1492 22.4731 17.2122C22.4859 17.275 22.5098 17.3426 22.5452 17.4144H22.1492C22.1385 17.388 22.1257 17.3486 22.1104 17.2967C22.1039 17.2731 22.0992 17.2573 22.0963 17.2498C22.0279 17.3159 21.9548 17.3657 21.877 17.3989C21.7992 17.4321 21.7162 17.4484 21.6277 17.4484C21.4718 17.4484 21.3493 17.4064 21.2595 17.3221C21.1698 17.2379 21.125 17.1316 21.125 17.0027C21.125 16.9177 21.1453 16.8417 21.1861 16.7751C21.2267 16.7084 21.284 16.6574 21.3579 16.6216C21.4313 16.5863 21.5374 16.5552 21.6761 16.5288C21.8632 16.4938 21.9928 16.4611 22.0648 16.4308V16.3911C22.0648 16.3143 22.0461 16.2599 22.0079 16.2272C21.9699 16.1946 21.8983 16.1782 21.7929 16.1782C21.7216 16.1782 21.666 16.1922 21.6261 16.2202C21.5863 16.248 21.5541 16.297 21.5294 16.367ZM22.0648 16.6905C22.0136 16.7077 21.9327 16.7279 21.8216 16.7517C21.7105 16.7753 21.6376 16.7984 21.6035 16.8212C21.5512 16.858 21.5252 16.905 21.5252 16.9618C21.5252 17.0175 21.546 17.0657 21.5879 17.1064C21.6295 17.1471 21.6826 17.1674 21.7474 17.1674C21.8195 17.1674 21.8882 17.1438 21.9537 17.0966C22.0021 17.0605 22.0341 17.0165 22.0495 16.9646C22.0596 16.9304 22.0648 16.8656 22.0648 16.7701V16.6905Z" fill="white"/>
<path d="M22.7344 15.9023H23.1603L23.5223 16.9726L23.8754 15.9023H24.2899L23.7557 17.353L23.6602 17.6154C23.625 17.7035 23.5915 17.7707 23.56 17.8171C23.528 17.8633 23.4916 17.9011 23.4502 17.9299C23.4088 17.9587 23.3581 17.9812 23.2977 17.9973C23.2373 18.0134 23.1694 18.0214 23.0932 18.0214C23.0164 18.0214 22.941 18.0134 22.8671 17.9973L22.8312 17.6851C22.8939 17.6973 22.9503 17.7035 23.0008 17.7035C23.0937 17.7035 23.1627 17.6763 23.2072 17.6219C23.2519 17.5674 23.286 17.4982 23.3099 17.4139L22.7344 15.9023Z" fill="white"/>
<path d="M24.6016 15.907H24.9705V16.1129C25.1024 15.9529 25.2596 15.873 25.442 15.873C25.5388 15.873 25.6229 15.8928 25.6941 15.9324C25.7652 15.9724 25.8237 16.0325 25.8693 16.1129C25.9356 16.0325 26.0074 15.9724 26.0844 15.9324C26.1612 15.8928 26.2434 15.873 26.3309 15.873C26.442 15.873 26.5359 15.8953 26.6127 15.9402C26.6897 15.9853 26.7472 16.0512 26.7852 16.1383C26.8125 16.2028 26.8265 16.3068 26.8265 16.4507V17.4145H26.4261V16.5529C26.4261 16.4033 26.4126 16.3068 26.385 16.2633C26.3478 16.2065 26.2908 16.1782 26.214 16.1782C26.1578 16.1782 26.1053 16.1951 26.0558 16.2293C26.0064 16.2633 25.971 16.3133 25.9491 16.3789C25.927 16.4448 25.9164 16.5485 25.9164 16.6905V17.4145H25.5159V16.5884C25.5159 16.4416 25.5089 16.347 25.4946 16.3045C25.4805 16.262 25.4584 16.2301 25.4285 16.2093C25.3986 16.1886 25.358 16.1782 25.3067 16.1782C25.2448 16.1782 25.1894 16.1946 25.1399 16.2277C25.0907 16.2609 25.0551 16.3086 25.034 16.3711C25.0124 16.4336 25.0018 16.5373 25.0018 16.682V17.4145H24.6016V15.907Z" fill="white"/>
<path d="M28.1961 16.9289L28.5949 16.9956C28.5437 17.1413 28.4625 17.2522 28.3519 17.3285C28.2413 17.4047 28.1029 17.4428 27.9369 17.4428C27.6736 17.4428 27.4792 17.357 27.3527 17.1859C27.2531 17.0487 27.2031 16.8755 27.2031 16.6663C27.2031 16.4166 27.2687 16.2208 27.3998 16.0793C27.531 15.938 27.6965 15.8672 27.8968 15.8672C28.1219 15.8672 28.2996 15.9413 28.4297 16.0894C28.5596 16.2374 28.622 16.4643 28.6163 16.77H27.6135C27.6163 16.8882 27.6486 16.9803 27.7103 17.0461C27.7722 17.1117 27.8489 17.1446 27.9411 17.1446C28.0038 17.1446 28.0566 17.1275 28.0993 17.0936C28.1419 17.0596 28.1742 17.0046 28.1961 16.9289ZM28.219 16.5258C28.2161 16.4104 28.1862 16.3225 28.1292 16.2626C28.0722 16.2024 28.0027 16.1724 27.921 16.1724C27.8339 16.1724 27.7615 16.2042 27.7045 16.2675C27.6475 16.3308 27.6194 16.4171 27.6205 16.5258H28.219Z" fill="white"/>
<path d="M30.3944 17.4145H29.9942V16.6452C29.9942 16.4823 29.9857 16.3771 29.9685 16.3294C29.9513 16.2817 29.9237 16.2443 29.8852 16.2179C29.8467 16.1914 29.8004 16.1782 29.7463 16.1782C29.6771 16.1782 29.6149 16.1971 29.5597 16.235C29.5045 16.2729 29.4668 16.3229 29.4465 16.3854C29.4262 16.4479 29.4158 16.5632 29.4158 16.7318V17.4145H29.0156V15.907H29.3875V16.1284C29.5194 15.9581 29.6856 15.873 29.886 15.873C29.9742 15.873 30.0549 15.8889 30.128 15.9205C30.2011 15.9524 30.2563 15.9928 30.294 16.0418C30.3315 16.0911 30.3577 16.1471 30.3723 16.2093C30.3871 16.2718 30.3944 16.3613 30.3944 16.4777V17.4145Z" fill="white"/>
<path d="M31.5933 15.9073V16.2252H31.3198V16.8327C31.3198 16.9556 31.3224 17.0274 31.3276 17.0476L31.3633 17.0982C31.3818 17.1114 31.4041 17.1179 31.4309 17.1179C31.4679 17.1179 31.5215 17.1052 31.5917 17.0798L31.6258 17.3891C31.5329 17.4287 31.4275 17.4487 31.3097 17.4487C31.2376 17.4487 31.1726 17.4365 31.1148 17.4127C31.0568 17.3883 31.0144 17.3572 30.9873 17.3188C30.9602 17.2804 30.9412 17.2286 30.9308 17.1635C30.9222 17.1171 30.9181 17.0235 30.9181 16.8824V16.2252H30.7344V15.9073H30.9181V15.6078L31.3198 15.375V15.9073H31.5933Z" fill="white"/>
<path d="M31.8203 16.9843L32.2221 16.9234C32.239 17.0009 32.2736 17.0598 32.3259 17.0999C32.3782 17.1401 32.4513 17.1604 32.5452 17.1604C32.6488 17.1604 32.7266 17.1414 32.7789 17.1036C32.814 17.0771 32.8317 17.0416 32.8317 16.997C32.8317 16.9667 32.8221 16.9418 32.8031 16.9218C32.7833 16.9029 32.7383 16.8855 32.6694 16.8695C32.3462 16.7984 32.1417 16.7336 32.0553 16.675C31.9356 16.5936 31.8757 16.4805 31.8757 16.3356C31.8757 16.2052 31.9275 16.0952 32.0311 16.0063C32.1344 15.9174 32.2949 15.873 32.5127 15.873C32.7196 15.873 32.8734 15.9065 32.974 15.9736C33.0745 16.0411 33.144 16.1404 33.1819 16.2718L32.8044 16.3413C32.7883 16.2827 32.7578 16.2379 32.7125 16.2065C32.6675 16.1754 32.6033 16.1598 32.5195 16.1598C32.4141 16.1598 32.3389 16.1743 32.2931 16.2036C32.2627 16.2244 32.2476 16.2513 32.2476 16.2845C32.2476 16.313 32.2608 16.3372 32.2876 16.3569C32.3235 16.3833 32.4482 16.4209 32.6613 16.4691C32.8744 16.5174 33.0232 16.5765 33.108 16.6465C33.1913 16.7175 33.2332 16.8163 33.2332 16.9431C33.2332 17.0813 33.1754 17.2 33.0597 17.2993C32.9436 17.3986 32.7721 17.4484 32.5452 17.4484C32.3392 17.4484 32.1763 17.4067 32.0561 17.3234C31.9358 17.2402 31.8573 17.1272 31.8203 16.9843Z" fill="white"/>
<path d="M36.353 17.4088H35.8942L35.7121 16.9362H34.8774L34.7048 17.4088H34.2578L35.0709 15.3281H35.5169L36.353 17.4088ZM35.5768 16.5856L35.289 15.8135L35.0069 16.5856H35.5768Z" fill="white"/>
<path d="M37.0408 17.4145H36.6406V15.907H37.0125V16.1214C37.0759 16.0201 37.1332 15.9534 37.1839 15.9213C37.2347 15.8891 37.2924 15.873 37.357 15.873C37.4483 15.873 37.536 15.8982 37.6205 15.9482L37.4967 16.2959C37.429 16.2526 37.3666 16.2308 37.3086 16.2308C37.2526 16.2308 37.205 16.2461 37.1662 16.277C37.1272 16.3076 37.0965 16.3633 37.0741 16.4437C37.052 16.5241 37.0408 16.6926 37.0408 16.9488V17.4145Z" fill="white"/>
<path d="M38.7586 16.9348L39.1574 17.0014C39.1062 17.1471 39.0253 17.2581 38.9147 17.3343C38.8038 17.4106 38.6654 17.4487 38.4994 17.4487C38.2363 17.4487 38.0417 17.3629 37.9152 17.1917C37.8156 17.0546 37.7656 16.8814 37.7656 16.6721C37.7656 16.4225 37.8312 16.2267 37.9623 16.0851C38.0932 15.9438 38.2592 15.873 38.4593 15.873C38.6844 15.873 38.8621 15.9472 38.9922 16.0952C39.1223 16.2433 39.1845 16.4702 39.1788 16.7759H38.176C38.1788 16.8941 38.2111 16.9861 38.2728 17.052C38.3344 17.1176 38.4114 17.1505 38.5036 17.1505C38.5663 17.1505 38.6191 17.1334 38.6618 17.0994C38.7044 17.0655 38.7367 17.0105 38.7586 16.9348ZM38.7815 16.5316C38.7786 16.4162 38.7487 16.3283 38.6917 16.2684C38.6347 16.2083 38.5652 16.1782 38.4835 16.1782C38.3964 16.1782 38.324 16.2101 38.267 16.2734C38.2101 16.3366 38.1822 16.423 38.183 16.5316H38.7815Z" fill="white"/>
<path d="M39.889 16.367L39.526 16.3016C39.5666 16.1559 39.6371 16.0481 39.7368 15.9781C39.8364 15.908 39.9845 15.873 40.1812 15.873C40.3594 15.873 40.4924 15.894 40.5801 15.9363C40.6673 15.9783 40.7287 16.0317 40.7643 16.0965C40.8 16.1614 40.8176 16.2804 40.8176 16.4536L40.8135 16.919C40.8135 17.0517 40.82 17.1492 40.8327 17.2122C40.8455 17.275 40.8694 17.3426 40.9048 17.4144H40.5088C40.4981 17.388 40.4854 17.3486 40.4703 17.2967C40.4635 17.2731 40.4588 17.2573 40.456 17.2498C40.3875 17.3159 40.3144 17.3657 40.2366 17.3989C40.1588 17.4321 40.0758 17.4484 39.9873 17.4484C39.8315 17.4484 39.7089 17.4064 39.6192 17.3221C39.5294 17.2379 39.4844 17.1316 39.4844 17.0027C39.4844 16.9177 39.5049 16.8417 39.5458 16.7751C39.5866 16.7084 39.6436 16.6574 39.7175 16.6216C39.7909 16.5863 39.8971 16.5552 40.0357 16.5288C40.2228 16.4938 40.3524 16.4611 40.4245 16.4308V16.3911C40.4245 16.3143 40.4057 16.2599 40.3675 16.2272C40.3295 16.1946 40.258 16.1782 40.1526 16.1782C40.0815 16.1782 40.0259 16.1922 39.9858 16.2202C39.946 16.248 39.9137 16.297 39.889 16.367ZM40.4245 16.6905C40.3732 16.7077 40.2923 16.7279 40.1812 16.7517C40.0701 16.7753 39.9972 16.7984 39.9631 16.8212C39.9108 16.858 39.8848 16.905 39.8848 16.9618C39.8848 17.0175 39.9056 17.0657 39.9475 17.1064C39.9892 17.1471 40.0422 17.1674 40.107 17.1674C40.1791 17.1674 40.2481 17.1438 40.3134 17.0966C40.362 17.0605 40.3938 17.0165 40.4091 16.9646C40.4193 16.9304 40.4245 16.8656 40.4245 16.7701V16.6905Z" fill="white"/>
<path d="M9.88588 7.15478H7.14934C7.14934 6.70727 7.09652 6.40702 6.9914 6.25405C6.82852 6.02796 6.37915 5.91466 5.64356 5.91466C4.92904 5.91466 4.45548 5.97974 4.22442 6.11015C3.99336 6.24109 3.87757 6.52551 3.87757 6.96343C3.87757 7.35987 3.98009 7.62122 4.18539 7.74619C4.3324 7.83512 4.52677 7.88724 4.76876 7.9028L5.32065 7.94169C6.50352 8.01973 7.24224 8.07496 7.53678 8.10633C8.47221 8.20019 9.15029 8.44806 9.57104 8.84968C9.90202 9.16314 10.0995 9.5728 10.1625 10.0784C10.1994 10.381 10.2176 10.7235 10.2176 11.1038C10.2176 11.9807 10.1336 12.6227 9.96577 13.0295C9.66107 13.7762 8.97648 14.2478 7.91147 14.4459C7.46523 14.5297 6.78272 14.5714 5.86447 14.5714C4.33188 14.5714 3.26401 14.4807 2.66087 14.2979C1.92085 14.0741 1.43272 13.6206 1.19671 12.938C1.06505 12.5579 1 11.9247 1 11.0385H3.73654C3.73654 11.1373 3.7368 11.213 3.7368 11.2651C3.7368 11.738 3.87315 12.0419 4.14558 12.1775C4.33422 12.2708 4.5619 12.3198 4.82965 12.3258H5.83585C6.34922 12.3258 6.67682 12.2996 6.81811 12.247C7.06972 12.1485 7.23495 11.9898 7.31379 11.7702C7.35568 11.6348 7.3765 11.4601 7.3765 11.2459C7.3765 10.7665 7.20086 10.4748 6.85011 10.3701C6.71871 10.3289 6.1088 10.271 5.01959 10.1982C4.1448 10.136 3.53723 10.0761 3.19714 10.018C2.30127 9.85101 1.70411 9.50746 1.40617 8.98606C1.14415 8.54321 1.01327 7.87298 1.01327 6.97614C1.01327 6.29346 1.08405 5.74587 1.22559 5.33413C1.36714 4.92214 1.59534 4.60945 1.91019 4.39555C2.37152 4.06705 2.96192 3.8744 3.68034 3.81684C4.27828 3.76473 4.94153 3.73828 5.67114 3.73828C6.81967 3.73828 7.63826 3.80414 8.12614 3.93455C9.31708 4.25347 9.91243 5.14642 9.91243 6.61393C9.91243 6.73423 9.90358 6.91417 9.88588 7.15478Z" fill="white"/>
<path d="M21.9219 14.5704V3.67969H26.2092H26.8821H27.4022C28.154 3.67969 28.7274 3.74062 29.1217 3.863C30.023 4.14431 30.6277 4.72069 30.9376 5.59134C31.0974 6.04845 31.1775 6.73657 31.1775 7.65545C31.1775 8.76023 31.0888 9.55388 30.9131 10.0374C30.5616 10.9931 29.8382 11.5438 28.7457 11.6864C28.6171 11.708 28.0704 11.7269 27.1054 11.7424L26.6172 11.7585H24.8635V14.5704H21.9219ZM24.8635 9.23211H26.6971C27.2786 9.21137 27.6323 9.16678 27.7595 9.09703C27.9333 9.00187 28.0501 8.81105 28.1082 8.52506C28.1454 8.33475 28.1639 8.05162 28.1639 7.67567C28.1639 7.21493 28.1269 6.87347 28.0527 6.65049C27.9471 6.33806 27.6937 6.14801 27.2924 6.07878C27.2128 6.06841 27.0229 6.06271 26.7218 6.06271H24.8635V9.23211Z" fill="white"/>
<path d="M37.4579 12.6883H33.5249L32.9964 14.5704H29.9531L33.2371 3.67969H37.6743L40.9984 14.5704H38.0191L37.4579 12.6883ZM36.8737 10.5666L35.4954 5.84569L34.158 10.5666H36.8737Z" fill="white"/>
<path d="M17.8627 5.21466C19.0758 5.21466 20.1588 5.77158 20.8704 6.64379L21.5045 5.28907C20.5129 4.35515 19.1632 3.7793 17.6746 3.7793C15.3567 3.7793 13.374 5.17421 12.5604 7.14887H11.3239L10.5938 8.70842H12.1844C12.1724 8.8531 12.1646 8.99777 12.1646 9.14556C12.1646 9.3242 12.174 9.50103 12.1916 9.67552H11.3923L10.6624 11.2356H12.5983C13.4352 13.1602 15.3932 14.5113 17.6746 14.5113C18.8244 14.5113 19.8913 14.168 20.7747 13.5815V11.6696C20.0633 12.4768 19.0227 12.9868 17.8627 12.9868C16.5068 12.9868 15.3141 12.2901 14.6196 11.2356H18.673L19.4031 9.67552H14.0232C13.9954 9.48781 13.9805 9.29594 13.9805 9.10045C13.9805 8.96822 13.9873 8.83754 14.0003 8.70842H19.8556L20.5855 7.14887H14.5064C15.1788 5.99275 16.4298 5.21466 17.8627 5.21466Z" fill="#FFBE00"/>
<path d="M17.8583 5.26112C19.0143 5.26112 20.0973 5.77605 20.8295 6.67315L20.8769 6.73122L20.9089 6.66355L21.5427 5.30883L21.5568 5.27797L21.5326 5.25464C20.4902 4.27302 19.1184 3.73242 17.6701 3.73242C16.539 3.73242 15.4509 4.0617 14.5227 4.68475C13.6164 5.29301 12.9212 6.13903 12.5127 7.13077L12.5559 7.10173H11.3194H11.2892L11.2767 7.1287L10.5468 8.68851L10.5156 8.75514H10.5893H12.1799L12.133 8.70433C12.1198 8.86637 12.1133 9.01027 12.1133 9.14536C12.1133 9.32037 12.1224 9.50057 12.1403 9.67999L12.1872 9.62865H11.3878H11.3582L11.3457 9.65561L10.6153 11.2154L10.5843 11.2821H10.658H12.5939L12.5507 11.2538C13.4234 13.2609 15.4329 14.5578 17.6701 14.5578C18.7916 14.5578 19.8722 14.2339 20.7962 13.6205L20.8167 13.6067V13.5813V11.6694V11.5452L20.7348 11.6386C20.006 12.4654 18.9576 12.9394 17.8583 12.9394C16.5651 12.9394 15.3673 12.2925 14.6541 11.2095L14.6151 11.2821H18.6685H18.6987L18.7112 11.2554L19.4413 9.69502L19.4725 9.62865H19.3986H14.0187L14.0653 9.66858C14.0375 9.47956 14.0231 9.28874 14.0231 9.10024C14.0231 8.9719 14.0296 8.84174 14.0427 8.71288L13.9958 8.75514H19.8511H19.8813L19.8938 8.72818L20.6237 7.16837L20.6552 7.10173H20.581H14.5019L14.5425 7.172C15.2279 5.99332 16.4987 5.26112 17.8583 5.26112ZM14.5019 7.19533H20.581L20.5383 7.1287L19.8087 8.68851L19.8511 8.66154H13.9958H13.9534L13.9487 8.70381C13.9357 8.83552 13.9292 8.96905 13.9292 9.10024C13.9292 9.29314 13.9438 9.48916 13.9721 9.68232L13.9784 9.72225H14.0187H19.3986L19.3562 9.65561L18.6264 11.2154L18.6685 11.1885H14.6151H14.5279L14.5758 11.2605C15.3062 12.3708 16.5336 13.0327 17.8583 13.0327C18.9844 13.0327 20.0588 12.5473 20.8056 11.7003L20.7231 11.6694V13.5813L20.7439 13.5427C19.8355 14.1455 18.7729 14.4642 17.6701 14.4642C15.4701 14.4642 13.4947 13.1893 12.637 11.2165L12.6246 11.1885H12.5939H10.658L10.7009 11.2554L11.4305 9.69502L11.3878 9.72225H12.1872H12.2389L12.234 9.67065C12.2163 9.49434 12.2069 9.31726 12.2069 9.14536C12.2069 9.01312 12.2134 8.8713 12.2267 8.7121L12.2309 8.66154H12.1799H10.5893L10.6317 8.72818L11.3618 7.16837L11.3194 7.19533H12.5559H12.5874L12.5991 7.16629C13.0011 6.19167 13.6844 5.36042 14.5753 4.76227C15.4876 4.15012 16.558 3.82628 17.6701 3.82628C19.0945 3.82628 20.4428 4.35754 21.4678 5.32283L21.4574 5.2689L20.8238 6.62388L20.9026 6.61403C20.1519 5.69489 19.0427 5.16752 17.8583 5.16752C16.4649 5.16752 15.1636 5.91761 14.4611 7.12507L14.4202 7.19533H14.5019Z" fill="#FFBE00"/>
</svg>
