<svg width="42" height="24" viewBox="0 0 42 24" fill="none" xmlns="http://www.w3.org/2000/svg">
<path d="M18.8259 17.826H15.5859L17.6124 6.21094H20.8522L18.8259 17.826Z" fill="white"/>
<path d="M30.5783 6.4945C29.9392 6.25949 28.9256 6 27.6723 6C24.4728 6 22.2197 7.58155 22.2059 9.84268C22.1793 11.5109 23.819 12.4375 25.0454 12.9938C26.2989 13.5622 26.725 13.9332 26.725 14.4398C26.7122 15.218 25.7121 15.5766 24.7793 15.5766C23.4858 15.5766 22.7927 15.3917 21.7394 14.9588L21.3128 14.7732L20.8594 17.3806C21.6193 17.7015 23.0193 17.9862 24.4728 17.9987C27.8724 17.9987 30.0856 16.4417 30.1118 14.0321C30.1247 12.7098 29.2589 11.6967 27.3922 10.8688C26.259 10.3373 25.5651 9.97899 25.5651 9.43522C25.5783 8.94089 26.152 8.43456 27.4312 8.43456C28.4845 8.40976 29.2584 8.64445 29.8446 8.8793L30.1377 9.00264L30.5783 6.4945Z" fill="white"/>
<path d="M34.8877 13.7112C35.1545 13.0439 36.1812 10.4614 36.1812 10.4614C36.1678 10.4862 36.4475 9.78181 36.6075 9.34939L36.8339 10.3502C36.8339 10.3502 37.4475 13.1305 37.5807 13.7112C37.0744 13.7112 35.5277 13.7112 34.8877 13.7112ZM38.887 6.21094H36.3809C35.6081 6.21094 35.0209 6.42082 34.6875 7.17465L29.875 17.8259H33.2746C33.2746 17.8259 33.8343 16.3923 33.9546 16.0835C34.3275 16.0835 37.6346 16.0835 38.1144 16.0835C38.2074 16.4913 38.5009 17.8259 38.5009 17.8259H41.5008L38.887 6.21094Z" fill="white"/>
<path d="M12.8897 6.21094L9.71678 14.1313L9.37005 12.525C8.78344 10.6715 6.94369 8.65765 4.89062 7.65634L7.79695 17.8137H11.2231L16.3157 6.21094H12.8897Z" fill="white"/>
<path d="M6.76607 6.21094H1.55333L1.5 6.44562C5.56626 7.4095 8.25927 9.73287 9.36571 12.5255L8.23252 7.18729C8.04596 6.44546 7.47263 6.23541 6.76607 6.21094Z" fill="#FAA61A"/>
</svg>
