<svg width="50" height="50" viewBox="0 0 50 50" fill="none" xmlns="http://www.w3.org/2000/svg">
<path d="M25 49C38.2548 49 49 38.2548 49 25C49 11.7452 38.2548 1 25 1C11.7452 1 1 11.7452 1 25C1 38.2548 11.7452 49 25 49Z" fill="#35354C"/>
<path d="M25 49C38.2548 49 49 38.2548 49 25C49 11.7452 38.2548 1 25 1C11.7452 1 1 11.7452 1 25C1 38.2548 11.7452 49 25 49Z" stroke="#8080BE" stroke-width="1.46046" stroke-miterlimit="10"/>
<path d="M33.8512 23.2613C33.8512 28.0887 29.9378 32.0021 25.1104 32.0021C20.283 32.0021 16.3696 28.0887 16.3696 23.2613C16.3696 18.4339 20.283 14.5205 25.1104 14.5205C29.9378 14.5205 33.8512 18.4339 33.8512 23.2613ZM24.8244 48.9965C24.9465 48.9962 25.0685 48.996 25.1904 48.9958C30.5976 48.9525 35.5766 47.1215 39.5694 44.0643C37.5233 37.981 31.7779 33.5927 24.9957 33.5927C18.2134 33.5927 12.468 37.981 10.4219 44.0643C14.4205 47.1261 19.4082 48.9584 24.8244 48.9965Z" fill="#8080BE"/>
</svg>
